<?xml version="1.0" standalone="no"?>
<!DOCTYPE svg PUBLIC "-//W3C//DTD SVG 1.1//EN" "http://www.w3.org/Graphics/SVG/1.1/DTD/svg11.dtd" >
<svg xmlns="http://www.w3.org/2000/svg">
<metadata></metadata>
<defs>
<font id="allerbold_italic" horiz-adv-x="921" >
<font-face units-per-em="2048" ascent="1638" descent="-410" />
<missing-glyph horiz-adv-x="428" />
<glyph unicode="ff" horiz-adv-x="1351" d="M-211 -471q10 123 68 221q23 -8 50 -13t44 -5q39 0 73.5 11t64.5 45t53.5 93.5t39.5 155.5l144 801h-170q0 55 8 108t31 113h170l4 16q41 229 152.5 338t297.5 109q59 0 109.5 -9.5t91.5 -23.5q-14 -68 -31.5 -120t-46.5 -105q-18 8 -49 15t-66 7t-61.5 -9t-48 -31.5 t-36.5 -63.5t-28 -105l-4 -18h332l4 16q41 229 158 338t309 109q59 0 105.5 -6.5t93.5 -20.5q-14 -68 -33 -121t-47 -106q-27 8 -53.5 13t-57.5 5q-37 0 -66.5 -9t-53 -31.5t-41 -63.5t-29.5 -105l-4 -18h223q0 -59 -8 -109.5t-31 -111.5h-223l-148 -828 q-27 -150 -71.5 -248t-105 -156.5t-137.5 -82t-167 -23.5q-98 0 -178 29q10 121 67 219q23 -8 50.5 -12t44.5 -4q39 0 71.5 11t59 45t48 93.5t38.5 155.5l143 801h-332l-147 -828q-27 -150 -73 -248t-107.5 -156.5t-139 -82t-168.5 -23.5q-94 0 -186 29z" />
<glyph unicode="fi" horiz-adv-x="1220" d="M-211 -471q10 123 68 221q23 -8 50 -13t44 -5q39 0 73.5 11t64.5 45t53.5 93.5t39.5 155.5l144 801h-170q0 55 8 108t31 113h170l4 16q41 229 161.5 338t325.5 109q88 0 179 -20.5t145 -49.5q-14 -68 -36 -120t-50 -105q-47 29 -114 44t-122 15q-41 0 -72.5 -9 t-57.5 -31.5t-44 -63.5t-31 -105l-4 -18h602l-186 -1059q-78 -12 -147 -12q-63 0 -138 12l148 838h-318l-147 -828q-27 -150 -73 -248t-107.5 -156.5t-139 -82t-168.5 -23.5q-94 0 -186 29z" />
<glyph unicode="fl" horiz-adv-x="1316" d="M-211 -471q10 123 68 221q23 -8 50 -13t44 -5q39 0 73.5 11t64.5 45t53.5 93.5t39.5 155.5l144 801h-170q0 55 8 108t31 113h170l4 16q41 229 161.5 338t325.5 109q125 0 247 -28t202 -60q10 -31 10 -78q0 -43 -8.5 -98.5t-20.5 -120.5l-145 -760q-6 -35 -6 -58 q0 -33 9 -51t23.5 -28.5t33 -13.5t36.5 -3q8 0 30.5 3t41.5 10q10 -35 17 -76t7 -84q0 -16 -1 -30.5t-3 -31.5q-31 -12 -80 -19t-108 -7q-139 0 -219 68.5t-80 215.5q0 29 4 61t10 66l123 637q12 66 21.5 121t13.5 103q-39 12 -80 19t-76 7q-41 0 -72.5 -9t-57.5 -31.5 t-44 -63.5t-31 -105l-4 -18h223q0 -59 -8 -109.5t-30 -111.5h-224l-147 -828q-27 -150 -73 -248t-107.5 -156.5t-139 -82t-168.5 -23.5q-94 0 -186 29z" />
<glyph unicode="ffi" horiz-adv-x="1841" d="M-211 -471q10 123 68 221q23 -8 50 -13t44 -5q39 0 73.5 11t64.5 45t53.5 93.5t39.5 155.5l144 801h-170q0 55 8 108t31 113h170l4 16q41 229 152.5 338t297.5 109q59 0 109.5 -9.5t91.5 -23.5q-14 -68 -31.5 -120t-46.5 -105q-18 8 -49 15t-66 7t-61.5 -9t-48 -31.5 t-36.5 -63.5t-28 -105l-4 -18h336l4 16q41 229 162 338t326 109q88 0 179 -20.5t144 -49.5q-14 -68 -35.5 -120t-50.5 -105q-47 29 -113.5 44t-121.5 15q-41 0 -73 -9t-57.5 -31.5t-44 -63.5t-30.5 -105l-4 -18h602l-186 -1059q-78 -12 -148 -12q-63 0 -137 12l147 838h-317 l-148 -828q-27 -150 -72.5 -248t-107 -156.5t-139.5 -82t-168 -23.5q-94 0 -186 29q10 123 67 221q23 -8 50.5 -13t43.5 -5q39 0 74 11t64.5 45t53 93.5t40.5 155.5l143 801h-336l-147 -828q-27 -150 -73 -248t-107.5 -156.5t-139 -82t-168.5 -23.5q-94 0 -186 29z" />
<glyph unicode="ffl" horiz-adv-x="1949" d="M-211 -471q10 123 68 221q23 -8 50 -13t44 -5q39 0 73.5 11t64.5 45t53.5 93.5t39.5 155.5l144 801h-170q0 55 8 108t31 113h170l4 16q41 229 152.5 338t297.5 109q59 0 109.5 -9.5t91.5 -23.5q-14 -68 -31.5 -120t-46.5 -105q-18 8 -49 15t-66 7t-61.5 -9t-48 -31.5 t-36.5 -63.5t-28 -105l-4 -18h348l4 16q41 229 162 338t326 109q125 0 247 -28t201 -60q10 -31 11 -78q0 -43 -8.5 -98.5t-20.5 -120.5l-145 -760q-6 -35 -7 -58q0 -33 9.5 -51t24 -28.5t32.5 -13.5t37 -3q8 0 30.5 3t41.5 10q10 -35 17 -76t7 -84q0 -16 -1 -30.5t-3 -31.5 q-31 -12 -80 -19t-108 -7q-139 0 -219 68.5t-80 215.5q0 29 4 61t10 66l123 637q12 66 21 121t14 103q-39 12 -80 19t-76 7q-41 0 -73 -9t-57.5 -31.5t-44 -63.5t-30.5 -105l-4 -18h223q0 -59 -8 -109.5t-31 -111.5h-223l-147 -828q-27 -150 -73 -248t-107.5 -156.5 t-139.5 -82t-168 -23.5q-94 0 -186 29q10 123 67 221q23 -8 50.5 -13t44.5 -5q39 0 73.5 11t64.5 45t53.5 93.5t39.5 155.5l143 801h-348l-147 -828q-27 -150 -73 -248t-107.5 -156.5t-139 -82t-168.5 -23.5q-94 0 -186 29z" />
<glyph unicode="&#xd;" horiz-adv-x="972" />
<glyph unicode=" "  horiz-adv-x="428" />
<glyph unicode="&#x09;" horiz-adv-x="428" />
<glyph unicode="&#xa0;" horiz-adv-x="428" />
<glyph unicode="!" horiz-adv-x="589" d="M141 0q0 80 13.5 151.5t38.5 147.5q41 8 77.5 11t73.5 3q35 0 73 -3t75 -11q0 -80 -13.5 -151.5t-38.5 -147.5q-41 -8 -77.5 -11t-73.5 -3q-35 0 -73 3t-75 11zM236 471l161 1002q43 8 82 10t78 2q37 0 77 -2t79 -10l-201 -1002q-39 -6 -71.5 -9t-67.5 -3q-70 0 -137 12z " />
<glyph unicode="&#x22;" horiz-adv-x="874" d="M248 897l100 573q35 8 66.5 10.5t66.5 2.5q33 0 65 -2t66 -11l-100 -573q-37 -6 -68.5 -8t-64.5 -2q-35 0 -66.5 2t-64.5 8zM637 897l100 573q35 8 66.5 10.5t66.5 2.5q33 0 65 -2t66 -11l-100 -573q-37 -6 -68.5 -8t-64.5 -2q-35 0 -66.5 2t-64.5 8z" />
<glyph unicode="#" horiz-adv-x="1503" d="M190 420q0 53 10.5 105.5t28.5 111.5h248l66 248h-230q0 115 39 219h248l80 309q35 6 64.5 8t64.5 2q31 0 60.5 -2t58.5 -8l-80 -309h250l80 309q35 6 64.5 8t64.5 2q31 0 60.5 -2t59.5 -8l-79 -309h215q-4 -53 -11.5 -105.5t-27.5 -113.5h-232l-65 -248h213 q0 -53 -9.5 -105.5t-27.5 -111.5h-232l-92 -359q-37 -6 -66.5 -8t-62.5 -2t-61.5 2t-59.5 8l93 359h-248l-92 -359q-35 -6 -66 -8t-65 -2q-31 0 -60 2t-61 8l92 359h-232zM727 637h250l65 248h-249z" />
<glyph unicode="$" horiz-adv-x="1228" d="M156 47q8 61 20 123.5t43 134.5q78 -37 160 -55.5t162 -18.5q63 0 117.5 14.5t94.5 40t62.5 62.5t22.5 82t-18.5 78t-51.5 60.5t-75 53t-89 54.5q-68 41 -118 80t-81.5 83t-48 94t-16.5 116q0 178 122 290.5t335 135.5l32 182q45 12 91 12q45 0 88 -12l-33 -178 q78 -6 143.5 -22.5t136.5 -45.5q-8 -55 -23 -115.5t-52 -119.5q-59 29 -126 47t-167 18q-37 0 -79 -6t-76 -23.5t-56.5 -48t-22.5 -80.5q0 -59 50.5 -103t144.5 -101q68 -41 125 -80t99 -84t66.5 -100.5t24.5 -129.5q0 -84 -27.5 -162.5t-83 -144t-140.5 -114t-199 -70.5 l-39 -236q-47 -12 -90 -12q-45 0 -88 12l39 217h-13q-98 0 -185 15.5t-181 56.5z" />
<glyph unicode="%" horiz-adv-x="2062" d="M227 936q0 102 30 198.5t87 172t143 121t201 45.5q84 0 144.5 -27t98.5 -73t56.5 -107.5t18.5 -130.5q0 -111 -33 -207.5t-92.5 -169t-143.5 -114.5t-188 -42q-86 0 -147.5 26.5t-99.5 71.5t-56.5 106.5t-18.5 129.5zM477 942q0 -68 25 -106.5t74 -38.5q51 0 84.5 34.5 t55 85t31 106.5t9.5 101q0 72 -23.5 112t-77.5 40q-51 0 -85.5 -36t-55 -88t-29 -109.5t-8.5 -100.5zM512 4l990 1448q70 12 143 12q63 0 141 -12l-991 -1448q-72 -12 -137 -12q-70 0 -146 12zM1284 309q0 102 30 198.5t87 172t143 121t201 45.5q84 0 144.5 -27t98.5 -73 t56.5 -107.5t18.5 -130.5q0 -111 -33 -207.5t-92.5 -169t-143.5 -114.5t-188 -42q-86 0 -147.5 26.5t-99.5 71.5t-56.5 106.5t-18.5 129.5zM1534 315q0 -68 25 -106.5t74 -38.5q51 0 84.5 34.5t55 85t31 106.5t9.5 101q0 72 -23.5 112t-77.5 40q-51 0 -85.5 -36t-55 -88 t-29 -109.5t-8.5 -100.5z" />
<glyph unicode="&#x26;" horiz-adv-x="1515" d="M184 371q0 90 29 164.5t74 133t102 99.5t113 63q-57 35 -97 98.5t-40 149.5q0 102 43 180t113.5 131.5t160.5 80t184 26.5q68 0 139.5 -10t129.5 -35q-4 -57 -16.5 -108.5t-47.5 -108.5q-63 23 -107 30t-90 7q-43 0 -82.5 -10.5t-69.5 -32t-48.5 -55t-18.5 -80.5 q0 -59 36 -99.5t120 -40.5h338l4 21q10 51 12 97t2 77q53 35 131 49t146 14q10 -31 10 -77q0 -33 -5 -71t-13 -83l-6 -27h163q-4 -61 -13 -111t-26 -110h-161l-43 -250q-27 -147 -89.5 -245.5t-151.5 -156.5t-199.5 -82t-233.5 -24q-102 0 -191.5 22.5t-156 70t-105.5 123 t-39 180.5zM496 418q0 -90 59 -141.5t166 -51.5q86 0 147.5 24.5t104.5 68.5t69.5 105.5t38.5 135.5l29 174h-256q-74 0 -120 -11t-75 -26q-74 -37 -118.5 -108.5t-44.5 -169.5z" />
<glyph unicode="'" horiz-adv-x="485" d="M248 897l100 573q35 8 66.5 10.5t66.5 2.5q33 0 65 -2t66 -11l-100 -573q-37 -6 -68.5 -8t-64.5 -2q-35 0 -66.5 2t-64.5 8z" />
<glyph unicode="(" horiz-adv-x="755" d="M246 274q0 244 40 446t103.5 363.5t139 286.5t149.5 217q23 6 56.5 10.5t80.5 4.5q41 0 84 -3.5t72 -11.5q-211 -293 -319.5 -620.5t-108.5 -687.5q0 -115 9 -215.5t23.5 -180.5t30 -137t25.5 -86q-33 -8 -74 -11t-82 -3t-75 4t-54 10q-18 49 -36.5 115.5t-33 146.5 t-22.5 169t-8 183z" />
<glyph unicode=")" horiz-adv-x="786" d="M-10 -340q211 293 319.5 620.5t108.5 688.5q0 115 -10.5 215t-23.5 180t-28.5 137.5t-25.5 85.5q33 8 73.5 11.5t81.5 3.5t75 -4.5t54 -10.5q18 -49 37 -115.5t33 -146.5t22.5 -169t8.5 -183q0 -244 -40 -445.5t-103.5 -363.5t-139.5 -287t-149 -217q-23 -6 -56.5 -10 t-81.5 -4q-41 0 -83.5 3t-71.5 11z" />
<glyph unicode="*" horiz-adv-x="1011" d="M256 1102q10 37 26.5 72.5t39.5 64.5l266 -68q-16 -49 -40 -93t-54 -89zM319 719l179 235q31 -20 72.5 -55t72.5 -72l-209 -211q-29 16 -61.5 45t-53.5 58zM610 1192l72 278q20 4 40.5 6.5t39.5 2.5q43 0 82 -9l-27 -278q-31 -4 -57.5 -6t-52.5 -2q-25 0 -48.5 2t-48.5 6 zM678 836q43 37 83 63.5t87 48.5l102 -250q-31 -29 -60.5 -47t-70.5 -39zM835 1067q-4 51 1 102l274 68q10 -33 17.5 -67.5t7.5 -82.5l-273 -112q-23 41 -27 92z" />
<glyph unicode="+" horiz-adv-x="1228" d="M272 600q0 119 43 248h318l65 362q61 12 129 13q66 0 127 -13l-65 -362h317q4 -59 -8 -121.5t-35 -126.5h-317l-64 -362q-66 -12 -129 -13q-70 0 -127 13l64 362h-318z" />
<glyph unicode="," horiz-adv-x="593" d="M37 -229l221 522q35 10 71 13t68 3q33 0 72 -3t72 -13l-234 -522q-37 -8 -71.5 -10.5t-67.5 -2.5t-64.5 2t-66.5 11z" />
<glyph unicode="-" horiz-adv-x="749" d="M207 475q0 61 11 122.5t32 129.5h512q2 -63 -10.5 -127.5t-32.5 -124.5h-512z" />
<glyph unicode="." horiz-adv-x="589" d="M145 0q0 80 13.5 151.5t38.5 147.5q41 8 77.5 11t73.5 3q35 0 73 -3t75 -11q0 -80 -13.5 -151.5t-38.5 -147.5q-41 -8 -77.5 -11t-73.5 -3q-35 0 -73 3t-75 11z" />
<glyph unicode="/" horiz-adv-x="823" d="M31 0l729 1470q78 14 149 15q76 0 142 -15l-732 -1470q-80 -12 -149 -12q-70 0 -139 12z" />
<glyph unicode="0" horiz-adv-x="1228" d="M172 473q0 92 16.5 192.5t52 199t89 187.5t127 156.5t167 107.5t210.5 40q115 0 199.5 -35t140 -100.5t82 -158.5t26.5 -210q0 -92 -17.5 -193.5t-52 -199t-89 -185.5t-128 -154.5t-168 -105.5t-209.5 -39q-229 0 -337.5 133.5t-108.5 364.5zM469 463q0 -123 44 -182.5 t128 -59.5q61 0 110.5 33t86 86t64.5 121.5t44.5 140.5t24.5 140.5t8 123.5q0 240 -168 240q-94 0 -158.5 -68.5t-105.5 -169t-59.5 -211t-18.5 -194.5z" />
<glyph unicode="1" horiz-adv-x="1228" d="M229 0q0 123 43 246h277l123 704l-244 -96q-16 31 -28.5 59.5t-20.5 53.5q-10 29 -14.5 55.5t-8.5 56.5l611 260h67l-192 -1093h274q0 -55 -10 -114.5t-33 -131.5h-844z" />
<glyph unicode="2" horiz-adv-x="1228" d="M92 29l373 395q39 43 102.5 105.5t125 135t105.5 149.5t44 147q0 66 -52.5 103.5t-136.5 37.5q-76 0 -135 -18.5t-131 -47.5q-29 53 -47 114.5t-21 125.5q106 39 199.5 59.5t210.5 20.5q94 0 172 -21.5t134.5 -64.5t87 -107.5t30.5 -150.5q0 -90 -31.5 -170t-83 -155 t-118 -146.5t-134.5 -141.5l-143 -149h453q0 -63 -10.5 -123.5t-32.5 -126.5h-951z" />
<glyph unicode="3" horiz-adv-x="1228" d="M88 -72q10 59 27.5 118.5t46.5 121.5q72 -27 149.5 -41t155.5 -14q63 0 124.5 16t109 50t77 86t29.5 124q0 53 -17.5 89t-47 57.5t-69.5 30.5t-83 9q-41 0 -81 -5t-79 -15l-18 39l372 491h-446q0 61 10 123t33 127h838l18 -35l-426 -544q158 -16 232.5 -112.5 t74.5 -246.5q0 -127 -54 -226t-145.5 -168t-211 -104.5t-250.5 -35.5q-51 0 -95.5 3t-87.5 10t-89 20.5t-97 31.5z" />
<glyph unicode="4" horiz-adv-x="1228" d="M78 195l717 1171q72 -8 134 -30.5t109 -67.5l-516 -854h287l65 368q35 4 70 7.5t72 3.5q41 0 75.5 -3.5t69.5 -7.5l-65 -368h139q0 -59 -10.5 -122t-32.5 -126h-139l-52 -287q-35 -4 -69.5 -7t-71.5 -3q-41 0 -75.5 3t-69.5 7l51 287h-676z" />
<glyph unicode="5" horiz-adv-x="1228" d="M106 -74q10 59 27 123t45 125q72 -27 137.5 -42t139.5 -15q59 0 121.5 15t112.5 49t82 85t32 123q0 86 -59.5 132t-172.5 46q-59 0 -112 -13t-119 -42l-31 31l168 792h715q0 -61 -11.5 -121.5t-31.5 -128.5h-449l-65 -303q35 6 57.5 9.5t57.5 3.5q82 0 149.5 -27 t116.5 -75t76.5 -113.5t27.5 -141.5q0 -131 -53 -237.5t-146.5 -181t-217 -115.5t-265.5 -41q-68 0 -155.5 14t-176.5 49z" />
<glyph unicode="6" horiz-adv-x="1228" d="M186 444q0 193 64.5 379.5t187.5 334t300 237.5t403 90h30q8 -33 12.5 -63.5t4.5 -61.5t-4 -59.5t-8 -57.5q-104 0 -197.5 -19.5t-171.5 -62.5t-137.5 -112.5t-94.5 -169.5q37 37 109 74.5t184 37.5q76 0 141.5 -23.5t113.5 -70.5t76 -118.5t28 -168.5q0 -129 -44 -244.5 t-124 -202.5t-192.5 -137.5t-250.5 -50.5q-211 0 -320.5 118t-109.5 351zM489 418q0 -98 43 -146.5t121 -48.5q66 0 117 32t86 83t53.5 113.5t18.5 123.5q0 94 -49.5 135.5t-133.5 41.5q-66 0 -113.5 -29t-79.5 -77t-47.5 -107.5t-15.5 -120.5z" />
<glyph unicode="7" horiz-adv-x="1228" d="M250 -29l641 1114h-569q0 57 10 126t33 124h974l7 -24l-830 -1465q-47 12 -81 23.5t-64 26.5q-31 14 -63 33.5t-58 41.5z" />
<glyph unicode="8" horiz-adv-x="1228" d="M178 313q0 152 87.5 266.5t232.5 204.5q-51 37 -91 102.5t-40 153.5q0 92 41 171t109.5 136.5t159.5 90t189 32.5q174 0 281.5 -82.5t107.5 -234.5q0 -119 -64.5 -212t-176.5 -165q76 -51 127 -122.5t51 -192.5q0 -113 -47 -203t-126 -152.5t-182.5 -96.5t-215.5 -34 q-88 0 -168 18.5t-141.5 59.5t-97.5 104.5t-36 155.5zM485 367q0 -72 43 -112t125 -40q49 0 92 16.5t75 46t51.5 73.5t19.5 100q0 39 -15.5 71.5t-42 59t-59 48.5t-69.5 40q-41 -20 -80 -50t-70 -68t-50.5 -84t-19.5 -101zM647 1057q0 -35 15.5 -64.5t39 -52t50 -39.5 t49.5 -27q35 20 66.5 44t56 52.5t39 64.5t14.5 79q0 55 -34 91t-97 36q-86 0 -142.5 -51t-56.5 -133z" />
<glyph unicode="9" horiz-adv-x="1228" d="M209 745q0 123 42 234t120 194.5t187.5 133t242.5 49.5q213 0 326.5 -115t113.5 -348q0 -119 -22.5 -242t-71.5 -238.5t-124 -218t-179 -180.5q-111 -80 -264.5 -119.5t-348.5 -39.5q-12 63 -12 131q0 59 12 118h48q215 0 368.5 86t214.5 277q-41 -37 -114.5 -74 t-196.5 -37q-72 0 -133.5 28t-108.5 79t-73.5 122.5t-26.5 159.5zM508 768q0 -96 48 -136t124 -40q63 0 114.5 27.5t85 73.5t52 104.5t18.5 120.5q0 96 -45 143t-121 47q-68 0 -119 -28.5t-86.5 -76t-53 -108.5t-17.5 -127z" />
<glyph unicode=":" horiz-adv-x="589" d="M145 0q0 80 13.5 151.5t38.5 147.5q41 8 77.5 11t73.5 3q35 0 73 -3t75 -11q0 -80 -13.5 -151.5t-38.5 -147.5q-41 -8 -77.5 -11t-73.5 -3q-35 0 -73 3t-75 11zM278 758q0 80 13.5 151.5t38.5 147.5q41 8 77.5 11t73.5 3q35 0 73 -3t75 -11q0 -80 -13.5 -151.5 t-38.5 -147.5q-41 -8 -77.5 -11t-73.5 -3q-35 0 -73 3t-75 11z" />
<glyph unicode=";" horiz-adv-x="593" d="M-2 -229l221 522q35 10 71 13t68 3q33 0 72 -3t72 -13l-234 -522q-37 -8 -71.5 -10.5t-67.5 -2.5t-64.5 2t-66.5 11zM301 758q0 80 13.5 151.5t38.5 147.5q41 8 77.5 11t73.5 3q35 0 73 -3t75 -11q0 -80 -13.5 -151.5t-38.5 -147.5q-41 -8 -77.5 -11t-73.5 -3 q-35 0 -73 3t-75 11z" />
<glyph unicode="&#x3c;" horiz-adv-x="1228" d="M272 543q-6 156 54 305l907 334q0 -66 -10.5 -139.5t-34.5 -141.5l-656 -211l578 -229q2 -66 -10.5 -131.5t-38.5 -122.5z" />
<glyph unicode="=" horiz-adv-x="1228" d="M250 377q-4 59 8 121.5t35 126.5h862q4 -61 -9 -131t-34 -117h-862zM324 799q0 61 10 121.5t35 126.5h862q0 -61 -10.5 -122t-34.5 -126h-862z" />
<glyph unicode="&#x3e;" horiz-adv-x="1228" d="M225 207q0 66 10.5 139.5t34.5 140.5l656 224l-578 217v14q0 131 49 240l789 -336v-31q0 -141 -53 -274z" />
<glyph unicode="?" horiz-adv-x="968" d="M276 1436q98 39 190.5 50t164.5 11q211 0 326.5 -88t115.5 -258q0 -84 -29.5 -162t-83 -143.5t-125 -115.5t-155.5 -81l-33 -186q-72 -12 -137 -12q-33 0 -66.5 2t-64.5 10l61 352q47 8 104.5 28.5t106.5 56.5t83 87t34 121t-52 106.5t-138 36.5q-61 0 -112.5 -10 t-127.5 -37q-27 53 -42 110.5t-20 121.5zM281 0q0 80 13 151.5t38 147.5q41 8 77.5 11t73.5 3q35 0 73 -3t75 -11q0 -80 -13.5 -151.5t-37.5 -147.5q-41 -8 -78 -11t-74 -3q-35 0 -73 3t-74 11z" />
<glyph unicode="@" horiz-adv-x="2082" d="M211 446q0 182 66.5 368.5t203.5 337.5t349 246t503 95q156 0 294 -42t241.5 -128t164 -216t60.5 -306q0 -127 -42 -251t-117.5 -222.5t-183.5 -160t-239 -63.5q-150 0 -227 78q-61 -31 -129 -54.5t-170 -23.5q-66 0 -123 19.5t-100 61.5t-68.5 105.5t-25.5 151.5 q0 139 46 255t126 200t185 131t226 47q92 0 181.5 -13t166.5 -42l-131 -694q20 -16 68 -17q76 0 135.5 45t99 117t60 159t20.5 171q0 236 -143 360.5t-403 124.5q-201 0 -357.5 -68.5t-264.5 -184t-164 -266.5t-56 -312q0 -147 44 -252t119.5 -171.5t177 -97t216.5 -30.5 q106 0 196.5 13t163.5 42q18 -45 35 -93t29 -95q-37 -18 -88 -34t-110.5 -25t-126 -14t-132.5 -5q-158 0 -299 45t-247.5 138t-168 234.5t-61.5 335.5zM940 489q0 -92 40 -133t105 -41q41 0 71 6.5t65 16.5l88 508q-23 6 -42.5 8t-41.5 2q-68 0 -120 -30.5t-89 -81 t-56.5 -117t-19.5 -138.5z" />
<glyph unicode="A" horiz-adv-x="1296" d="M51 0l688 1473q41 6 87 9t87 3q84 0 168 -12l181 -1473q-78 -12 -150 -12t-154 12l-26 297h-449l-131 -297q-74 -12 -153 -12q-78 0 -148 12zM594 543h315l-53 590z" />
<glyph unicode="B" horiz-adv-x="1196" d="M162 0l258 1473q63 10 141 17t166 7q106 0 201.5 -15.5t166 -54t111.5 -104.5t41 -164q0 -68 -25.5 -131t-66.5 -113.5t-92 -84t-102 -44.5q121 -23 186 -109.5t65 -195.5q0 -139 -54 -235t-149.5 -155.5t-226.5 -87.5t-282 -28q-72 0 -150 5.5t-188 19.5zM498 225 q25 -4 47 -6t45 -2q49 0 105.5 10.5t104.5 40t79.5 81.5t31.5 136q0 92 -60 129t-165 37h-113zM612 877h95q45 0 90 15t78.5 46t55 79t21.5 113q0 45 -18.5 74t-47 44.5t-63.5 20.5t-67 5q-41 0 -74 -6z" />
<glyph unicode="C" horiz-adv-x="1173" d="M211 541q0 199 59.5 372.5t167 304t259 205t335.5 74.5q96 0 171 -11t155 -48q-12 -63 -31.5 -118.5t-54.5 -121.5q-70 27 -122 35t-99 8q-137 0 -235.5 -59.5t-161 -154.5t-92.5 -216t-30 -244q0 -168 87.5 -249.5t248.5 -81.5q31 0 57.5 2t53.5 6t57.5 13.5t69.5 21.5 q23 -53 36 -119t17 -129q-45 -18 -96 -29.5t-99.5 -16.5t-90.5 -7.5t-66 -2.5q-150 0 -261.5 41t-186 116t-111.5 178.5t-37 230.5z" />
<glyph unicode="D" horiz-adv-x="1404" d="M162 0l258 1470q82 10 168 18.5t182 8.5q158 0 284 -41t214 -117.5t135 -188.5t47 -253q0 -221 -69.5 -393t-194.5 -289t-298 -178.5t-378 -61.5q-117 0 -192.5 7.5t-155.5 17.5zM504 238q37 -6 102 -7q117 0 212 47.5t165 131.5t107.5 200.5t37.5 257.5q0 94 -25.5 165 t-69.5 116t-105.5 67.5t-130.5 22.5q-43 0 -65.5 -1t-51.5 -5z" />
<glyph unicode="E" horiz-adv-x="1085" d="M162 0l258 1473h807q0 -8 1 -16.5t1 -16.5q0 -53 -12.5 -108.5t-34.5 -112.5h-508l-56 -320h404q0 -123 -45 -256h-404l-69 -389h522q0 -8 1 -15.5t1 -15.5q0 -55 -13.5 -109.5t-31.5 -113.5h-821z" />
<glyph unicode="F" horiz-adv-x="1038" d="M162 0l258 1473h807q0 -8 1 -16.5t1 -16.5q0 -53 -12.5 -108.5t-34.5 -112.5h-508l-60 -347h404q0 -66 -11.5 -127t-33.5 -129h-404l-108 -616q-84 -12 -152 -12q-74 0 -147 12z" />
<glyph unicode="G" horiz-adv-x="1349" d="M211 541q0 199 59.5 372.5t167 304t259 205t335.5 74.5q96 0 172 -12t154 -47q-12 -63 -31.5 -118.5t-54.5 -121.5q-63 27 -116.5 35t-104.5 8q-137 0 -234.5 -59.5t-160 -154.5t-92 -216t-29.5 -244q0 -178 87 -253.5t230 -75.5q29 0 63.5 3t53.5 7l90 514q41 8 78 11 t71 3q35 0 73 -3t75 -11l-129 -729q-90 -31 -203 -44.5t-211 -13.5q-150 0 -262.5 43t-188 119t-113.5 179.5t-38 224.5z" />
<glyph unicode="H" horiz-adv-x="1366" d="M162 0l258 1470q78 14 151 15q35 0 73 -3t77 -12l-100 -575h444l100 575q41 8 79 11.5t73 3.5t74 -3t75 -12l-258 -1470q-80 -12 -153 -12q-74 0 -148 12l111 637h-445l-110 -637q-84 -12 -154 -12q-74 0 -147 12z" />
<glyph unicode="I" horiz-adv-x="620" d="M162 0l258 1470q78 14 151 15q35 0 73 -3t77 -12l-258 -1470q-84 -12 -154 -12q-74 0 -147 12z" />
<glyph unicode="J" horiz-adv-x="854" d="M72 2q2 55 9 120.5t38 127.5q23 -6 59.5 -12.5t75.5 -6.5q35 0 69.5 5.5t64.5 26t52.5 60t34.5 111.5l137 785h-231q2 29 5 62.5t9 66.5q4 33 12.5 64.5t18.5 60.5h530l-190 -1082q-41 -225 -167 -320.5t-329 -95.5q-51 0 -102 7.5t-96 19.5z" />
<glyph unicode="K" horiz-adv-x="1230" d="M162 0l260 1473q41 8 78 10t75 2q35 0 70 -2t76 -10l-260 -1473q-80 -12 -152 -12q-37 0 -71.5 3t-75.5 9zM618 741l508 732q51 10 90 11t70 1q35 0 82 -3t88 -9l-524 -732l280 -741q-47 -8 -88 -10t-69 -2q-33 0 -72 2t-86 10z" />
<glyph unicode="L" horiz-adv-x="1001" d="M162 0l258 1473q78 14 151 14q72 0 144 -14l-213 -1215h483q0 -35 -4 -66.5t-8 -60.5q-6 -33 -14.5 -64.5t-18.5 -66.5h-778z" />
<glyph unicode="M" horiz-adv-x="1660" d="M158 0l311 1470q84 14 162 15q39 0 71.5 -4t71.5 -11l170 -821l477 821q35 8 72 11.5t74 3.5q35 0 72.5 -3t72.5 -12l-192 -1470q-84 -12 -150 -12q-72 0 -135 12l137 965l-389 -658q-31 -4 -60.5 -7t-58.5 -3t-56.5 2t-55.5 8l-134 666l-198 -973q-72 -12 -133 -12 t-129 12z" />
<glyph unicode="N" horiz-adv-x="1363" d="M162 0l258 1473q35 8 66.5 10t60.5 2q61 0 123 -12l362 -936l162 936q74 12 145 12q33 0 64 -2t61 -10l-260 -1473q-72 -12 -125 -12q-57 0 -121 12l-364 934l-162 -934q-35 -6 -70.5 -9t-70.5 -3q-66 0 -129 12z" />
<glyph unicode="O" horiz-adv-x="1425" d="M205 524q0 111 19.5 226.5t60.5 224t102.5 204t146 166t192.5 111.5t239 41q129 0 225 -39t158.5 -110.5t93.5 -175t31 -234.5q0 -111 -19.5 -226.5t-60.5 -222t-103.5 -200.5t-146.5 -164t-191.5 -110t-238.5 -40q-260 0 -384 145.5t-124 403.5zM516 510 q0 -285 223 -285q80 0 142.5 36t108.5 94.5t79 135t52.5 157.5t28.5 161t9 145q0 287 -221 287q-80 0 -142.5 -36t-109.5 -94t-80 -135t-52 -158t-28.5 -160.5t-9.5 -147.5z" />
<glyph unicode="P" horiz-adv-x="1189" d="M162 0l260 1477q45 4 84 8t77 7t75.5 4t82.5 1q88 0 184.5 -16.5t176.5 -62.5t132 -130t52 -217q0 -129 -44 -239.5t-128 -191.5t-205 -126t-274 -45q-33 0 -53.5 1t-38.5 3l-82 -473q-41 -6 -78 -8t-72 -2q-31 0 -68.5 2t-80.5 8zM588 723q27 -6 92 -6q49 0 100 16.5 t94.5 55t71 102t27.5 160.5q0 59 -19.5 98t-51.5 60.5t-70.5 29.5t-75.5 8h-30.5t-45.5 -4z" />
<glyph unicode="Q" horiz-adv-x="1425" d="M205 524q0 111 19.5 226.5t60.5 224t102.5 204t146 166t192.5 111.5t239 41q129 0 225 -39t158.5 -110.5t93.5 -175t31 -234.5q0 -111 -19.5 -226.5t-60.5 -222t-103.5 -200.5t-146.5 -164t-191.5 -110t-238.5 -40q-260 0 -384 145.5t-124 403.5zM516 510 q0 -285 223 -285q80 0 142.5 36t108.5 94.5t79 135t52.5 157.5t28.5 161t9 145q0 287 -221 287q-80 0 -142.5 -36t-109.5 -94t-80 -135t-52 -158t-28.5 -160.5t-9.5 -147.5zM872 -274q4 53 17.5 117.5t44.5 119.5l487 -78q-2 -29 -8 -63.5t-15 -68.5t-18.5 -62.5 t-17.5 -46.5z" />
<glyph unicode="R" horiz-adv-x="1206" d="M162 0l258 1470q86 16 158.5 21.5t148.5 5.5q104 0 202.5 -17.5t176.5 -61.5t125 -120.5t47 -193.5q0 -94 -27.5 -170t-69.5 -136.5t-91.5 -102.5t-94.5 -68l-24 -15l219 -612q-86 -12 -166 -12t-150 12l-227 684l35 21q31 18 80 43.5t96 67.5t81 101.5t34 143.5 q0 53 -18.5 89t-50.5 58.5t-72.5 31.5t-83.5 9t-70 -6l-219 -1243q-41 -4 -77 -7t-71 -3q-33 0 -71.5 2t-77.5 8z" />
<glyph unicode="S" horiz-adv-x="1087" d="M78 47q8 61 29.5 123.5t52.5 130.5q78 -29 158.5 -49.5t156.5 -20.5q63 0 117.5 14.5t94.5 43t62.5 69.5t22.5 97q0 41 -18.5 71.5t-47 55t-67.5 46t-78 46.5q-131 78 -208 161t-77 195q0 111 39 198t111 146.5t173 91t228 31.5q113 0 195 -16.5t172 -50.5 q-8 -55 -28.5 -117t-57.5 -121q-59 29 -121.5 47t-163.5 18q-37 0 -79 -6t-75.5 -23.5t-56 -48t-22.5 -79.5q0 -70 50 -115t128 -90q70 -39 129 -78t104.5 -84t71 -101.5t25.5 -129.5q0 -104 -38 -200.5t-117 -168.5t-199.5 -115t-286.5 -43q-193 0 -379 72z" />
<glyph unicode="T" horiz-adv-x="1124" d="M272 1219q0 63 11.5 125.5t33.5 128.5h998q0 -63 -11.5 -125t-33.5 -129h-348l-213 -1219q-84 -12 -154 -12q-74 0 -147 12l213 1219h-349z" />
<glyph unicode="U" horiz-adv-x="1368" d="M242 412q0 102 22 233l146 828q41 8 78.5 10t74.5 2q35 0 71 -2t75 -10l-134 -764q-14 -84 -22 -149.5t-8 -119.5q0 -106 39 -156.5t137 -50.5q76 0 127 28t87 86.5t59.5 147.5t45.5 214l134 764q45 8 80.5 10t70.5 2q37 0 74 -2t76 -10l-146 -828q-29 -164 -72 -289 t-116.5 -209t-185 -128t-273.5 -44q-223 0 -331.5 102.5t-108.5 334.5z" />
<glyph unicode="V" horiz-adv-x="1265" d="M272 1473q82 12 166 12q72 0 150 -12l94 -1158l506 1158q74 12 155 12q80 0 158 -12l-698 -1473q-92 -12 -180 -12q-41 0 -80 3t-86 9z" />
<glyph unicode="W" horiz-adv-x="1824" d="M293 1473q74 12 160 12q41 0 77.5 -1t73.5 -11l4 -1072l424 1072q43 8 77 10t71 2q31 0 63.5 -2t67.5 -10l49 -1098l387 1098q37 8 75 10t72 2q35 0 74 -3t72 -9l-594 -1473q-39 -6 -80 -9t-78 -3q-76 0 -164 12l-53 948l-397 -948l-72 -6q-53 -6 -102 -6q-59 0 -133 12z " />
<glyph unicode="X" horiz-adv-x="1288" d="M53 0l410 760l-133 715q43 6 85 8t81 2t71.5 -3t71.5 -9l121 -709l-371 -762q-53 -8 -99 -11t-81 -3q-37 0 -74 3t-82 9zM774 764l354 709q82 12 160 12q39 0 81 -2t83 -8l-379 -699l199 -776q-47 -6 -87 -9t-77 -3q-35 0 -72 3t-86 11z" />
<glyph unicode="Y" horiz-adv-x="1153" d="M242 1473q88 12 166 12q37 0 73.5 -2t75.5 -10l158 -654l379 654q41 6 82 8t81 2q35 0 75 -2t79 -8l-600 -947l-92 -526q-43 -8 -81 -10t-75 -2q-35 0 -70.5 2t-74.5 10l92 526z" />
<glyph unicode="Z" horiz-adv-x="1095" d="M47 20l787 1199h-525q0 31 2 61.5t8 62.5q12 66 35 130h951l12 -25l-782 -1194h516q2 -31 -2.5 -61.5t-8.5 -63.5q-6 -33 -14 -65.5t-18 -63.5h-951z" />
<glyph unicode="[" horiz-adv-x="714" d="M88 -344l340 1933h477q6 -115 -41 -233h-194l-258 -1467h194q0 -113 -41 -233h-477z" />
<glyph unicode="\" horiz-adv-x="1005" d="M256 1473q74 12 141 12q70 0 148 -12l471 -1471q-70 -14 -144 -14q-35 0 -70.5 3t-76.5 11z" />
<glyph unicode="]" horiz-adv-x="702" d="M16 -344q-6 115 41 233h195l258 1467h-195q0 113 41 233h478l-340 -1933h-478z" />
<glyph unicode="^" horiz-adv-x="1095" d="M215 743q109 184 216.5 364.5t215.5 362.5q70 12 137 13q35 0 70 -2t72 -11q45 -182 89 -362t87 -365q-45 -10 -77 -12t-58 -2q-33 0 -66 2t-61 12l-105 445l-248 -447q-33 -6 -71.5 -9t-67.5 -3q-27 0 -59.5 2t-73.5 12z" />
<glyph unicode="_" horiz-adv-x="1009" d="M-14 -205q-2 29 1 53.5t7 51.5q4 23 9 45t15 51h967q2 -29 -1 -53.5t-7 -51.5q-6 -43 -27 -96h-964z" />
<glyph unicode="`" horiz-adv-x="1024" d="M455 1473q41 6 78.5 9t91.5 3q100 0 184 -12l182 -252q-68 -12 -133 -13q-41 0 -78 4.5t-63 8.5z" />
<glyph unicode="a" horiz-adv-x="1165" d="M147 289q0 154 46.5 297t137.5 253.5t226 177t315 66.5q90 0 168 -12t154 -35l-100 -577q-23 -129 -33 -228.5t-10 -154.5v-38t2 -34q-68 -12 -133 -12q-57 0 -127 12q-4 16 -8.5 39t-4.5 68v38.5t4 47.5q-59 -94 -151 -158t-215 -64q-135 0 -203 86t-68 228zM446 360 q0 -151 100 -151h1q98 0 182 120t123 337l31 174q-18 4 -36 5t-34 1q-98 0 -166.5 -49t-114 -123t-66 -159t-20.5 -155z" />
<glyph unicode="b" horiz-adv-x="1204" d="M158 37l188 1063q37 215 37 325q0 23 -1 38.5t-3 33.5q35 6 80 9t78 3q59 0 131 -12q10 -31 10 -78q0 -90 -25 -219l-51 -285q25 31 54.5 61t68.5 54.5t90 38.5t119 14q143 0 220 -98t77 -285q0 -127 -37 -256t-124 -233.5t-230.5 -170t-354.5 -65.5q-96 0 -176 16.5 t-151 45.5zM481 229q16 -6 42 -9t52 -3q90 0 155 42t107 106.5t61.5 142.5t19.5 151q0 72 -30 124.5t-102 52.5q-94 0 -161.5 -80t-98.5 -264z" />
<glyph unicode="c" horiz-adv-x="942" d="M158 401q0 121 40 243t117.5 219.5t191.5 158.5t263 61q70 0 135.5 -10t124.5 -33q-2 -53 -18.5 -113.5t-50.5 -115.5q-45 18 -89.5 28.5t-97.5 10.5q-80 0 -139.5 -36t-99 -94t-59 -134t-19.5 -158q0 -113 57 -166t145 -53q45 0 89 8t110 35q23 -37 37 -88t14 -135 q-66 -29 -139.5 -41.5t-161.5 -12.5q-233 0 -341.5 114t-108.5 312z" />
<glyph unicode="d" horiz-adv-x="1173" d="M147 289q0 154 46.5 297t137.5 253.5t226 177t315 66.5q14 0 27.5 -1t24.5 -1q23 121 32 205t9 139q0 23 -1 38.5t-3 33.5q35 6 79.5 9t77.5 3q59 0 131 -12q10 -31 11 -78q0 -90 -25 -219l-133 -741q-23 -129 -33 -228.5t-10 -154.5v-38t2 -34q-68 -12 -133 -12 q-57 0 -127 12q-4 16 -8.5 39t-4.5 68q0 18 1.5 42.5t5.5 51.5q-29 -47 -69 -89t-88 -73t-103.5 -49.5t-116.5 -18.5q-135 0 -203 86t-68 228zM446 360q0 -151 100 -151h1q98 0 182 120t123 337l31 174q-18 4 -36 5t-34 1q-98 0 -166.5 -49t-114 -123t-66 -159t-20.5 -155z " />
<glyph unicode="e" horiz-adv-x="1042" d="M158 410q0 125 43 245.5t121.5 216t192.5 153.5t255 58q68 0 126 -16t101 -50t68 -83t25 -115q0 -92 -43 -159.5t-115 -114.5t-163 -77t-189 -44l-138 -23q12 -98 65.5 -146t156.5 -48q82 0 144 17.5t132 45.5q33 -41 44 -99t11 -124q-35 -16 -81 -29.5t-95 -22.5 t-98 -14.5t-88 -5.5q-125 0 -214 31t-147.5 87.5t-86 137t-27.5 179.5zM453 594l106 16q78 12 127 32t78 43.5t39 48t10 48.5q0 39 -25.5 63.5t-68.5 24.5q-53 0 -97 -23.5t-77 -62.5t-56.5 -89t-35.5 -101z" />
<glyph unicode="f" horiz-adv-x="735" d="M-211 -471q10 123 68 221q23 -8 50 -13t44 -5q39 0 73.5 11t64.5 45t53.5 93.5t39.5 155.5l144 801h-170q0 55 8 108t31 113h170l4 16q41 229 157.5 338t309.5 109q59 0 105 -6.5t93 -20.5q-14 -68 -32.5 -121t-47.5 -106q-27 8 -53.5 13t-56.5 5q-37 0 -66.5 -9 t-53.5 -31.5t-41 -63.5t-30 -105l-4 -18h223q0 -59 -8 -109.5t-30 -111.5h-224l-147 -828q-27 -150 -73 -248t-107.5 -156.5t-139 -82t-168.5 -23.5q-94 0 -186 29z" />
<glyph unicode="g" horiz-adv-x="1169" d="M68 -463q2 35 5 63.5t9 55.5t16.5 53.5t28.5 59.5q33 -10 89 -19.5t122 -9.5q57 0 119.5 9t121 42t106.5 98.5t75 180.5l31 129q-59 -94 -153.5 -159t-217.5 -65q-135 0 -204 87.5t-69 228.5q0 154 46.5 296t137.5 252.5t227 177t316 66.5q178 0 332 -47l-180 -1013 q-29 -164 -101.5 -265.5t-169 -159t-204 -78t-207.5 -20.5t-170 12.5t-106 24.5zM446 362q0 -74 26 -113.5t77 -39.5q98 0 182 120t123 337l31 174q-18 4 -36 5t-34 1q-98 0 -167.5 -49t-114 -122t-66 -158t-21.5 -155z" />
<glyph unicode="h" horiz-adv-x="1196" d="M152 0l194 1100q37 215 37 325q0 23 -1 38.5t-3 33.5q35 6 80 9t78 3q59 0 131 -12q10 -31 10 -78q0 -90 -25 -219l-53 -287q53 72 141 120t187 48q123 0 191.5 -62.5t68.5 -207.5q0 -31 -4 -65.5t-10 -73.5l-119 -672q-78 -12 -150 -12t-141 12l115 649q8 41 8 78 q0 61 -26.5 86t-76.5 25q-29 0 -64.5 -14.5t-72.5 -60.5t-71.5 -130t-59.5 -221l-76 -412q-39 -6 -76.5 -8t-70.5 -2q-35 0 -69 2t-72 8z" />
<glyph unicode="i" horiz-adv-x="638" d="M199 0l147 838h-129q0 6 -1 12t-1 14q0 53 10.5 99.5t30.5 95.5h414l-187 -1059q-78 -12 -147 -12q-63 0 -137 12zM406 1237v22q0 61 9 115q11 64 36 135q37 8 77.5 11.5t73.5 3.5t73 -3t75 -12q0 -72 -12.5 -137t-37.5 -135q-37 -6 -76.5 -8t-72.5 -2q-31 0 -71.5 2 t-73.5 8z" />
<glyph unicode="j" horiz-adv-x="638" d="M-182 -432q0 92 43 170q23 -6 52.5 -10t53.5 -4q37 0 71 7t62.5 28.5t50 60.5t33.5 102l162 916h-129q0 8 -1 15t-1 15q0 47 11.5 94.5t29.5 96.5h414l-209 -1188q-35 -197 -158 -284t-303 -87q-94 0 -180 23q-2 12 -2 23.5v21.5zM408 1243q-1 17 -1 33q0 49 9 98 q12 64 37 129q41 10 80.5 15.5t70.5 5.5q29 0 68 -5.5t76 -15.5q0 -61 -10.5 -123.5t-35.5 -134.5q-41 -10 -81.5 -14t-69.5 -4q-31 0 -69.5 3t-73.5 13z" />
<glyph unicode="k" horiz-adv-x="1105" d="M154 0l192 1100q37 215 37 325q0 23 -1 38.5t-3 33.5q35 6 80 9t78 3q59 0 131 -12q10 -31 10 -78q0 -90 -25 -219l-211 -1200q-74 -12 -149 -12q-70 0 -139 12zM582 555l215 283q59 78 79.5 133t22.5 88q43 8 81 10t79 2q37 0 79 -3t76 -9q-6 -53 -37.5 -108.5 t-91.5 -139.5l-206 -258l198 -553q-43 -4 -78.5 -7t-72.5 -3q-39 0 -74 2t-76 8z" />
<glyph unicode="l" horiz-adv-x="663" d="M188 272q0 29 4.5 61t10.5 66l135 701q23 109 32 189.5t9 135.5q0 23 -1 38.5t-3 33.5q35 6 80 9t77 3q59 0 132 -12q10 -31 10 -78q0 -43 -8.5 -98t-20.5 -121l-158 -823q-6 -35 -6 -58q0 -33 9.5 -51t23.5 -28.5t32.5 -13.5t37.5 -3q8 0 30.5 3t40.5 10 q10 -35 17.5 -76t7.5 -84q0 -16 -1 -30.5t-3 -31.5q-31 -12 -80 -19t-109 -7q-139 0 -219 68.5t-80 215.5z" />
<glyph unicode="m" horiz-adv-x="1767" d="M150 0l110 604q23 129 34 228.5t11 154.5v38t-2 34q68 12 135 12q31 0 61.5 -3t65.5 -9q4 -16 8.5 -39t4.5 -68q0 -18 -1.5 -36.5t-5.5 -45.5q47 88 140.5 149.5t206.5 61.5q109 0 169 -48t72 -159q49 86 143.5 146.5t204.5 60.5q123 0 186.5 -60t63.5 -202 q0 -70 -14 -147l-119 -672q-78 -12 -149 -12q-72 0 -142 12l115 649q8 47 8 88q0 55 -22.5 78t-69.5 23q-29 0 -62.5 -14.5t-68.5 -55.5t-65.5 -112.5t-51.5 -186.5l-82 -469q-78 -12 -149 -12q-72 0 -142 12l115 649q8 47 8 88q0 55 -22.5 78t-69.5 23q-29 0 -63.5 -14.5 t-69.5 -60.5t-67.5 -130t-57.5 -221l-76 -412q-80 -12 -149 -12q-72 0 -141 12z" />
<glyph unicode="n" horiz-adv-x="1198" d="M150 0l110 604q23 129 34 228.5t11 154.5v38t-2 34q68 12 135 12q31 0 61.5 -3t65.5 -9q4 -16 8.5 -39t4.5 -68q0 -18 -1.5 -36.5t-5.5 -45.5q25 43 62 82t84 68t101 45t110 16q123 0 191.5 -62.5t68.5 -207.5q0 -31 -4 -65.5t-10 -73.5l-119 -672q-78 -12 -150 -12 t-141 12l115 649q8 41 8 78q0 61 -26.5 86t-76.5 25q-29 0 -64.5 -14.5t-72.5 -60.5t-71.5 -130t-59.5 -221l-76 -412q-80 -12 -149 -12q-72 0 -141 12z" />
<glyph unicode="o" horiz-adv-x="1142" d="M160 389q0 123 36.5 247t110.5 223t185.5 161.5t261.5 62.5q213 0 312 -112.5t99 -304.5q0 -127 -35.5 -250t-109.5 -221.5t-186.5 -159t-264.5 -60.5q-211 0 -310 111t-99 303zM451 379q0 -182 145 -182q78 0 131 49t87 121.5t48.5 153.5t14.5 147q0 188 -154 188 q-78 0 -129 -51t-84 -125t-46 -156t-13 -145z" />
<glyph unicode="p" horiz-adv-x="1204" d="M66 -483l192 1087q23 129 34 228.5t11 154.5v38t-2 34q68 12 135 12q57 0 129 -12q4 -16 8.5 -39t4.5 -68q0 -18 -1.5 -34.5t-5.5 -40.5q47 88 143.5 147t219.5 59q143 0 220 -98t77 -285q0 -127 -39 -256t-124 -233.5t-220 -170t-330 -65.5q-35 0 -52 2.5t-28 4.5 l-82 -465q-41 -8 -77.5 -10.5t-69.5 -2.5q-35 0 -70 2t-73 11zM481 227q16 -6 42 -8t52 -2q90 0 155 42t107 106.5t61.5 142.5t19.5 151q0 72 -30 124.5t-102 52.5q-94 0 -161.5 -80t-98.5 -264z" />
<glyph unicode="q" horiz-adv-x="1163" d="M154 293q0 154 46 296t137 251.5t226 176t316 66.5q90 0 167.5 -12t153.5 -35l-266 -1519q-41 -8 -76 -10.5t-70 -2.5q-33 0 -67.5 2t-73.5 11l109 628q-59 -76 -143.5 -123t-188.5 -47q-135 0 -202.5 88.5t-67.5 229.5zM453 365q0 -74 24.5 -115t75.5 -41q98 0 181 120 t122 337l31 174q-18 4 -34.5 5t-33.5 1q-98 0 -166.5 -49t-113.5 -121t-65.5 -157t-20.5 -154z" />
<glyph unicode="r" horiz-adv-x="806" d="M150 0l110 604q23 129 34 228.5t11 154.5v38t-2 34q68 12 135 12q31 0 61.5 -3t65.5 -9q4 -16 8.5 -39t4.5 -68q0 -18 -1.5 -36.5t-5.5 -45.5q20 37 51 73t69 64.5t84 46t102 17.5q43 0 73 -10q2 -8 2 -16.5v-18.5q0 -57 -14 -118.5t-39 -102.5q-12 2 -26.5 4t-36.5 2 q-84 0 -138.5 -28.5t-89.5 -81t-55.5 -126t-36.5 -163.5l-76 -412q-80 -12 -149 -12q-72 0 -141 12z" />
<glyph unicode="s" horiz-adv-x="911" d="M84 29q6 119 61 221q63 -29 130 -40t128 -11q31 0 66 6t63.5 20.5t48 40t19.5 62.5q0 41 -28.5 66.5t-79.5 45.5l-66 27q-33 12 -65.5 31.5t-60.5 49.5t-45 73t-17 102q0 86 33.5 152.5t94 112.5t141.5 70.5t175 24.5q33 0 72 -3t78.5 -9t77.5 -17.5t69 -27.5 q-4 -53 -19.5 -105.5t-50.5 -105.5q-43 23 -104.5 37t-116.5 14q-23 0 -50.5 -4t-52 -14t-41 -30.5t-16.5 -51.5q0 -61 78 -96l80 -35q39 -16 76 -38t65.5 -52.5t46 -71.5t17.5 -96q0 -102 -41 -177t-110.5 -125t-165 -75t-201.5 -25q-66 0 -146 13.5t-143 40.5z" />
<glyph unicode="t" horiz-adv-x="780" d="M162 838q0 55 8 108t31 113h157l13 61q10 51 12 97.5t2 76.5q53 35 133 49.5t148 14.5q10 -31 10 -78q0 -33 -5 -71t-14 -83l-12 -67h254q0 -61 -10 -112.5t-29 -108.5h-254l-71 -404q-4 -29 -7.5 -53.5t-3.5 -46.5q0 -53 24.5 -84t92.5 -31q35 0 61.5 5t49.5 12 q26 -57 26 -149v-7v-32.5t-2 -33.5q-85 -26 -202 -26h-9q-172 0 -255 63.5t-83 212.5q0 31 4.5 63.5t10.5 71.5l77 439h-157z" />
<glyph unicode="u" horiz-adv-x="1198" d="M197 248q0 31 4 65.5t10 73.5l119 672q39 6 76.5 9t72.5 3q70 0 142 -12l-115 -649q-8 -41 -8 -78q0 -61 26.5 -86t75.5 -25q29 0 64.5 14.5t72.5 60.5t72 129t59 222l76 412q80 12 150 12t141 -12l-111 -604q-23 -129 -34 -228.5t-11 -154.5v-38.5t2 -33.5 q-68 -12 -135 -12q-57 0 -127 12q-4 16 -8 38.5t-4 67.5q0 18 1 37t5 45q-25 -43 -61.5 -81.5t-83.5 -67.5t-101.5 -45.5t-109.5 -16.5q-123 0 -191.5 62.5t-68.5 208.5z" />
<glyph unicode="v" horiz-adv-x="1087" d="M188 1059q76 12 152 12q82 0 160 -12l80 -776l231 499q45 96 56.5 154.5t11.5 99.5v23q35 6 76.5 9t86.5 3q92 0 164 -12v-10q0 -49 -24.5 -116t-83.5 -175l-414 -758q-41 -6 -84 -8t-72 -2t-77 1t-82 9z" />
<glyph unicode="w" horiz-adv-x="1650" d="M199 1059q80 12 168 12q35 0 70.5 -2t70.5 -10l29 -735l305 735q63 12 139 12t149 -12l58 -737l198 460q35 80 47.5 141.5t12.5 102.5q0 10 -1 18.5t-1 14.5q68 12 155 12q84 0 156 -12v-8q0 -66 -22.5 -137.5t-73.5 -170.5l-381 -743q-37 -6 -83 -9t-87 -3 q-74 0 -141 12l-60 674l-289 -674q-39 -4 -81.5 -8t-83.5 -4q-35 0 -74 3t-72 9z" />
<glyph unicode="x" horiz-adv-x="1093" d="M47 0q4 47 20.5 90t53.5 100l229 355l-119 514q70 12 148 12q39 0 68.5 -3t68.5 -9l111 -514l-213 -363q-35 -59 -50.5 -97t-19.5 -83q-55 -10 -95 -11t-63 -1q-29 0 -57.5 1t-81.5 9zM641 545l190 321q35 57 43.5 105.5t10.5 89.5q55 10 89 10h58q33 0 64.5 -2t68.5 -8 q0 -39 -9 -96.5t-54 -126.5l-184 -281l129 -557q-84 -12 -154 -12q-74 0 -143 12z" />
<glyph unicode="y" horiz-adv-x="1110" d="M55 -475q4 59 16.5 112.5t41.5 102.5q18 -8 43.5 -13.5t44.5 -5.5q25 0 57.5 5.5t70.5 31t80 77.5t85 145l10 22q-23 -4 -49.5 -5t-55.5 -1h-46.5t-47.5 4l-96 1059q76 12 158 12q72 0 143 -12l55 -926q80 168 134.5 292t91 213t56 148.5t30 100.5t12.5 68.5t2 52.5 q0 20 -2 30.5t-4 20.5q35 6 73.5 9t79.5 3q82 0 154 -12q6 -18 6 -43q0 -35 -9 -77t-22.5 -84t-29 -81t-27.5 -69q-53 -127 -148.5 -325t-244.5 -501q-63 -127 -125 -202.5t-125.5 -114.5t-127 -50.5t-128.5 -11.5q-47 0 -81 6.5t-75 18.5z" />
<glyph unicode="z" horiz-adv-x="958" d="M35 25l606 811h-397q0 31 3 59.5t7 56.5q4 27 11 52.5t20 54.5h800l7 -25l-609 -811h457q0 -31 -3 -59.5t-7 -57.5q-4 -27 -11.5 -52t-17.5 -54h-854z" />
<glyph unicode="{" horiz-adv-x="790" d="M190 623l9 49q57 25 96 54.5t65.5 67t45 87t32.5 114.5l29 179q25 106 57.5 189t86 138t134 84t199.5 29q45 0 72 -8q0 -53 -14.5 -114.5t-30.5 -109.5q-10 2 -18.5 2h-16.5q-57 0 -93 -17t-57.5 -51t-33 -83t-23.5 -115q-23 -123 -44 -206t-49 -138t-63.5 -88t-85.5 -55 q53 -29 82 -79t29 -149q0 -31 -9 -83t-19.5 -110t-19.5 -114.5t-9 -95.5q0 -59 29.5 -87t107.5 -28h29q0 -55 -8.5 -107t-28.5 -112q-20 -4 -40 -4h-38q-174 0 -251 74t-77 217q0 35 4 76t11 82l32 188q4 23 6 46.5t2 45.5q0 70 -27.5 128.5t-101.5 103.5z" />
<glyph unicode="|" horiz-adv-x="692" d="M143 -344l340 1931q70 14 142 15q76 0 139 -15l-340 -1931q-74 -12 -141 -12q-72 0 -140 12z" />
<glyph unicode="}" horiz-adv-x="772" d="M2 -319q0 53 14.5 114.5t30.5 108.5q10 -2 18.5 -2h16.5q57 0 92 17.5t56.5 51t33.5 82.5t25 115q20 123 42.5 206t50.5 138t63.5 88t84.5 55q-53 29 -81.5 79t-28.5 149q0 31 9 83t19.5 110.5t19.5 113.5t9 96q0 59 -29.5 87t-107.5 28h-29q0 55 8.5 107.5t28.5 111.5 q20 4 40 4h38q174 0 251 -73.5t77 -217.5q0 -35 -4.5 -75.5t-10.5 -81.5l-32 -189q-4 -23 -6.5 -46t-2.5 -46q0 -70 28 -128t101 -103l-8 -50q-57 -25 -96 -54.5t-65.5 -67t-45 -87t-32.5 -114.5l-29 -178q-25 -109 -57.5 -191t-86 -137t-134 -84t-199.5 -29q-45 0 -72 9z " />
<glyph unicode="~" horiz-adv-x="1046" d="M205 864q23 20 57.5 42t77.5 40.5t89 29.5t89 11q55 0 96 -13t78 -28.5t76 -28t92 -12.5q35 0 72 15.5t82 54.5q37 -41 62.5 -79t51.5 -103q-25 -25 -60.5 -46.5t-77.5 -37t-88 -24.5t-89 -9q-49 0 -89 12t-77 27.5t-77 29t-89 13.5q-80 0 -164 -70q-35 43 -65.5 84 t-46.5 92z" />
<glyph unicode="&#xa1;" horiz-adv-x="612" d="M76 -418l200 1002q76 12 140 12q70 0 137 -12l-162 -1002q-43 -8 -82 -10t-78 -2q-37 0 -76.5 2t-78.5 10zM297 756q0 80 13.5 151.5t37.5 147.5q41 8 78 11t74 3q35 0 72.5 -3t74.5 -11q0 -80 -13 -152t-38 -147q-41 -8 -78 -11.5t-74 -3.5q-35 0 -72.5 3.5t-74.5 11.5z " />
<glyph unicode="&#xa2;" horiz-adv-x="1228" d="M307 401q0 113 35 225.5t101.5 208t166 161t228.5 81.5l39 223q45 12 92 13q43 0 86 -13l-39 -223q88 -10 164 -37q-2 -53 -18.5 -113.5t-51.5 -115.5q-45 18 -90 28.5t-102 10.5q-78 0 -136.5 -40t-97.5 -101.5t-58.5 -136t-19.5 -144.5q0 -113 57.5 -166t145.5 -53 q45 0 89 8t110 35q23 -37 37 -88t14 -135q-102 -45 -238 -52l-37 -219q-47 -12 -90 -12q-45 0 -88 12l39 226q-174 27 -256 135t-82 282z" />
<glyph unicode="&#xa3;" horiz-adv-x="1228" d="M160 29l30 22q59 45 106.5 105.5t79.5 131t48 147.5t16 155h-192q0 106 39 221h149q-6 55 -6 104q0 119 33 221.5t100.5 177.5t170 117t241.5 42q123 0 209 -24t151 -52q-10 -47 -34.5 -105.5t-67.5 -124.5q-53 23 -115.5 42.5t-152.5 19.5q-127 0 -181.5 -77t-54.5 -224 q0 -27 1 -57.5t5 -59.5h322q4 -53 -7.5 -110.5t-31.5 -110.5h-281q0 -86 -30.5 -170t-79.5 -162h528q0 -35 -4 -66.5t-8 -60.5q-6 -33 -14.5 -64.5t-18.5 -66.5h-946z" />
<glyph unicode="&#xa4;" horiz-adv-x="1228" d="M199 334l143 143q-59 100 -59 223q0 125 63 228l-147 149q27 57 67.5 95t95.5 69l152 -151q102 57 223 57q119 0 221 -57l150 151q47 -31 90 -69.5t72 -92.5l-146 -143q70 -109 70 -236q0 -63 -17.5 -121.5t-48.5 -107.5l142 -139q-31 -47 -71 -90t-91 -72l-143 145 q-102 -59 -228 -59q-129 0 -231 59l-144 -145q-57 27 -95 69t-68 95zM530 700q0 -45 16.5 -83.5t44 -68.5t65.5 -47.5t81 -17.5q45 0 83 17.5t65.5 47.5t44 68.5t16.5 83.5t-16.5 86t-44 71t-65.5 47.5t-83 17.5q-43 0 -81 -17.5t-65.5 -47.5t-44 -71t-16.5 -86z" />
<glyph unicode="&#xa5;" horiz-adv-x="1228" d="M164 319q-4 41 5 89.5t26 85.5h340l24 143h-340q0 94 31 174h237l-204 637q88 12 174 12q39 0 69.5 -3t67.5 -9l151 -561l351 561q41 6 85 9t83 3t71.5 -3t73.5 -9l-416 -637h269q6 -39 -4.5 -90t-26.5 -84h-375l-25 -143h375q0 -86 -30 -175h-375l-58 -321 q-41 -6 -77.5 -8t-73.5 -2q-35 0 -71 2t-75 8l58 321h-340z" />
<glyph unicode="&#xa6;" horiz-adv-x="694" d="M143 -344l121 686q74 12 142 12q72 0 139 -12l-121 -686q-74 -12 -141 -12q-72 0 -140 12zM362 903l121 686q74 12 142 13q72 0 139 -13l-121 -686q-72 -12 -141 -12q-70 0 -140 12z" />
<glyph unicode="&#xa7;" horiz-adv-x="1187" d="M190 33q12 53 43 111.5t60 101.5q47 -23 113.5 -38t128.5 -15q27 0 68.5 2t79.5 12t65.5 34.5t27.5 67.5q0 31 -22.5 44.5t-69.5 29.5l-207 70q-102 35 -141 95t-39 130q0 88 48 155.5t120 133.5q-20 25 -30.5 55.5t-10.5 71.5q0 92 41 163.5t108.5 118.5t153.5 72 t178 25q104 0 181 -14.5t153 -43.5q-12 -53 -42 -111.5t-62 -101.5q-47 23 -104.5 38t-119.5 15q-27 0 -61.5 -3t-66 -13t-53 -31.5t-21.5 -60.5q0 -33 22.5 -49.5t69.5 -32.5l209 -68q104 -35 140 -93t36 -122q0 -92 -45 -167.5t-123 -141.5q20 -23 31.5 -53.5t11.5 -71.5 q0 -96 -48 -165.5t-123 -116t-168 -69t-183 -22.5q-104 0 -188.5 14.5t-160.5 43.5zM547 729q0 -61 90 -88l201 -61q31 25 63.5 59.5t32.5 81.5q0 31 -23.5 55.5t-87.5 42.5l-186 53q-33 -25 -61.5 -60.5t-28.5 -82.5z" />
<glyph unicode="&#xa8;" horiz-adv-x="1024" d="M332 1214q2 63 11 123t32 119q33 6 68.5 9t64.5 3t64.5 -3t66.5 -9q-2 -63 -11.5 -122.5t-31.5 -119.5q-35 -6 -69.5 -8t-65.5 -2q-27 0 -63.5 2t-65.5 8zM784 1214q-2 63 8.5 123t34.5 119q33 6 69 9t65 3t64.5 -3t66.5 -9q-4 -61 -13.5 -120.5t-29.5 -121.5 q-35 -6 -71 -8t-65 -2t-64.5 2t-64.5 8z" />
<glyph unicode="&#xa9;" horiz-adv-x="1683" d="M205 735q0 162 55 302.5t154.5 241.5t240 159.5t310.5 58.5t310 -57.5t239.5 -159.5t154.5 -241.5t55 -303.5t-55 -303t-154.5 -240.5t-239.5 -160t-310 -58.5t-310.5 58.5t-240 160t-154.5 240.5t-55 303zM369 735q0 -129 41 -240.5t117.5 -193.5t187.5 -129t250 -47 t249.5 47t187.5 129t118 193.5t41 240.5t-41 240.5t-118 193.5t-187.5 129.5t-249.5 47.5t-250 -47.5t-187.5 -129.5t-117.5 -193.5t-41 -240.5zM602 737q0 84 25.5 161t75 135.5t121 93t163.5 34.5q70 0 116 -8t105 -31q0 -41 -8 -92t-29 -92q-49 16 -81.5 21.5t-73.5 5.5 q-90 0 -139.5 -58.5t-49.5 -169.5q0 -117 52.5 -172t136.5 -55q47 0 78 4.5t82 24.5q20 -33 31.5 -82t11.5 -103q-59 -23 -111.5 -30t-112.5 -7q-96 0 -169.5 34t-123 90.5t-75 133t-25.5 162.5z" />
<glyph unicode="&#xaa;" horiz-adv-x="1024" d="M254 842q0 119 38 232.5t111.5 201.5t183 141t255.5 53q72 0 141.5 -9t128.5 -27l-80 -455q-16 -102 -24.5 -180t-8.5 -121v-28.5t2 -28.5q-29 -4 -62.5 -6.5t-57.5 -2.5q-25 0 -48.5 2t-52.5 7q-4 12 -7 30.5t-3 53.5v31.5t4 35.5q-47 -74 -118.5 -124t-170.5 -50 q-117 0 -174 65.5t-57 178.5zM508 901q0 -119 78 -119t146.5 100.5t96.5 272.5l21 123q-14 4 -27.5 5t-25.5 1q-78 0 -132.5 -39t-89 -96t-51 -125t-16.5 -123z" />
<glyph unicode="&#xab;" horiz-adv-x="1329" d="M178 551l430 448q63 12 140 13q41 0 89 -3t89 -10l-437 -467l256 -442q-80 -12 -163 -12q-72 0 -136 12zM725 551l430 448q63 12 140 13q41 0 89 -3t89 -10l-437 -467l256 -442q-80 -12 -163 -12q-72 0 -136 12z" />
<glyph unicode="&#xac;" horiz-adv-x="1228" d="M256 723q0 66 12 127h875v-590q-61 -12 -125 -12q-66 0 -127 12v338h-623q-12 61 -12 125z" />
<glyph unicode="&#xad;" horiz-adv-x="749" d="M207 475q0 61 11 122.5t32 129.5h512q2 -63 -10.5 -127.5t-32.5 -124.5h-512z" />
<glyph unicode="&#xae;" horiz-adv-x="1683" d="M205 735q0 162 55 302.5t154.5 241.5t240 159.5t310.5 58.5t310 -57.5t239.5 -159.5t154.5 -241.5t55 -303.5t-55 -303t-154.5 -240.5t-239.5 -160t-310 -58.5t-310.5 58.5t-240 160t-154.5 240.5t-55 303zM369 735q0 -129 41 -240.5t117.5 -193.5t187.5 -129t250 -47 t249.5 47t187.5 129t118 193.5t41 240.5t-41 240.5t-118 193.5t-187.5 129.5t-249.5 47.5t-250 -47.5t-187.5 -129.5t-117.5 -193.5t-41 -240.5zM690 360v783q57 10 110.5 15t119.5 5q195 0 278.5 -68.5t83.5 -181.5q0 -70 -27.5 -124t-62.5 -82l-31 -25l180 -320 q-29 -4 -60.5 -6t-66.5 -2q-29 0 -54 2t-50 6l-184 359l32 20q47 29 78 63t31 83q0 47 -28.5 76.5t-90.5 29.5q-14 0 -25.5 -1t-31.5 -5v-627q-41 -8 -96 -8q-25 0 -51.5 2t-53.5 6z" />
<glyph unicode="&#xaf;" horiz-adv-x="1024" d="M409 1292.5q1 24.5 5 50.5q8 51 30 105h543q2 -27 1 -51.5t-5 -50.5q-10 -53 -31 -105h-542q-2 27 -1 51.5z" />
<glyph unicode="&#xb0;" horiz-adv-x="772" d="M225 1178q0 63 24.5 120.5t65.5 98.5t97.5 65.5t119.5 24.5t121 -24.5t100 -65.5t66.5 -98.5t24.5 -120.5t-24.5 -118.5t-66.5 -97.5t-99.5 -66t-121.5 -24q-63 0 -119.5 24t-97.5 66t-65.5 97.5t-24.5 118.5zM406 1178q0 -59 36.5 -96.5t89.5 -37.5t92.5 37t39.5 97 q0 59 -39 98t-93 39q-53 0 -89.5 -39t-36.5 -98z" />
<glyph unicode="&#xb1;" horiz-adv-x="1228" d="M201 0q0 68 10 125t33 123h284l62 352h-318q0 119 43 248h318l65 362q61 12 129 13q66 0 127 -13l-65 -362h317q4 -59 -8 -121.5t-35 -126.5h-317l-62 -352h334q4 -61 -8 -127t-35 -121h-874z" />
<glyph unicode="&#xb2;" d="M203 662l313 301q57 55 105.5 109t48.5 112q0 92 -97 92q-47 0 -92 -13.5t-92 -35.5q-16 35 -31.5 79t-19.5 95q59 29 139 50.5t158 21.5q137 0 211 -67t74 -171q0 -59 -16.5 -105.5t-45.5 -88.5t-67.5 -79.5t-83.5 -80.5l-66 -62h246q0 -47 -8.5 -97t-26.5 -97h-641z " />
<glyph unicode="&#xb3;" d="M242 653q8 47 30.5 91t51.5 77q53 -18 94 -29.5t94 -11.5q31 0 61.5 7.5t55 22.5t39 37.5t14.5 53.5q0 47 -34 67.5t-79 20.5q-12 0 -33.5 -2t-56.5 -12l-35 45l226 244h-279q0 47 7.5 92t23.5 92h541l14 -41l-238 -285q86 -14 130 -68.5t44 -133.5q0 -74 -31.5 -133.5 t-87 -100.5t-128 -62.5t-154.5 -21.5q-86 0 -151.5 14.5t-118.5 36.5z" />
<glyph unicode="&#xb4;" horiz-adv-x="1024" d="M455 1221l209 252q82 12 184 12q53 0 91 -3t79 -9l-289 -252q-27 -4 -63.5 -8.5t-77.5 -4.5q-66 0 -133 13z" />
<glyph unicode="&#xb5;" horiz-adv-x="1193" d="M39 -485l272 1544q70 12 144 12q72 0 143 -12l-100 -551q-6 -35 -13.5 -79t-7.5 -79q0 -78 38 -113.5t114 -35.5q88 0 137 63.5t72 179.5l110 615q68 12 144 12q72 0 143 -12l-191 -1061q-23 -4 -44 -7t-56 -3q-33 0 -64.5 3t-56.5 9q-4 31 -3 67.5t5 65.5 q-51 -84 -115.5 -121t-142.5 -37q-55 0 -96 19.5t-59 46.5l-90 -526q-39 -6 -75 -8.5t-71 -2.5q-37 0 -69.5 2t-67.5 9z" />
<glyph unicode="&#xb6;" horiz-adv-x="1261" d="M276 987q0 147 61.5 243.5t164 154t233.5 80t273 20.5l-252 -1495q-29 0 -59.5 1t-59.5 3t-51.5 5t-32.5 7l106 635q-76 6 -145.5 26.5t-121.5 61.5t-84 103.5t-32 154.5zM891 -12l252 1497q63 0 122.5 -3t82.5 -12l-246 -1468q-27 -8 -86.5 -11t-124.5 -3z" />
<glyph unicode="&#xb7;" horiz-adv-x="591" d="M233 438q0 80 13.5 151.5t38.5 147.5q41 8 77.5 11t73.5 3q35 0 73 -3t75 -11q0 -80 -13.5 -151.5t-38.5 -147.5q-41 -8 -77.5 -11t-73.5 -3q-35 0 -73 3t-75 11z" />
<glyph unicode="&#xb8;" horiz-adv-x="1024" d="M246 -457q8 33 21.5 67t35.5 64q35 -10 65.5 -17t61.5 -7q14 0 35.5 2t40 8t32 19.5t13.5 35.5q0 35 -27.5 47.5t-74.5 12.5q-29 0 -61 -4t-60 -15l-13 15l146 278h137l-86 -158q16 4 49 5q80 0 127 -43t47 -123q0 -66 -27.5 -109t-71.5 -68.5t-100.5 -36t-111.5 -10.5 q-59 0 -109.5 11.5t-68.5 25.5z" />
<glyph unicode="&#xb9;" d="M293 625q-4 49 4 99t31 93h164l63 363l-154 -58q-29 41 -45 82t-22 94l409 160h84l-110 -641h174q4 -47 -5 -101t-30 -91h-563z" />
<glyph unicode="&#xba;" horiz-adv-x="1024" d="M274 924q0 94 29 191t88.5 176t149.5 128t215 49q174 0 255 -88t81 -241q0 -98 -29 -195.5t-88.5 -174.5t-149.5 -125t-215 -48q-174 0 -255 87t-81 241zM524 915q1 -135 107 -135q59 0 100 38t65.5 93.5t36 118t11.5 111.5q0 139 -113 139q-59 0 -98 -39t-63.5 -95 t-35 -119.5t-10.5 -111.5z" />
<glyph unicode="&#xbb;" horiz-adv-x="1345" d="M72 90l442 479l-262 430q80 12 164 13q70 0 135 -13l270 -471l-424 -438q-33 -6 -72.5 -9t-74.5 -3q-41 0 -89 3t-89 9zM617 90l442 479l-262 430q80 12 164 13q70 0 135 -13l270 -471l-424 -438q-33 -6 -72.5 -9t-74.5 -3q-41 0 -89 3t-89 9z" />
<glyph unicode="&#xbc;" horiz-adv-x="2150" d="M293 625q-4 49 4 99t31 93h164l63 363l-154 -58q-29 41 -45 82t-22 94l409 160h84l-110 -641h174q4 -47 -5 -101t-30 -91h-563zM618 4l990 1448q70 12 143 12q63 0 141 -12l-991 -1448q-72 -12 -137 -12q-70 0 -146 12zM1330 188l432 668q51 -6 102 -27.5t86 -50.5 l-313 -463h155l29 160q23 4 42 5t52 1q59 0 103 -6l-27 -160h84q2 -41 -5 -82t-22 -82h-84l-24 -149q-27 -4 -48.5 -6.5t-52.5 -2.5q-59 0 -98 9l25 149h-422z" />
<glyph unicode="&#xbd;" horiz-adv-x="2150" d="M293 625q-4 49 4 99t31 93h164l63 363l-154 -58q-29 41 -45 82t-22 94l409 160h84l-110 -641h174q4 -47 -5 -101t-30 -91h-563zM583 4l990 1448q70 12 143 12q63 0 141 -12l-991 -1448q-72 -12 -137 -12q-70 0 -146 12zM1397 39l313 301q57 55 105.5 109t48.5 112 q0 92 -97 92q-47 0 -92 -13.5t-92 -35.5q-16 35 -31.5 79t-19.5 95q59 29 139 50.5t158 21.5q137 0 211 -67t74 -171q0 -59 -16.5 -105.5t-45.5 -88.5t-67.5 -79.5t-83.5 -80.5l-66 -62h246q0 -47 -8.5 -97t-26.5 -97h-641z" />
<glyph unicode="&#xbe;" horiz-adv-x="2150" d="M242 653q8 47 30.5 91t51.5 77q53 -18 94 -29.5t94 -11.5q31 0 61.5 7.5t55 22.5t39 37.5t14.5 53.5q0 47 -34 67.5t-79 20.5q-12 0 -33.5 -2t-56.5 -12l-35 45l226 244h-279q0 47 7.5 92t23.5 92h541l14 -41l-238 -285q86 -14 130 -68.5t44 -133.5q0 -74 -31.5 -133.5 t-87 -100.5t-128 -62.5t-154.5 -21.5q-86 0 -151.5 14.5t-118.5 36.5zM555 4l990 1448q70 12 143 12q63 0 141 -12l-991 -1448q-72 -12 -137 -12q-70 0 -146 12zM1285 188l432 668q51 -6 102 -27.5t86 -50.5l-313 -463h155l29 160q23 4 42 5t52 1q59 0 103 -6l-27 -160h84 q2 -41 -5 -82t-22 -82h-84l-24 -149q-27 -4 -48.5 -6.5t-52.5 -2.5q-59 0 -98 9l25 149h-422z" />
<glyph unicode="&#xbf;" horiz-adv-x="907" d="M78 -94q0 84 29.5 161.5t83 143t125 116t155.5 81.5l33 186q70 12 137 12q33 0 66.5 -2t64.5 -10l-61 -352q-47 -8 -104.5 -28.5t-106.5 -56.5t-83 -87.5t-34 -120.5q0 -70 52 -107t138 -37q61 0 112.5 10.5t127.5 37.5q27 -53 42 -110.5t19 -121.5q-98 -39 -190 -50 t-164 -11q-211 0 -326.5 88t-115.5 258zM520 758q0 80 13.5 151.5t37.5 147.5q41 8 78 11t74 3q35 0 73 -3t74 -11q0 -80 -13 -151.5t-38 -147.5q-41 -8 -77.5 -11.5t-73.5 -3.5q-35 0 -73 3.5t-75 11.5z" />
<glyph unicode="&#xc0;" horiz-adv-x="1296" d="M51 0l688 1473q41 6 87 9t87 3q84 0 168 -12l181 -1473q-78 -12 -150 -12t-154 12l-26 297h-449l-131 -297q-74 -12 -153 -12q-78 0 -148 12zM566 1829q10 2 31.5 3t49 3t57 3t56.5 1q47 0 93 -3t71 -7l180 -238q-16 -4 -56 -8t-81 -4t-76 2t-55 6zM594 543h315l-53 590z " />
<glyph unicode="&#xc1;" horiz-adv-x="1296" d="M51 0l688 1473q41 6 87 9t87 3q84 0 168 -12l181 -1473q-78 -12 -150 -12t-154 12l-26 297h-449l-131 -297q-74 -12 -153 -12q-78 0 -148 12zM594 543h315l-53 590zM721 1591l227 219q25 4 71 7.5t93 3.5q53 0 105.5 -3t75.5 -8l-291 -221q-20 -4 -59.5 -6t-80.5 -2 t-83 3t-58 7z" />
<glyph unicode="&#xc2;" horiz-adv-x="1296" d="M51 0l688 1473q41 6 87 9t87 3q84 0 168 -12l181 -1473q-78 -12 -150 -12t-154 12l-26 297h-449l-131 -297q-74 -12 -153 -12q-78 0 -148 12zM584 1599l245 224q35 4 82 7t90 3q27 0 69 -2t81 -10l155 -222q-49 -12 -127 -12q-35 0 -74.5 3t-72.5 12l-61 100l-105 -100 q-29 -8 -68.5 -11.5t-76.5 -3.5q-82 0 -137 12zM594 543h315l-53 590z" />
<glyph unicode="&#xc3;" horiz-adv-x="1296" d="M51 0l688 1473q41 6 87 9t87 3q84 0 168 -12l181 -1473q-78 -12 -150 -12t-154 12l-26 297h-449l-131 -297q-74 -12 -153 -12q-78 0 -148 12zM581 1741q41 45 106.5 79.5t141.5 34.5q39 0 73 -11t66.5 -24.5t67.5 -24.5t74 -11q35 0 66.5 9t78.5 48q25 -29 46.5 -70.5 t25.5 -80.5q-43 -45 -108.5 -78t-141.5 -33q-39 0 -74 11.5t-68.5 24.5t-67.5 24.5t-71 11.5q-39 0 -67.5 -11.5t-75.5 -46.5q-23 25 -45.5 67t-26.5 81zM594 543h315l-53 590z" />
<glyph unicode="&#xc4;" horiz-adv-x="1296" d="M51 0l688 1473q41 6 87 9t87 3q84 0 168 -12l181 -1473q-78 -12 -150 -12t-154 12l-26 297h-449l-131 -297q-74 -12 -153 -12q-78 0 -148 12zM559 1591q2 63 11.5 123t31.5 119q33 6 69 9t64 3q29 0 65 -3t66 -9q-2 -63 -11 -122.5t-32 -119.5q-35 -6 -69.5 -8t-65.5 -2 q-27 0 -63.5 2t-65.5 8zM594 543h315l-53 590zM1012 1591q-2 63 8 123t35 119q33 6 68.5 9t64.5 3t64.5 -3t66.5 -9q-4 -61 -13.5 -120.5t-29.5 -121.5q-35 -6 -71 -8t-64 -2q-29 0 -64.5 2t-64.5 8z" />
<glyph unicode="&#xc5;" horiz-adv-x="1325" d="M57 0l688 1473q-29 29 -48 70.5t-19 88.5q0 61 21.5 112.5t58.5 90.5t89 60.5t114 21.5q111 0 172 -65.5t61 -161.5q0 -70 -30.5 -127.5t-76.5 -94.5l181 -1468q-78 -12 -150 -12t-153 12l-27 297h-449l-131 -297q-74 -12 -153 -12q-78 0 -148 12zM600 543h315l-51 606z M836 1649q0 -47 19.5 -79t66.5 -32q53 0 82.5 42t29.5 97q0 47 -18.5 79t-65.5 32q-55 0 -84.5 -40t-29.5 -99z" />
<glyph unicode="&#xc6;" horiz-adv-x="1869" d="M0 0l987 1473h1024q0 -8 1 -16.5t1 -16.5q0 -53 -12 -108.5t-35 -112.5h-508l-55 -320h403q0 -123 -45 -256h-403l-70 -389h522q0 -8 1 -15.5t1 -15.5q0 -55 -13 -109.5t-32 -113.5h-821l53 303h-467l-206 -303q-37 -6 -84 -9t-88 -3t-80 3t-74 9zM700 551h342l121 692 h-12z" />
<glyph unicode="&#xc7;" horiz-adv-x="1175" d="M213 541q0 199 59.5 372.5t167 304t259 205t335.5 74.5q96 0 171 -11t155 -48q-12 -63 -31.5 -118.5t-54.5 -121.5q-70 27 -122 35t-99 8q-137 0 -235.5 -59.5t-161 -154.5t-92 -216t-29.5 -244q0 -168 87 -249.5t248 -81.5q31 0 57.5 2t53.5 6t57.5 13t69.5 22 q23 -53 36 -119t17 -129q-41 -16 -85 -26.5t-87 -16.5t-83 -9.5t-68 -3.5l-45 -84q16 4 49 5q80 0 127 -43t47 -123q0 -66 -27.5 -109t-72 -68.5t-100.5 -36t-111 -10.5q-59 0 -109.5 11.5t-69.5 25.5q8 33 21.5 67t36.5 64q35 -10 65.5 -17t61.5 -7q14 0 35.5 2t40 8 t31.5 19.5t13 35.5q0 35 -27.5 47.5t-74.5 12.5q-29 0 -60.5 -4t-60.5 -15l-12 15l109 211q-248 29 -370 179t-122 380z" />
<glyph unicode="&#xc8;" horiz-adv-x="1085" d="M162 0l258 1473h807q0 -8 1 -16.5t1 -16.5q0 -53 -12.5 -108.5t-34.5 -112.5h-508l-56 -320h404q0 -123 -45 -256h-404l-69 -389h522q0 -8 1 -15.5t1 -15.5q0 -55 -13.5 -109.5t-31.5 -113.5h-821zM494 1829q10 2 31.5 3t49 3t57 3t56.5 1q47 0 93 -3t71 -7l180 -238 q-16 -4 -56 -8t-81 -4t-76 2t-55 6z" />
<glyph unicode="&#xc9;" horiz-adv-x="1085" d="M162 0l258 1473h807q0 -8 1 -16.5t1 -16.5q0 -53 -12.5 -108.5t-34.5 -112.5h-508l-56 -320h404q0 -123 -45 -256h-404l-69 -389h522q0 -8 1 -15.5t1 -15.5q0 -55 -13.5 -109.5t-31.5 -113.5h-821zM649 1591l227 219q25 4 71 7.5t93 3.5q53 0 105.5 -3t75.5 -8l-291 -221 q-20 -4 -59.5 -6t-80.5 -2t-83 3t-58 7z" />
<glyph unicode="&#xca;" horiz-adv-x="1085" d="M162 0l258 1473h807q0 -8 1 -16.5t1 -16.5q0 -53 -12.5 -108.5t-34.5 -112.5h-508l-56 -320h404q0 -123 -45 -256h-404l-69 -389h522q0 -8 1 -15.5t1 -15.5q0 -55 -13.5 -109.5t-31.5 -113.5h-821zM498 1599l245 224q35 4 82 7t90 3q27 0 69 -2t81 -10l155 -222 q-49 -12 -127 -12q-35 0 -74.5 3t-72.5 12l-61 100l-105 -100q-29 -8 -68.5 -11.5t-76.5 -3.5q-82 0 -137 12z" />
<glyph unicode="&#xcb;" horiz-adv-x="1085" d="M162 0l258 1473h807q0 -8 1 -16.5t1 -16.5q0 -53 -12.5 -108.5t-34.5 -112.5h-508l-56 -320h404q0 -123 -45 -256h-404l-69 -389h522q0 -8 1 -15.5t1 -15.5q0 -55 -13.5 -109.5t-31.5 -113.5h-821zM500 1591q2 63 11.5 123t31.5 119q33 6 69 9t64 3q29 0 65 -3t66 -9 q-2 -63 -11 -122.5t-32 -119.5q-35 -6 -69.5 -8t-65.5 -2q-27 0 -63.5 2t-65.5 8zM953 1591q-2 63 8 123t35 119q33 6 68.5 9t64.5 3t64.5 -3t66.5 -9q-4 -61 -13.5 -120.5t-29.5 -121.5q-35 -6 -71 -8t-64 -2q-29 0 -64.5 2t-64.5 8z" />
<glyph unicode="&#xcc;" horiz-adv-x="620" d="M162 0l258 1470q78 14 151 15q35 0 73 -3t77 -12l-258 -1470q-84 -12 -154 -12q-74 0 -147 12zM271 1829q10 2 31.5 3t49 3t57 3t56.5 1q47 0 93 -3t71 -7l180 -238q-16 -4 -56 -8t-81 -4t-76 2t-55 6z" />
<glyph unicode="&#xcd;" horiz-adv-x="620" d="M162 0l258 1470q78 14 151 15q35 0 73 -3t77 -12l-258 -1470q-84 -12 -154 -12q-74 0 -147 12zM397 1591l227 219q25 4 71 7.5t93 3.5q53 0 105.5 -3t75.5 -8l-291 -221q-20 -4 -59.5 -6t-80.5 -2t-83 3t-58 7z" />
<glyph unicode="&#xce;" horiz-adv-x="620" d="M162 0l258 1470q78 14 151 15q35 0 73 -3t77 -12l-258 -1470q-84 -12 -154 -12q-74 0 -147 12zM250 1599l245 224q35 4 82 7t90 3q27 0 69 -2t81 -10l155 -222q-49 -12 -127 -12q-35 0 -74.5 3t-72.5 12l-61 100l-105 -100q-29 -8 -68.5 -11.5t-76.5 -3.5q-82 0 -137 12z " />
<glyph unicode="&#xcf;" horiz-adv-x="620" d="M162 0l258 1470q78 14 151 15q35 0 73 -3t77 -12l-258 -1470q-84 -12 -154 -12q-74 0 -147 12zM252 1591q2 63 11.5 123t31.5 119q33 6 69 9t64 3q29 0 65 -3t66 -9q-2 -63 -11 -122.5t-32 -119.5q-35 -6 -69.5 -8t-65.5 -2q-27 0 -63.5 2t-65.5 8zM705 1591q-2 63 8 123 t35 119q33 6 68.5 9t64.5 3t64.5 -3t66.5 -9q-4 -61 -13.5 -120.5t-29.5 -121.5q-35 -6 -71 -8t-64 -2q-29 0 -64.5 2t-64.5 8z" />
<glyph unicode="&#xd0;" horiz-adv-x="1429" d="M156 653q-4 53 3 104.5t29 102.5h148l108 610q82 10 168 18.5t183 8.5q158 0 283.5 -41t213.5 -117.5t135.5 -188.5t47.5 -253q0 -221 -70 -393t-195 -289t-298 -178.5t-377 -61.5q-117 0 -193 7.5t-156 17.5l115 653h-145zM528 238q37 -6 103 -7q117 0 212 47.5 t164.5 131.5t107.5 200.5t38 257.5q0 94 -25.5 165t-69.5 116t-105.5 67.5t-131.5 22.5q-43 0 -65.5 -1t-50.5 -5l-66 -373h274q8 -104 -34 -207h-277z" />
<glyph unicode="&#xd1;" horiz-adv-x="1363" d="M162 0l258 1473q35 8 66.5 10t60.5 2q61 0 123 -12l362 -936l162 936q74 12 145 12q33 0 64 -2t61 -10l-260 -1473q-72 -12 -125 -12q-57 0 -121 12l-364 934l-162 -934q-35 -6 -70.5 -9t-70.5 -3q-66 0 -129 12zM618 1741q41 45 106.5 79.5t141.5 34.5q39 0 73 -11 t66.5 -24.5t67.5 -24.5t74 -11q35 0 66.5 9t78.5 48q25 -29 46.5 -70.5t25.5 -80.5q-43 -45 -108.5 -78t-141.5 -33q-39 0 -74 11.5t-68.5 24.5t-67.5 24.5t-71 11.5q-39 0 -67.5 -11.5t-75.5 -46.5q-23 25 -45.5 67t-26.5 81z" />
<glyph unicode="&#xd2;" horiz-adv-x="1425" d="M205 524q0 111 19.5 226.5t60.5 224t102.5 204t146 166t192.5 111.5t239 41q129 0 225 -39t158.5 -110.5t93.5 -175t31 -234.5q0 -111 -19.5 -226.5t-60.5 -222t-103.5 -200.5t-146.5 -164t-191.5 -110t-238.5 -40q-260 0 -384 145.5t-124 403.5zM516 510 q0 -285 223 -285q80 0 142.5 36t108.5 94.5t79 135t52.5 157.5t28.5 161t9 145q0 287 -221 287q-80 0 -142.5 -36t-109.5 -94t-80 -135t-52 -158t-28.5 -160.5t-9.5 -147.5zM705 1829q10 2 31.5 3t49 3t57 3t56.5 1q47 0 93 -3t71 -7l180 -238q-16 -4 -56 -8t-81 -4t-76 2 t-55 6z" />
<glyph unicode="&#xd3;" horiz-adv-x="1425" d="M205 524q0 111 19.5 226.5t60.5 224t102.5 204t146 166t192.5 111.5t239 41q129 0 225 -39t158.5 -110.5t93.5 -175t31 -234.5q0 -111 -19.5 -226.5t-60.5 -222t-103.5 -200.5t-146.5 -164t-191.5 -110t-238.5 -40q-260 0 -384 145.5t-124 403.5zM516 510 q0 -285 223 -285q80 0 142.5 36t108.5 94.5t79 135t52.5 157.5t28.5 161t9 145q0 287 -221 287q-80 0 -142.5 -36t-109.5 -94t-80 -135t-52 -158t-28.5 -160.5t-9.5 -147.5zM782 1591l227 219q25 4 71 7.5t93 3.5q53 0 105.5 -3t75.5 -8l-291 -221q-20 -4 -59.5 -6t-80.5 -2 t-83 3t-58 7z" />
<glyph unicode="&#xd4;" horiz-adv-x="1425" d="M205 524q0 111 19.5 226.5t60.5 224t102.5 204t146 166t192.5 111.5t239 41q129 0 225 -39t158.5 -110.5t93.5 -175t31 -234.5q0 -111 -19.5 -226.5t-60.5 -222t-103.5 -200.5t-146.5 -164t-191.5 -110t-238.5 -40q-260 0 -384 145.5t-124 403.5zM516 510 q0 -285 223 -285q80 0 142.5 36t108.5 94.5t79 135t52.5 157.5t28.5 161t9 145q0 287 -221 287q-80 0 -142.5 -36t-109.5 -94t-80 -135t-52 -158t-28.5 -160.5t-9.5 -147.5zM650 1599l245 224q35 4 82 7t90 3q27 0 69 -2t81 -10l155 -222q-49 -12 -127 -12q-35 0 -74.5 3 t-72.5 12l-61 100l-105 -100q-29 -8 -68.5 -11.5t-76.5 -3.5q-82 0 -137 12z" />
<glyph unicode="&#xd5;" horiz-adv-x="1425" d="M205 524q0 111 19.5 226.5t60.5 224t102.5 204t146 166t192.5 111.5t239 41q129 0 225 -39t158.5 -110.5t93.5 -175t31 -234.5q0 -111 -19.5 -226.5t-60.5 -222t-103.5 -200.5t-146.5 -164t-191.5 -110t-238.5 -40q-260 0 -384 145.5t-124 403.5zM516 510 q0 -285 223 -285q80 0 142.5 36t108.5 94.5t79 135t52.5 157.5t28.5 161t9 145q0 287 -221 287q-80 0 -142.5 -36t-109.5 -94t-80 -135t-52 -158t-28.5 -160.5t-9.5 -147.5zM659 1741q41 45 106.5 79.5t141.5 34.5q39 0 73 -11t66.5 -24.5t67.5 -24.5t74 -11q35 0 66.5 9 t78.5 48q25 -29 46.5 -70.5t25.5 -80.5q-43 -45 -108.5 -78t-141.5 -33q-39 0 -74 11.5t-68.5 24.5t-67.5 24.5t-71 11.5q-39 0 -67.5 -11.5t-75.5 -46.5q-23 25 -45.5 67t-26.5 81z" />
<glyph unicode="&#xd6;" horiz-adv-x="1425" d="M205 524q0 111 19.5 226.5t60.5 224t102.5 204t146 166t192.5 111.5t239 41q129 0 225 -39t158.5 -110.5t93.5 -175t31 -234.5q0 -111 -19.5 -226.5t-60.5 -222t-103.5 -200.5t-146.5 -164t-191.5 -110t-238.5 -40q-260 0 -384 145.5t-124 403.5zM516 510 q0 -285 223 -285q80 0 142.5 36t108.5 94.5t79 135t52.5 157.5t28.5 161t9 145q0 287 -221 287q-80 0 -142.5 -36t-109.5 -94t-80 -135t-52 -158t-28.5 -160.5t-9.5 -147.5zM649 1591q2 63 11.5 123t31.5 119q33 6 69 9t64 3q29 0 65 -3t66 -9q-2 -63 -11 -122.5t-32 -119.5 q-35 -6 -69.5 -8t-65.5 -2q-27 0 -63.5 2t-65.5 8zM1102 1591q-2 63 8 123t35 119q33 6 68.5 9t64.5 3t64.5 -3t66.5 -9q-4 -61 -13.5 -120.5t-29.5 -121.5q-35 -6 -71 -8t-64 -2q-29 0 -64.5 2t-64.5 8z" />
<glyph unicode="&#xd7;" horiz-adv-x="1228" d="M289 485l270 228l-182 223q23 27 45 50.5t49 45.5q57 47 113 80l182 -223l264 225q47 -35 82 -78q20 -23 42 -55.5t36 -58.5l-266 -228l178 -213q-23 -27 -45.5 -49t-48.5 -45q-29 -23 -55.5 -43t-55.5 -37l-178 213l-270 -229q-23 16 -50.5 45t-48.5 51 q-18 23 -32.5 47.5t-28.5 50.5z" />
<glyph unicode="&#xd8;" horiz-adv-x="1425" d="M145 -35l152 195q-92 137 -92 364q0 111 19.5 226.5t60.5 224t102.5 204t146 166t192.5 111.5t239 41q190 0 309 -84l65 84q16 4 45 7t50 3q43 0 88 -10l-146 -186q96 -143 97 -373q0 -111 -19.5 -226.5t-60.5 -222t-103.5 -200.5t-146.5 -164t-191.5 -110t-238.5 -40 q-98 0 -176 20.5t-138 61.5l-71 -92q-31 -8 -78 -8q-23 0 -54.5 2t-50.5 6zM516 476.5q0 -15.5 2 -32.5l576 738q-55 59 -156 59q-80 0 -142.5 -36t-109.5 -94t-80 -135t-52 -158t-28.5 -160.5t-9.5 -147.5v-33.5zM580 287q55 -61 159 -62q80 0 142.5 36t108.5 94.5t79 135 t52.5 157.5t28.5 161t9 145q0 20 -1 38t-3 34z" />
<glyph unicode="&#xd9;" horiz-adv-x="1368" d="M242 412q0 102 22 233l146 828q41 8 78.5 10t74.5 2q35 0 71 -2t75 -10l-134 -764q-14 -84 -22 -149.5t-8 -119.5q0 -106 39 -156.5t137 -50.5q76 0 127 28t87 86.5t59.5 147.5t45.5 214l134 764q45 8 80.5 10t70.5 2q37 0 74 -2t76 -10l-146 -828q-29 -164 -72 -289 t-116.5 -209t-185 -128t-273.5 -44q-223 0 -331.5 102.5t-108.5 334.5zM633 1829q10 2 31.5 3t49 3t57 3t56.5 1q47 0 93 -3t71 -7l180 -238q-16 -4 -56 -8t-81 -4t-76 2t-55 6z" />
<glyph unicode="&#xda;" horiz-adv-x="1368" d="M242 412q0 102 22 233l146 828q41 8 78.5 10t74.5 2q35 0 71 -2t75 -10l-134 -764q-14 -84 -22 -149.5t-8 -119.5q0 -106 39 -156.5t137 -50.5q76 0 127 28t87 86.5t59.5 147.5t45.5 214l134 764q45 8 80.5 10t70.5 2q37 0 74 -2t76 -10l-146 -828q-29 -164 -72 -289 t-116.5 -209t-185 -128t-273.5 -44q-223 0 -331.5 102.5t-108.5 334.5zM788 1591l227 219q25 4 71 7.5t93 3.5q53 0 105.5 -3t75.5 -8l-291 -221q-20 -4 -59.5 -6t-80.5 -2t-83 3t-58 7z" />
<glyph unicode="&#xdb;" horiz-adv-x="1368" d="M242 412q0 102 22 233l146 828q41 8 78.5 10t74.5 2q35 0 71 -2t75 -10l-134 -764q-14 -84 -22 -149.5t-8 -119.5q0 -106 39 -156.5t137 -50.5q76 0 127 28t87 86.5t59.5 147.5t45.5 214l134 764q45 8 80.5 10t70.5 2q37 0 74 -2t76 -10l-146 -828q-29 -164 -72 -289 t-116.5 -209t-185 -128t-273.5 -44q-223 0 -331.5 102.5t-108.5 334.5zM625 1599l245 224q35 4 82 7t90 3q27 0 69 -2t81 -10l155 -222q-49 -12 -127 -12q-35 0 -74.5 3t-72.5 12l-61 100l-105 -100q-29 -8 -68.5 -11.5t-76.5 -3.5q-82 0 -137 12z" />
<glyph unicode="&#xdc;" horiz-adv-x="1368" d="M242 412q0 102 22 233l146 828q41 8 78.5 10t74.5 2q35 0 71 -2t75 -10l-134 -764q-14 -84 -22 -149.5t-8 -119.5q0 -106 39 -156.5t137 -50.5q76 0 127 28t87 86.5t59.5 147.5t45.5 214l134 764q45 8 80.5 10t70.5 2q37 0 74 -2t76 -10l-146 -828q-29 -164 -72 -289 t-116.5 -209t-185 -128t-273.5 -44q-223 0 -331.5 102.5t-108.5 334.5zM629 1591q2 63 11.5 123t31.5 119q33 6 69 9t64 3q29 0 65 -3t66 -9q-2 -63 -11 -122.5t-32 -119.5q-35 -6 -69.5 -8t-65.5 -2q-27 0 -63.5 2t-65.5 8zM1082 1591q-2 63 8 123t35 119q33 6 68.5 9 t64.5 3t64.5 -3t66.5 -9q-4 -61 -13.5 -120.5t-29.5 -121.5q-35 -6 -71 -8t-64 -2q-29 0 -64.5 2t-64.5 8z" />
<glyph unicode="&#xdd;" horiz-adv-x="1153" d="M242 1473q88 12 166 12q37 0 73.5 -2t75.5 -10l158 -654l379 654q41 6 82 8t81 2q35 0 75 -2t79 -8l-600 -947l-92 -526q-43 -8 -81 -10t-75 -2q-35 0 -70.5 2t-74.5 10l92 526zM684 1591l227 219q25 4 71 7.5t93 3.5q53 0 105.5 -3t75.5 -8l-291 -221q-20 -4 -59.5 -6 t-80.5 -2t-83 3t-58 7z" />
<glyph unicode="&#xde;" horiz-adv-x="1218" d="M176 0l260 1477q39 4 73 6t69 2q41 0 81.5 -2t75.5 -6l-43 -228q88 0 187.5 -16t182.5 -64.5t138 -134.5t55 -225q0 -125 -44 -232.5t-128 -186.5t-204.5 -124t-274.5 -45q-33 0 -53.5 1t-38.5 3l-37 -225q-41 -6 -78 -8t-71 -2q-31 0 -69 2t-81 8zM557 475q27 -6 92 -6 q49 0 100.5 16.5t94.5 54.5t70.5 99t27.5 154q0 63 -19.5 103t-51 63.5t-70.5 31.5t-76 8h-30.5t-45.5 -4z" />
<glyph unicode="&#xdf;" horiz-adv-x="1236" d="M-238 -471q10 123 68 221q23 -8 50.5 -13t43.5 -5q39 0 74 11t64.5 45t53 93.5t40.5 155.5l182 1022q23 129 67 218t107 143.5t148 78t192 23.5q106 0 180 -28t120 -72t65.5 -100t19.5 -114q0 -94 -39 -159.5t-87 -117.5t-87 -97.5t-39 -96.5q0 -47 36 -83t79 -77.5 t78.5 -99t35.5 -145.5q0 -86 -31.5 -151.5t-88 -111.5t-134 -70t-169.5 -24q-145 0 -248 45q16 55 39.5 111.5t56.5 110.5q39 -25 80 -33t82 -8q51 0 94 30.5t43 90.5q0 51 -37 84.5t-81 69.5t-81 82t-37 122q0 78 41 139.5t91.5 116.5t91.5 110.5t41 120.5q0 55 -42 88 t-108 33q-76 0 -121 -44t-67 -173l-193 -1061q-27 -150 -73 -248t-107 -156.5t-139 -82t-168 -23.5q-94 0 -187 29z" />
<glyph unicode="&#xe0;" horiz-adv-x="1165" d="M147 289q0 154 46.5 297t137.5 253.5t226 177t315 66.5q90 0 168 -12t154 -35l-100 -577q-23 -129 -33 -228.5t-10 -154.5v-38t2 -34q-68 -12 -133 -12q-57 0 -127 12q-4 16 -8.5 39t-4.5 68v38.5t4 47.5q-59 -94 -151 -158t-215 -64q-135 0 -203 86t-68 228zM446 360 q0 -152 101 -151q98 0 182 120t123 337l31 174q-18 4 -36 5t-34 1q-98 0 -166.5 -49t-114 -123t-66 -159t-20.5 -155zM525 1473q41 6 78.5 9t91.5 3q100 0 184 -12l182 -252q-68 -12 -133 -13q-41 0 -78 4.5t-63 8.5z" />
<glyph unicode="&#xe1;" horiz-adv-x="1165" d="M147 289q0 154 46.5 297t137.5 253.5t226 177t315 66.5q90 0 168 -12t154 -35l-100 -577q-23 -129 -33 -228.5t-10 -154.5v-38t2 -34q-68 -12 -133 -12q-57 0 -127 12q-4 16 -8.5 39t-4.5 68v38.5t4 47.5q-59 -94 -151 -158t-215 -64q-135 0 -203 86t-68 228zM446 360 q0 -152 101 -151q98 0 182 120t123 337l31 174q-18 4 -36 5t-34 1q-98 0 -166.5 -49t-114 -123t-66 -159t-20.5 -155zM672 1221l209 252q82 12 184 12q53 0 91 -3t79 -9l-289 -252q-27 -4 -63.5 -8.5t-77.5 -4.5q-66 0 -133 13z" />
<glyph unicode="&#xe2;" horiz-adv-x="1165" d="M147 289q0 154 46.5 297t137.5 253.5t226 177t315 66.5q90 0 168 -12t154 -35l-100 -577q-23 -129 -33 -228.5t-10 -154.5v-38t2 -34q-68 -12 -133 -12q-57 0 -127 12q-4 16 -8.5 39t-4.5 68v38.5t4 47.5q-59 -94 -151 -158t-215 -64q-135 0 -203 86t-68 228zM446 360 q0 -152 101 -151q98 0 182 120t123 337l31 174q-18 4 -36 5t-34 1q-98 0 -166.5 -49t-114 -123t-66 -159t-20.5 -155zM473 1219l246 254q35 4 82 7t90 3q27 0 68.5 -2t80.5 -11l156 -251q-49 -12 -127 -13q-35 0 -74 3t-72 12l-61 131l-104 -131q-29 -8 -70 -11.5t-78 -3.5 q-82 0 -137 13z" />
<glyph unicode="&#xe3;" horiz-adv-x="1165" d="M147 289q0 154 46.5 297t137.5 253.5t226 177t315 66.5q90 0 168 -12t154 -35l-100 -577q-23 -129 -33 -228.5t-10 -154.5v-38t2 -34q-68 -12 -133 -12q-57 0 -127 12q-4 16 -8.5 39t-4.5 68v38.5t4 47.5q-59 -94 -151 -158t-215 -64q-135 0 -203 86t-68 228zM446 360 q0 -152 101 -151q98 0 182 120t123 337l31 174q-18 4 -36 5t-34 1q-98 0 -166.5 -49t-114 -123t-66 -159t-20.5 -155zM489 1370q41 45 106.5 80t141.5 35q39 0 73 -11.5t66.5 -24.5t67.5 -24.5t74 -11.5q35 0 66.5 9.5t78.5 47.5q25 -29 46.5 -70.5t25.5 -80.5 q-43 -45 -108.5 -78t-141.5 -33q-39 0 -74 11.5t-68.5 24.5t-67.5 24.5t-71 11.5q-39 0 -67.5 -11.5t-75.5 -45.5q-23 25 -45.5 66.5t-26.5 80.5z" />
<glyph unicode="&#xe4;" horiz-adv-x="1165" d="M147 289q0 154 46.5 297t137.5 253.5t226 177t315 66.5q90 0 168 -12t154 -35l-100 -577q-23 -129 -33 -228.5t-10 -154.5v-38t2 -34q-68 -12 -133 -12q-57 0 -127 12q-4 16 -8.5 39t-4.5 68v38.5t4 47.5q-59 -94 -151 -158t-215 -64q-135 0 -203 86t-68 228zM446 360 q0 -152 101 -151q98 0 182 120t123 337l31 174q-18 4 -36 5t-34 1q-98 0 -166.5 -49t-114 -123t-66 -159t-20.5 -155zM477 1214q2 63 11 123t32 119q33 6 68.5 9t64.5 3t64.5 -3t66.5 -9q-2 -63 -11.5 -122.5t-31.5 -119.5q-35 -6 -69.5 -8t-65.5 -2q-27 0 -63.5 2t-65.5 8z M929 1214q-2 63 8.5 123t34.5 119q33 6 69 9t65 3t64.5 -3t66.5 -9q-4 -61 -13.5 -120.5t-29.5 -121.5q-35 -6 -71 -8t-65 -2t-64.5 2t-64.5 8z" />
<glyph unicode="&#xe5;" horiz-adv-x="1165" d="M147 289q0 154 46.5 297t137.5 253.5t226 177t315 66.5q90 0 168 -12t154 -35l-100 -577q-23 -129 -33 -228.5t-10 -154.5v-38t2 -34q-68 -12 -133 -12q-57 0 -127 12q-4 16 -8.5 39t-4.5 68v38.5t4 47.5q-59 -94 -151 -158t-215 -64q-135 0 -203 86t-68 228zM446 360 q0 -152 101 -151q98 0 182 120t123 337l31 174q-18 4 -36 5t-34 1q-98 0 -166.5 -49t-114 -123t-66 -159t-20.5 -155zM684 1399q0 49 16 95t48 82t79 58.5t109 22.5q90 0 150.5 -53.5t60.5 -167.5q0 -53 -18.5 -97.5t-51.5 -78t-80 -52t-102 -18.5q-94 0 -152.5 53.5 t-58.5 155.5zM825 1409q0 -96 82 -96q43 0 71.5 32.5t28.5 92.5q0 96 -84 96q-49 0 -73.5 -39t-24.5 -86z" />
<glyph unicode="&#xe6;" horiz-adv-x="1703" d="M147 289q0 154 46.5 297t137.5 253.5t223 177t304 66.5q70 0 130.5 -10t135.5 -33l-18 -98q53 53 142 97t206 44q63 0 117.5 -16t94.5 -50t62.5 -83t22.5 -115q0 -92 -43 -159.5t-114.5 -114.5t-163 -77t-189.5 -44l-137 -23q12 -98 65.5 -146t155.5 -48q82 0 144.5 17.5 t132.5 45.5q33 -41 44 -99t11 -124q-35 -16 -81 -29.5t-95 -22.5t-98.5 -14.5t-88.5 -5.5q-184 0 -287.5 65.5t-146.5 182.5q-100 -139 -208.5 -193.5t-221.5 -54.5q-145 0 -214 86t-69 228zM446 360q0 -152 101 -151q102 0 184 120t121 337l31 174q-18 4 -36 5t-34 1 q-98 0 -166.5 -49t-114 -123t-66 -159t-20.5 -155zM1114 594l107 16q78 12 127 32t77.5 43.5t39 48t10.5 48.5q0 39 -26 63.5t-69 24.5q-53 0 -97 -23.5t-76.5 -62.5t-56.5 -89t-36 -101z" />
<glyph unicode="&#xe7;" horiz-adv-x="942" d="M158 401q0 121 40 243t117.5 219.5t191.5 158.5t263 61q70 0 135.5 -10t124.5 -33q-2 -53 -18.5 -113.5t-50.5 -115.5q-45 18 -89.5 28.5t-97.5 10.5q-80 0 -139.5 -36t-99 -94t-59 -134t-19.5 -158q0 -113 57 -166t145 -53q45 0 89.5 8t109.5 35q23 -37 37 -88t14 -135 q-61 -29 -129.5 -40.5t-150.5 -13.5l-45 -84q16 4 49 5q80 0 127 -43t47 -123q0 -66 -27.5 -109t-71.5 -68.5t-100.5 -36t-111.5 -10.5q-59 0 -109.5 11.5t-69.5 25.5q8 33 21.5 67t36.5 64q35 -10 65.5 -17t61.5 -7q14 0 35.5 2t40 8t32 19.5t13.5 35.5q0 35 -28 47.5 t-75 12.5q-29 0 -60.5 -4t-60.5 -15l-12 15l111 213q-176 25 -258 134t-82 283z" />
<glyph unicode="&#xe8;" horiz-adv-x="1042" d="M158 410q0 125 43 245.5t121.5 216t192.5 153.5t255 58q68 0 126 -16t101 -50t68 -83t25 -115q0 -92 -43 -159.5t-115 -114.5t-163 -77t-189 -44l-138 -23q12 -98 65.5 -146t156.5 -48q82 0 144 17.5t132 45.5q33 -41 44 -99t11 -124q-35 -16 -81 -29.5t-95 -22.5 t-98 -14.5t-88 -5.5q-125 0 -214 31t-147.5 87.5t-86 137t-27.5 179.5zM445 1473q41 6 78.5 9t91.5 3q100 0 184 -12l182 -252q-68 -12 -133 -13q-41 0 -78 4.5t-63 8.5zM453 594l106 16q78 12 127 32t78 43.5t39 48t10 48.5q0 39 -25.5 63.5t-68.5 24.5q-53 0 -97 -23.5 t-77 -62.5t-56.5 -89t-35.5 -101z" />
<glyph unicode="&#xe9;" horiz-adv-x="1042" d="M158 410q0 125 43 245.5t121.5 216t192.5 153.5t255 58q68 0 126 -16t101 -50t68 -83t25 -115q0 -92 -43 -159.5t-115 -114.5t-163 -77t-189 -44l-138 -23q12 -98 65.5 -146t156.5 -48q82 0 144 17.5t132 45.5q33 -41 44 -99t11 -124q-35 -16 -81 -29.5t-95 -22.5 t-98 -14.5t-88 -5.5q-125 0 -214 31t-147.5 87.5t-86 137t-27.5 179.5zM453 594l106 16q78 12 127 32t78 43.5t39 48t10 48.5q0 39 -25.5 63.5t-68.5 24.5q-53 0 -97 -23.5t-77 -62.5t-56.5 -89t-35.5 -101zM559 1221l209 252q82 12 184 12q53 0 91 -3t79 -9l-289 -252 q-27 -4 -63.5 -8.5t-77.5 -4.5q-66 0 -133 13z" />
<glyph unicode="&#xea;" horiz-adv-x="1042" d="M158 410q0 125 43 245.5t121.5 216t192.5 153.5t255 58q68 0 126 -16t101 -50t68 -83t25 -115q0 -92 -43 -159.5t-115 -114.5t-163 -77t-189 -44l-138 -23q12 -98 65.5 -146t156.5 -48q82 0 144 17.5t132 45.5q33 -41 44 -99t11 -124q-35 -16 -81 -29.5t-95 -22.5 t-98 -14.5t-88 -5.5q-125 0 -214 31t-147.5 87.5t-86 137t-27.5 179.5zM387 1219l246 254q35 4 82 7t90 3q27 0 68.5 -2t80.5 -11l156 -251q-49 -12 -127 -13q-35 0 -74 3t-72 12l-61 131l-104 -131q-29 -8 -70 -11.5t-78 -3.5q-82 0 -137 13zM453 594l106 16q78 12 127 32 t78 43.5t39 48t10 48.5q0 39 -25.5 63.5t-68.5 24.5q-53 0 -97 -23.5t-77 -62.5t-56.5 -89t-35.5 -101z" />
<glyph unicode="&#xeb;" horiz-adv-x="1042" d="M158 410q0 125 43 245.5t121.5 216t192.5 153.5t255 58q68 0 126 -16t101 -50t68 -83t25 -115q0 -92 -43 -159.5t-115 -114.5t-163 -77t-189 -44l-138 -23q12 -98 65.5 -146t156.5 -48q82 0 144 17.5t132 45.5q33 -41 44 -99t11 -124q-35 -16 -81 -29.5t-95 -22.5 t-98 -14.5t-88 -5.5q-125 0 -214 31t-147.5 87.5t-86 137t-27.5 179.5zM383 1214q2 63 11 123t32 119q33 6 68.5 9t64.5 3t64.5 -3t66.5 -9q-2 -63 -11.5 -122.5t-31.5 -119.5q-35 -6 -69.5 -8t-65.5 -2q-27 0 -63.5 2t-65.5 8zM453 594l106 16q78 12 127 32t78 43.5t39 48 t10 48.5q0 39 -25.5 63.5t-68.5 24.5q-53 0 -97 -23.5t-77 -62.5t-56.5 -89t-35.5 -101zM835 1214q-2 63 8.5 123t34.5 119q33 6 69 9t65 3t64.5 -3t66.5 -9q-4 -61 -13.5 -120.5t-29.5 -121.5q-35 -6 -71 -8t-65 -2t-64.5 2t-64.5 8z" />
<glyph unicode="&#xec;" horiz-adv-x="638" d="M195 1473q41 6 78.5 9t91.5 3q100 0 184 -12l182 -252q-68 -12 -133 -13q-41 0 -78 4.5t-63 8.5zM199 0l147 838h-129q0 6 -1 12t-1 14q0 53 10.5 99.5t30.5 95.5h414l-187 -1059q-78 -12 -147 -12q-63 0 -137 12z" />
<glyph unicode="&#xed;" horiz-adv-x="638" d="M199 0l147 838h-129q0 6 -1 12t-1 14q0 53 10.5 99.5t30.5 95.5h414l-187 -1059q-78 -12 -147 -12q-63 0 -137 12zM293 1221l209 252q82 12 184 12q53 0 91 -3t79 -9l-289 -252q-27 -4 -63.5 -8.5t-77.5 -4.5q-66 0 -133 13z" />
<glyph unicode="&#xee;" horiz-adv-x="638" d="M141 1219l246 254q35 4 82 7t90 3q27 0 68.5 -2t80.5 -11l156 -251q-49 -12 -127 -13q-35 0 -74 3t-72 12l-61 131l-104 -131q-29 -8 -70 -11.5t-78 -3.5q-82 0 -137 13zM199 0l147 838h-129q0 6 -1 12t-1 14q0 53 10.5 99.5t30.5 95.5h414l-187 -1059q-78 -12 -147 -12 q-63 0 -137 12z" />
<glyph unicode="&#xef;" horiz-adv-x="638" d="M142 1214q2 63 11 123t32 119q33 6 68.5 9t64.5 3t64.5 -3t66.5 -9q-2 -63 -11.5 -122.5t-31.5 -119.5q-35 -6 -69.5 -8t-65.5 -2q-27 0 -63.5 2t-65.5 8zM199 0l147 838h-129q0 6 -1 12t-1 14q0 53 10.5 99.5t30.5 95.5h414l-187 -1059q-78 -12 -147 -12q-63 0 -137 12z M594 1214q-2 63 8.5 123t34.5 119q33 6 69 9t65 3t64.5 -3t66.5 -9q-4 -61 -13.5 -120.5t-29.5 -121.5q-35 -6 -71 -8t-65 -2t-64.5 2t-64.5 8z" />
<glyph unicode="&#xf0;" horiz-adv-x="1171" d="M162 381q0 119 33.5 229.5t101.5 196.5t167 138t228 52q63 0 124 -22.5t104 -65.5q-23 76 -57 140.5t-75 105.5l-182 -108q-23 16 -46 47.5t-34 68.5l140 82q-35 16 -80 26.5t-86 12.5q0 59 10 117.5t43 107.5q111 0 206 -29.5t152 -76.5l179 104q25 -23 44 -49t29 -67 l-141 -88q39 -49 68.5 -113t49 -135.5t29 -147.5t9.5 -151q0 -137 -33 -276.5t-104.5 -251t-188.5 -182.5t-283 -71q-205 0 -306 110t-101 296zM453 385q0 -98 36.5 -147.5t116.5 -49.5q74 0 124 41t81 102.5t44 134.5t13 136q0 90 -36.5 137t-118.5 47q-74 0 -124 -40.5 t-81 -101t-43 -131.5t-12 -128z" />
<glyph unicode="&#xf1;" horiz-adv-x="1198" d="M150 0l110 604q23 129 34 228.5t11 154.5v38t-2 34q68 12 135 12q31 0 61.5 -3t65.5 -9q4 -16 8.5 -39t4.5 -68q0 -18 -1.5 -36.5t-5.5 -45.5q25 43 62 82t84 68t101 45t110 16q123 0 191.5 -62.5t68.5 -207.5q0 -31 -4 -65.5t-10 -73.5l-119 -672q-78 -12 -150 -12 t-141 12l115 649q8 41 8 78q0 61 -26.5 86t-76.5 25q-29 0 -64.5 -14.5t-72.5 -60.5t-71.5 -130t-59.5 -221l-76 -412q-80 -12 -149 -12q-72 0 -141 12zM440 1370q41 45 106.5 80t141.5 35q39 0 73 -11.5t66.5 -24.5t67.5 -24.5t74 -11.5q35 0 66.5 9.5t78.5 47.5 q25 -29 46.5 -70.5t25.5 -80.5q-43 -45 -108.5 -78t-141.5 -33q-39 0 -74 11.5t-68.5 24.5t-67.5 24.5t-71 11.5q-39 0 -67.5 -11.5t-75.5 -45.5q-23 25 -45.5 66.5t-26.5 80.5z" />
<glyph unicode="&#xf2;" horiz-adv-x="1142" d="M160 389q0 123 36.5 247t110.5 223t185.5 161.5t261.5 62.5q213 0 312 -112.5t99 -304.5q0 -127 -35.5 -250t-109.5 -221.5t-186.5 -159t-264.5 -60.5q-211 0 -310 111t-99 303zM451 379q0 -182 145 -182q78 0 131 49t87 121.5t48.5 153.5t14.5 147q0 188 -154 188 q-78 0 -129 -51t-84 -125t-46 -156t-13 -145zM494 1473q41 6 78.5 9t91.5 3q100 0 184 -12l182 -252q-68 -12 -133 -13q-41 0 -78 4.5t-63 8.5z" />
<glyph unicode="&#xf3;" horiz-adv-x="1142" d="M160 389q0 123 36.5 247t110.5 223t185.5 161.5t261.5 62.5q213 0 312 -112.5t99 -304.5q0 -127 -35.5 -250t-109.5 -221.5t-186.5 -159t-264.5 -60.5q-211 0 -310 111t-99 303zM451 379q0 -182 145 -182q78 0 131 49t87 121.5t48.5 153.5t14.5 147q0 188 -154 188 q-78 0 -129 -51t-84 -125t-46 -156t-13 -145zM578 1221l209 252q82 12 184 12q53 0 91 -3t79 -9l-289 -252q-27 -4 -63.5 -8.5t-77.5 -4.5q-66 0 -133 13z" />
<glyph unicode="&#xf4;" horiz-adv-x="1142" d="M160 389q0 123 36.5 247t110.5 223t185.5 161.5t261.5 62.5q213 0 312 -112.5t99 -304.5q0 -127 -35.5 -250t-109.5 -221.5t-186.5 -159t-264.5 -60.5q-211 0 -310 111t-99 303zM418 1219l246 254q35 4 82 7t90 3q27 0 68.5 -2t80.5 -11l156 -251q-49 -12 -127 -13 q-35 0 -74 3t-72 12l-61 131l-104 -131q-29 -8 -70 -11.5t-78 -3.5q-82 0 -137 13zM451 379q0 -182 145 -182q78 0 131 49t87 121.5t48.5 153.5t14.5 147q0 188 -154 188q-78 0 -129 -51t-84 -125t-46 -156t-13 -145z" />
<glyph unicode="&#xf5;" horiz-adv-x="1142" d="M160 389q0 123 36.5 247t110.5 223t185.5 161.5t261.5 62.5q213 0 312 -112.5t99 -304.5q0 -127 -35.5 -250t-109.5 -221.5t-186.5 -159t-264.5 -60.5q-211 0 -310 111t-99 303zM413 1370q41 45 106.5 80t141.5 35q39 0 73 -11.5t66.5 -24.5t67.5 -24.5t74 -11.5 q35 0 66.5 9.5t78.5 47.5q25 -29 46.5 -70.5t25.5 -80.5q-43 -45 -108.5 -78t-141.5 -33q-39 0 -74 11.5t-68.5 24.5t-67.5 24.5t-71 11.5q-39 0 -67.5 -11.5t-75.5 -45.5q-23 25 -45.5 66.5t-26.5 80.5zM451 379q0 -182 145 -182q78 0 131 49t87 121.5t48.5 153.5t14.5 147 q0 188 -154 188q-78 0 -129 -51t-84 -125t-46 -156t-13 -145z" />
<glyph unicode="&#xf6;" horiz-adv-x="1142" d="M160 389q0 123 36.5 247t110.5 223t185.5 161.5t261.5 62.5q213 0 312 -112.5t99 -304.5q0 -127 -35.5 -250t-109.5 -221.5t-186.5 -159t-264.5 -60.5q-211 0 -310 111t-99 303zM432 1214q2 63 11 123t32 119q33 6 68.5 9t64.5 3t64.5 -3t66.5 -9q-2 -63 -11.5 -122.5 t-31.5 -119.5q-35 -6 -69.5 -8t-65.5 -2q-27 0 -63.5 2t-65.5 8zM451 379q0 -182 145 -182q78 0 131 49t87 121.5t48.5 153.5t14.5 147q0 188 -154 188q-78 0 -129 -51t-84 -125t-46 -156t-13 -145zM884 1214q-2 63 8.5 123t34.5 119q33 6 69 9t65 3t64.5 -3t66.5 -9 q-4 -61 -13.5 -120.5t-29.5 -121.5q-35 -6 -71 -8t-65 -2t-64.5 2t-64.5 8z" />
<glyph unicode="&#xf7;" horiz-adv-x="1228" d="M309 600q0 68 10.5 125t32.5 123h862q0 -8 1.5 -15.5t1.5 -15.5q0 -55 -13.5 -111.5t-32.5 -105.5h-862zM502 297q0 37 14 70.5t40 59.5t60.5 41t75.5 15q70 0 111 -41t41 -114q0 -37 -14.5 -70t-41 -58.5t-61.5 -40t-74 -14.5q-76 0 -113.5 46.5t-37.5 105.5zM643 1128 q0 37 14.5 71t40 59.5t60.5 41t76 15.5q70 0 110.5 -41t40.5 -115q0 -37 -14.5 -69.5t-41 -58t-61 -40t-73.5 -14.5q-76 0 -114 46t-38 105z" />
<glyph unicode="&#xf8;" horiz-adv-x="1142" d="M135 -53l117 147q-47 53 -69.5 128t-22.5 167q0 123 36.5 247t110.5 223t185.5 161.5t261.5 62.5q139 0 233 -53l60 76q25 6 71 6q20 0 44 -1t40 -5l-121 -154q84 -109 84 -286q0 -127 -35.5 -250t-109.5 -221.5t-186.5 -159t-264.5 -60.5q-127 0 -221 45l-57 -73 q-14 -4 -37 -5t-43 -1q-23 0 -42 1t-34 5zM451 348l372 475q-39 33 -100 33q-78 0 -129 -51t-84 -125t-46 -156t-13 -145v-31zM508 221q33 -25 88 -24q78 0 131 49t87 121.5t48.5 153.5t14.5 147v22z" />
<glyph unicode="&#xf9;" horiz-adv-x="1198" d="M197 248q0 31 4 65.5t10 73.5l119 672q39 6 76.5 9t72.5 3q70 0 142 -12l-115 -649q-8 -41 -8 -78q0 -61 26.5 -86t75.5 -25q29 0 64.5 14.5t72.5 60.5t72 129t59 222l76 412q80 12 150 12t141 -12l-111 -604q-23 -129 -34 -228.5t-11 -154.5v-38.5t2 -33.5 q-68 -12 -135 -12q-57 0 -127 12q-4 16 -8 38.5t-4 67.5q0 18 1 37t5 45q-25 -43 -61.5 -81.5t-83.5 -67.5t-101.5 -45.5t-109.5 -16.5q-123 0 -191.5 62.5t-68.5 208.5zM445 1473q41 6 78.5 9t91.5 3q100 0 184 -12l182 -252q-68 -12 -133 -13q-41 0 -78 4.5t-63 8.5z" />
<glyph unicode="&#xfa;" horiz-adv-x="1198" d="M197 248q0 31 4 65.5t10 73.5l119 672q39 6 76.5 9t72.5 3q70 0 142 -12l-115 -649q-8 -41 -8 -78q0 -61 26.5 -86t75.5 -25q29 0 64.5 14.5t72.5 60.5t72 129t59 222l76 412q80 12 150 12t141 -12l-111 -604q-23 -129 -34 -228.5t-11 -154.5v-38.5t2 -33.5 q-68 -12 -135 -12q-57 0 -127 12q-4 16 -8 38.5t-4 67.5q0 18 1 37t5 45q-25 -43 -61.5 -81.5t-83.5 -67.5t-101.5 -45.5t-109.5 -16.5q-123 0 -191.5 62.5t-68.5 208.5zM639 1221l209 252q82 12 184 12q53 0 91 -3t79 -9l-289 -252q-27 -4 -63.5 -8.5t-77.5 -4.5 q-66 0 -133 13z" />
<glyph unicode="&#xfb;" horiz-adv-x="1198" d="M197 248q0 31 4 65.5t10 73.5l119 672q39 6 76.5 9t72.5 3q70 0 142 -12l-115 -649q-8 -41 -8 -78q0 -61 26.5 -86t75.5 -25q29 0 64.5 14.5t72.5 60.5t72 129t59 222l76 412q80 12 150 12t141 -12l-111 -604q-23 -129 -34 -228.5t-11 -154.5v-38.5t2 -33.5 q-68 -12 -135 -12q-57 0 -127 12q-4 16 -8 38.5t-4 67.5q0 18 1 37t5 45q-25 -43 -61.5 -81.5t-83.5 -67.5t-101.5 -45.5t-109.5 -16.5q-123 0 -191.5 62.5t-68.5 208.5zM432 1219l246 254q35 4 82 7t90 3q27 0 68.5 -2t80.5 -11l156 -251q-49 -12 -127 -13q-35 0 -74 3 t-72 12l-61 131l-104 -131q-29 -8 -70 -11.5t-78 -3.5q-82 0 -137 13z" />
<glyph unicode="&#xfc;" horiz-adv-x="1198" d="M197 248q0 31 4 65.5t10 73.5l119 672q39 6 76.5 9t72.5 3q70 0 142 -12l-115 -649q-8 -41 -8 -78q0 -61 26.5 -86t75.5 -25q29 0 64.5 14.5t72.5 60.5t72 129t59 222l76 412q80 12 150 12t141 -12l-111 -604q-23 -129 -34 -228.5t-11 -154.5v-38.5t2 -33.5 q-68 -12 -135 -12q-57 0 -127 12q-4 16 -8 38.5t-4 67.5q0 18 1 37t5 45q-25 -43 -61.5 -81.5t-83.5 -67.5t-101.5 -45.5t-109.5 -16.5q-123 0 -191.5 62.5t-68.5 208.5zM449 1214q2 63 11 123t32 119q33 6 68.5 9t64.5 3t64.5 -3t66.5 -9q-2 -63 -11.5 -122.5t-31.5 -119.5 q-35 -6 -69.5 -8t-65.5 -2q-27 0 -63.5 2t-65.5 8zM901 1214q-2 63 8.5 123t34.5 119q33 6 69 9t65 3t64.5 -3t66.5 -9q-4 -61 -13.5 -120.5t-29.5 -121.5q-35 -6 -71 -8t-65 -2t-64.5 2t-64.5 8z" />
<glyph unicode="&#xfd;" horiz-adv-x="1110" d="M55 -475q4 59 16.5 112.5t41.5 102.5q18 -8 43.5 -13.5t44.5 -5.5q25 0 57.5 5.5t70.5 31t80 77.5t85 145l10 22q-23 -4 -49.5 -5t-55.5 -1h-46.5t-47.5 4l-96 1059q76 12 158 12q72 0 143 -12l55 -926q80 168 134.5 292t91 213t56 148.5t30 100.5t12.5 68.5t2 52.5 q0 20 -2 30.5t-4 20.5q35 6 73.5 9t79.5 3q82 0 154 -12q6 -18 6 -43q0 -35 -9 -77t-22.5 -84t-29 -81t-27.5 -69q-53 -127 -148.5 -325t-244.5 -501q-63 -127 -125 -202.5t-125.5 -114.5t-127 -50.5t-128.5 -11.5q-47 0 -81 6.5t-75 18.5zM553 1221l209 252q82 12 184 12 q53 0 91 -3t79 -9l-289 -252q-27 -4 -63.5 -8.5t-77.5 -4.5q-66 0 -133 13z" />
<glyph unicode="&#xfe;" horiz-adv-x="1204" d="M66 -483l268 1523q23 129 35 228.5t12 154.5v38.5t-2 33.5q68 12 133 12q31 0 75 -2t79 -8q4 -16 7 -39.5t3 -68.5q0 -20 -3 -54.5t-9.5 -76t-14.5 -88t-16 -93.5l-39 -200q47 88 132 147t208 59q143 0 220 -98t77 -285q0 -127 -39 -256t-124 -233.5t-220 -170 t-330 -65.5q-35 0 -52 2.5t-28 4.5l-82 -465q-41 -8 -77.5 -10.5t-69.5 -2.5q-35 0 -70 2t-73 11zM481 227q16 -6 42 -8t52 -2q90 0 155 42t107 106.5t61.5 142.5t19.5 151q0 72 -30 124.5t-102 52.5q-94 0 -161.5 -80t-98.5 -264z" />
<glyph unicode="&#xff;" horiz-adv-x="1110" d="M55 -475q4 59 16.5 112.5t41.5 102.5q18 -8 43.5 -13.5t44.5 -5.5q25 0 57.5 5.5t70.5 31t80 77.5t85 145l10 22q-23 -4 -49.5 -5t-55.5 -1h-46.5t-47.5 4l-96 1059q76 12 158 12q72 0 143 -12l55 -926q80 168 134.5 292t91 213t56 148.5t30 100.5t12.5 68.5t2 52.5 q0 20 -2 30.5t-4 20.5q35 6 73.5 9t79.5 3q82 0 154 -12q6 -18 6 -43q0 -35 -9 -77t-22.5 -84t-29 -81t-27.5 -69q-53 -127 -148.5 -325t-244.5 -501q-63 -127 -125 -202.5t-125.5 -114.5t-127 -50.5t-128.5 -11.5q-47 0 -81 6.5t-75 18.5zM363 1214q2 63 11 123t32 119 q33 6 68.5 9t64.5 3t64.5 -3t66.5 -9q-2 -63 -11.5 -122.5t-31.5 -119.5q-35 -6 -69.5 -8t-65.5 -2q-27 0 -63.5 2t-65.5 8zM815 1214q-2 63 8.5 123t34.5 119q33 6 69 9t65 3t64.5 -3t66.5 -9q-4 -61 -13.5 -120.5t-29.5 -121.5q-35 -6 -71 -8t-65 -2t-64.5 2t-64.5 8z" />
<glyph unicode="&#x100;" horiz-adv-x="1296" d="M51 0l688 1473q41 6 87 9t87 3q84 0 168 -12l181 -1473q-78 -12 -150 -12t-154 12l-26 297h-449l-131 -297q-74 -12 -153 -12q-78 0 -148 12zM594 543h315l-53 590zM662 1606q-8 104 35 206h542q8 -104 -34 -206h-543z" />
<glyph unicode="&#x101;" horiz-adv-x="1165" d="M147 289q0 154 46.5 297t137.5 253.5t226 177t315 66.5q90 0 168 -12t154 -35l-100 -577q-23 -129 -33 -228.5t-10 -154.5v-38t2 -34q-68 -12 -133 -12q-57 0 -127 12q-4 16 -8.5 39t-4.5 68v38.5t4 47.5q-59 -94 -151 -158t-215 -64q-135 0 -203 86t-68 228zM446 360 q0 -152 101 -151q98 0 182 120t123 337l31 174q-18 4 -36 5t-34 1q-98 0 -166.5 -49t-114 -123t-66 -159t-20.5 -155zM587 1292.5q1 24.5 5 50.5q8 51 30 105h543q2 -27 1 -51.5t-5 -50.5q-10 -53 -31 -105h-542q-2 27 -1 51.5z" />
<glyph unicode="&#x102;" horiz-adv-x="1296" d="M51 0l688 1473q41 6 87 9t87 3q84 0 168 -12l181 -1473q-78 -12 -150 -12t-154 12l-26 297h-449l-131 -297q-74 -12 -153 -12q-78 0 -148 12zM594 543h315l-53 590zM616 1821q31 8 60.5 11t58.5 3q31 0 58.5 -4t56.5 -12q0 -16 3 -33t14 -30t31.5 -21.5t55.5 -8.5 q66 0 92.5 26t40.5 69q37 8 63.5 11t59.5 3q27 0 54.5 -3t54.5 -11q-20 -78 -62.5 -129.5t-94.5 -80t-109.5 -39.5t-110.5 -11q-66 0 -123 13t-102 44t-72 80t-29 123z" />
<glyph unicode="&#x103;" horiz-adv-x="1165" d="M147 289q0 154 46.5 297t137.5 253.5t226 177t315 66.5q90 0 168 -12t154 -35l-100 -577q-23 -129 -33 -228.5t-10 -154.5v-38t2 -34q-68 -12 -133 -12q-57 0 -127 12q-4 16 -8.5 39t-4.5 68v38.5t4 47.5q-59 -94 -151 -158t-215 -64q-135 0 -203 86t-68 228zM446 360 q0 -152 101 -151q98 0 182 120t123 337l31 174q-18 4 -36 5t-34 1q-98 0 -166.5 -49t-114 -123t-66 -159t-20.5 -155zM537 1481q31 8 61.5 11t58.5 3q31 0 55.5 -3t53.5 -11q0 -16 3 -36t14.5 -37t34 -28.5t59.5 -11.5q74 0 97 32t36 79q37 8 63.5 12t59.5 4q27 0 55 -3 t55 -11q-18 -88 -59 -142.5t-93.5 -85t-111.5 -42t-115 -11.5q-57 0 -115.5 12.5t-106.5 44t-76.5 86t-28.5 138.5z" />
<glyph unicode="&#x104;" horiz-adv-x="1296" d="M51 0l688 1473q41 6 87 9t87 3q84 0 168 -12l181 -1473q-29 -18 -69 -48t-75 -66t-59.5 -74.5t-24.5 -73.5q0 -68 74 -68q12 0 34.5 2t61.5 15q12 -20 19.5 -50t7.5 -61q0 -10 -1 -19.5t-3 -19.5q-37 -14 -94.5 -23.5t-116.5 -9.5q-49 0 -94 8.5t-79 29t-53.5 52 t-19.5 78.5q0 49 20.5 93.5t54.5 84t77 75.5t90 69l-54 6l-26 297h-449l-131 -297q-74 -12 -153 -12q-78 0 -148 12zM594 543h315l-53 590z" />
<glyph unicode="&#x105;" horiz-adv-x="1165" d="M147 289q0 154 46.5 297t137.5 253.5t226 177t315 66.5q90 0 168 -12t154 -35l-100 -577q-23 -129 -33 -228.5t-10 -154.5v-38t2 -34q-31 -16 -70 -47t-75 -67.5t-60.5 -76.5t-24.5 -75q0 -68 74 -68q12 0 34.5 2t61.5 15q12 -20 19.5 -50t7.5 -61q0 -10 -1 -19.5 t-3 -19.5q-37 -14 -94.5 -23.5t-116.5 -9.5q-49 0 -94 8.5t-79 29t-53.5 52t-19.5 78.5q0 51 20.5 95.5t53.5 85.5t75 77.5t85 73.5q-4 16 -8.5 39t-4.5 68v38.5t4 47.5q-59 -94 -151 -158t-215 -64q-135 0 -203 86t-68 228zM446 360q0 -152 101 -151q98 0 182 120t123 337 l31 174q-18 4 -36 5t-34 1q-98 0 -166.5 -49t-114 -123t-66 -159t-20.5 -155z" />
<glyph unicode="&#x106;" horiz-adv-x="1173" d="M211 541q0 199 59.5 372.5t167 304t259 205t335.5 74.5q96 0 171 -11t155 -48q-12 -63 -31.5 -118.5t-54.5 -121.5q-70 27 -122 35t-99 8q-137 0 -235.5 -59.5t-161 -154.5t-92.5 -216t-30 -244q0 -168 87.5 -249.5t248.5 -81.5q31 0 57.5 2t53.5 6t57.5 13.5t69.5 21.5 q23 -53 36 -119t17 -129q-45 -18 -96 -29.5t-99.5 -16.5t-90.5 -7.5t-66 -2.5q-150 0 -261.5 41t-186 116t-111.5 178.5t-37 230.5zM758 1591l227 219q25 4 71 7.5t93 3.5q53 0 105.5 -3t75.5 -8l-291 -221q-20 -4 -59.5 -6t-80.5 -2t-83 3t-58 7z" />
<glyph unicode="&#x107;" horiz-adv-x="942" d="M158 401q0 121 40 243t117.5 219.5t191.5 158.5t263 61q70 0 135.5 -10t124.5 -33q-2 -53 -18.5 -113.5t-50.5 -115.5q-45 18 -89.5 28.5t-97.5 10.5q-80 0 -139.5 -36t-99 -94t-59 -134t-19.5 -158q0 -113 57 -166t145 -53q45 0 89 8t110 35q23 -37 37 -88t14 -135 q-66 -29 -139.5 -41.5t-161.5 -12.5q-233 0 -341.5 114t-108.5 312zM566 1221l209 252q82 12 184 12q53 0 91 -3t79 -9l-289 -252q-27 -4 -63.5 -8.5t-77.5 -4.5q-66 0 -133 13z" />
<glyph unicode="&#x108;" horiz-adv-x="1173" d="M211 541q0 199 59.5 372.5t167 304t259 205t335.5 74.5q96 0 171 -11t155 -48q-12 -63 -31.5 -118.5t-54.5 -121.5q-70 27 -122 35t-99 8q-137 0 -235.5 -59.5t-161 -154.5t-92.5 -216t-30 -244q0 -168 87.5 -249.5t248.5 -81.5q31 0 57.5 2t53.5 6t57.5 13.5t69.5 21.5 q23 -53 36 -119t17 -129q-45 -18 -96 -29.5t-99.5 -16.5t-90.5 -7.5t-66 -2.5q-150 0 -261.5 41t-186 116t-111.5 178.5t-37 230.5zM642 1599l245 224q35 4 82 7t90 3q27 0 69 -2t81 -10l155 -222q-49 -12 -127 -12q-35 0 -74.5 3t-72.5 12l-61 100l-105 -100 q-29 -8 -68.5 -11.5t-76.5 -3.5q-82 0 -137 12z" />
<glyph unicode="&#x109;" horiz-adv-x="942" d="M158 401q0 121 40 243t117.5 219.5t191.5 158.5t263 61q70 0 135.5 -10t124.5 -33q-2 -53 -18.5 -113.5t-50.5 -115.5q-45 18 -89.5 28.5t-97.5 10.5q-80 0 -139.5 -36t-99 -94t-59 -134t-19.5 -158q0 -113 57 -166t145 -53q45 0 89 8t110 35q23 -37 37 -88t14 -135 q-66 -29 -139.5 -41.5t-161.5 -12.5q-233 0 -341.5 114t-108.5 312zM371 1219l246 254q35 4 82 7t90 3q27 0 68.5 -2t80.5 -11l156 -251q-49 -12 -127 -13q-35 0 -74 3t-72 12l-61 131l-104 -131q-29 -8 -70 -11.5t-78 -3.5q-82 0 -137 13z" />
<glyph unicode="&#x10a;" horiz-adv-x="1173" d="M211 541q0 199 59.5 372.5t167 304t259 205t335.5 74.5q96 0 171 -11t155 -48q-12 -63 -31.5 -118.5t-54.5 -121.5q-70 27 -122 35t-99 8q-137 0 -235.5 -59.5t-161 -154.5t-92.5 -216t-30 -244q0 -168 87.5 -249.5t248.5 -81.5q31 0 57.5 2t53.5 6t57.5 13.5t69.5 21.5 q23 -53 36 -119t17 -129q-45 -18 -96 -29.5t-99.5 -16.5t-90.5 -7.5t-66 -2.5q-150 0 -261.5 41t-186 116t-111.5 178.5t-37 230.5zM873 1579q-4 72 8 136.5t37 135.5q37 8 78 11.5t73 3.5q33 0 73 -3t75 -12q0 -72 -12.5 -137t-36.5 -135q-37 -6 -77 -8t-73 -2 q-31 0 -71.5 2t-73.5 8z" />
<glyph unicode="&#x10b;" horiz-adv-x="942" d="M158 401q0 121 40 243t117.5 219.5t191.5 158.5t263 61q70 0 135.5 -10t124.5 -33q-2 -53 -18.5 -113.5t-50.5 -115.5q-45 18 -89.5 28.5t-97.5 10.5q-80 0 -139.5 -36t-99 -94t-59 -134t-19.5 -158q0 -113 57 -166t145 -53q45 0 89 8t110 35q23 -37 37 -88t14 -135 q-66 -29 -139.5 -41.5t-161.5 -12.5q-233 0 -341.5 114t-108.5 312zM600 1237q-4 72 8.5 136.5t36.5 135.5q37 8 78 11.5t74 3.5t73 -3t74 -12q0 -72 -12 -137t-37 -135q-37 -6 -77 -8t-72 -2q-31 0 -72 2t-74 8z" />
<glyph unicode="&#x10c;" horiz-adv-x="1173" d="M211 541q0 199 59.5 372.5t167 304t259 205t335.5 74.5q96 0 171 -11t155 -48q-12 -63 -31.5 -118.5t-54.5 -121.5q-70 27 -122 35t-99 8q-137 0 -235.5 -59.5t-161 -154.5t-92.5 -216t-30 -244q0 -168 87.5 -249.5t248.5 -81.5q31 0 57.5 2t53.5 6t57.5 13.5t69.5 21.5 q23 -53 36 -119t17 -129q-45 -18 -96 -29.5t-99.5 -16.5t-90.5 -7.5t-66 -2.5q-150 0 -261.5 41t-186 116t-111.5 178.5t-37 230.5zM744 1821q49 12 126 12q35 0 75 -3t73 -11l61 -101l105 101q29 8 68.5 11t76.5 3q82 0 137 -12l-245 -224q-35 -4 -82 -7t-90 -3 q-27 0 -69 2t-81 10z" />
<glyph unicode="&#x10d;" horiz-adv-x="942" d="M158 401q0 121 40 243t117.5 219.5t191.5 158.5t263 61q70 0 135.5 -10t124.5 -33q-2 -53 -18.5 -113.5t-50.5 -115.5q-45 18 -89.5 28.5t-97.5 10.5q-80 0 -139.5 -36t-99 -94t-59 -134t-19.5 -158q0 -113 57 -166t145 -53q45 0 89 8t110 35q23 -37 37 -88t14 -135 q-66 -29 -139.5 -41.5t-161.5 -12.5q-233 0 -341.5 114t-108.5 312zM430 1470q49 12 127 13q35 0 75 -3t73 -12l61 -131l105 131q29 8 68.5 11.5t76.5 3.5q82 0 137 -13l-245 -253q-35 -4 -82 -7.5t-90 -3.5q-27 0 -69 2t-81 11z" />
<glyph unicode="&#x10e;" horiz-adv-x="1404" d="M162 0l258 1470q82 10 168 18.5t182 8.5q158 0 284 -41t214 -117.5t135 -188.5t47 -253q0 -221 -69.5 -393t-194.5 -289t-298 -178.5t-378 -61.5q-117 0 -192.5 7.5t-155.5 17.5zM504 238q37 -6 102 -7q117 0 212 47.5t165 131.5t107.5 200.5t37.5 257.5q0 94 -25.5 165 t-69.5 116t-105.5 67.5t-130.5 22.5q-43 0 -65.5 -1t-51.5 -5zM568 1821q49 12 126 12q35 0 75 -3t73 -11l61 -101l105 101q29 8 68.5 11t76.5 3q82 0 137 -12l-245 -224q-35 -4 -82 -7t-90 -3q-27 0 -69 2t-81 10z" />
<glyph unicode="&#x10f;" horiz-adv-x="1361" d="M147 289q0 154 46.5 297t137.5 253.5t226 177t315 66.5q14 0 27.5 -1t24.5 -1q23 121 32 205t9 139q0 23 -1 38.5t-3 33.5q35 6 79.5 9t77.5 3q59 0 131 -12q10 -31 11 -78q0 -90 -25 -219l-133 -741q-23 -129 -33 -228.5t-10 -154.5v-38t2 -34q-68 -12 -133 -12 q-57 0 -127 12q-4 16 -8.5 39t-4.5 68q0 18 1.5 42.5t5.5 51.5q-29 -47 -69 -89t-88 -73t-103.5 -49.5t-116.5 -18.5q-135 0 -203 86t-68 228zM446 360q0 -152 101 -151q98 0 182 120t123 337l31 174q-18 4 -36 5t-34 1q-98 0 -166.5 -49t-114 -123t-66 -159t-20.5 -155z M1341 1092l72 413q12 2 51 4t86 2q33 0 73 -2t56 -4l-109 -413q-16 -4 -46.5 -6.5t-61.5 -2.5q-35 0 -68.5 2t-52.5 7z" />
<glyph unicode="&#x110;" horiz-adv-x="1429" d="M156 653q-4 53 3 104.5t29 102.5h148l108 610q82 10 168 18.5t183 8.5q158 0 283.5 -41t213.5 -117.5t135.5 -188.5t47.5 -253q0 -221 -70 -393t-195 -289t-298 -178.5t-377 -61.5q-117 0 -193 7.5t-156 17.5l115 653h-145zM528 238q37 -6 103 -7q117 0 212 47.5 t164.5 131.5t107.5 200.5t38 257.5q0 94 -25.5 165t-69.5 116t-105.5 67.5t-131.5 22.5q-43 0 -65.5 -1t-50.5 -5l-66 -373h274q8 -104 -34 -207h-277z" />
<glyph unicode="&#x111;" horiz-adv-x="1173" d="M147 289q0 154 44.5 287t133.5 232t222 156.5t313 57.5q14 0 27.5 -1t23.5 -1l23 135h-275q-6 47 3.5 89t27.5 85h266q6 47 7.5 66.5t1.5 29.5q0 23 -1 38.5t-3 33.5q35 6 79.5 9t77.5 3q59 0 131 -12q10 -31 11 -78q0 -20 -7 -90h113q6 -47 -3 -89t-28 -85h-108 l-125 -696q-23 -129 -33 -228.5t-10 -154.5v-38t2 -34q-68 -12 -133 -12q-57 0 -127 12q-4 16 -8.5 39t-4.5 68q0 18 1.5 42.5t5.5 51.5q-29 -47 -69 -89t-88 -73t-103.5 -49.5t-116.5 -18.5q-135 0 -203 86t-68 228zM446 360q0 -152 101 -151q98 0 182 120t123 337l18 112 q-18 4 -35.5 5t-33.5 1q-98 0 -166 -39.5t-110 -101t-60.5 -137.5t-18.5 -146z" />
<glyph unicode="&#x112;" horiz-adv-x="1085" d="M162 0l258 1473h807q0 -8 1 -16.5t1 -16.5q0 -53 -12.5 -108.5t-34.5 -112.5h-508l-56 -320h404q0 -123 -45 -256h-404l-69 -389h522q0 -8 1 -15.5t1 -15.5q0 -55 -13.5 -109.5t-31.5 -113.5h-821zM576 1606q-8 104 35 206h542q8 -104 -34 -206h-543z" />
<glyph unicode="&#x113;" horiz-adv-x="1042" d="M158 410q0 125 43 245.5t121.5 216t192.5 153.5t255 58q68 0 126 -16t101 -50t68 -83t25 -115q0 -92 -43 -159.5t-115 -114.5t-163 -77t-189 -44l-138 -23q12 -98 65.5 -146t156.5 -48q82 0 144 17.5t132 45.5q33 -41 44 -99t11 -124q-35 -16 -81 -29.5t-95 -22.5 t-98 -14.5t-88 -5.5q-125 0 -214 31t-147.5 87.5t-86 137t-27.5 179.5zM453 594l106 16q78 12 127 32t78 43.5t39 48t10 48.5q0 39 -25.5 63.5t-68.5 24.5q-53 0 -97 -23.5t-77 -62.5t-56.5 -89t-35.5 -101zM505 1292.5q1 24.5 5 50.5q8 51 30 105h543q2 -27 1 -51.5 t-5 -50.5q-10 -53 -31 -105h-542q-2 27 -1 51.5z" />
<glyph unicode="&#x114;" horiz-adv-x="1085" d="M162 0l258 1473h807q0 -8 1 -16.5t1 -16.5q0 -53 -12.5 -108.5t-34.5 -112.5h-508l-56 -320h404q0 -123 -45 -256h-404l-69 -389h522q0 -8 1 -15.5t1 -15.5q0 -55 -13.5 -109.5t-31.5 -113.5h-821zM536 1821q31 8 60.5 11t58.5 3q31 0 58.5 -4t56.5 -12q0 -16 3 -33 t14 -30t31.5 -21.5t55.5 -8.5q66 0 92.5 26t40.5 69q37 8 63.5 11t59.5 3q27 0 54.5 -3t54.5 -11q-20 -78 -62.5 -129.5t-94.5 -80t-109.5 -39.5t-110.5 -11q-66 0 -123 13t-102 44t-72 80t-29 123z" />
<glyph unicode="&#x115;" horiz-adv-x="1042" d="M158 410q0 125 43 245.5t121.5 216t192.5 153.5t255 58q68 0 126 -16t101 -50t68 -83t25 -115q0 -92 -43 -159.5t-115 -114.5t-163 -77t-189 -44l-138 -23q12 -98 65.5 -146t156.5 -48q82 0 144 17.5t132 45.5q33 -41 44 -99t11 -124q-35 -16 -81 -29.5t-95 -22.5 t-98 -14.5t-88 -5.5q-125 0 -214 31t-147.5 87.5t-86 137t-27.5 179.5zM416 1481q31 8 61.5 11t58.5 3q31 0 55.5 -3t53.5 -11q0 -16 3 -36t14.5 -37t34 -28.5t59.5 -11.5q74 0 97 32t36 79q37 8 63.5 12t59.5 4q27 0 55 -3t55 -11q-18 -88 -59 -142.5t-93.5 -85t-111.5 -42 t-115 -11.5q-57 0 -115.5 12.5t-106.5 44t-76.5 86t-28.5 138.5zM453 594l106 16q78 12 127 32t78 43.5t39 48t10 48.5q0 39 -25.5 63.5t-68.5 24.5q-53 0 -97 -23.5t-77 -62.5t-56.5 -89t-35.5 -101z" />
<glyph unicode="&#x116;" horiz-adv-x="1085" d="M162 0l258 1473h807q0 -8 1 -16.5t1 -16.5q0 -53 -12.5 -108.5t-34.5 -112.5h-508l-56 -320h404q0 -123 -45 -256h-404l-69 -389h522q0 -8 1 -15.5t1 -15.5q0 -55 -13.5 -109.5t-31.5 -113.5h-821zM709 1579q-4 72 8 136.5t37 135.5q37 8 78 11.5t73 3.5q33 0 73 -3 t75 -12q0 -72 -12.5 -137t-36.5 -135q-37 -6 -77 -8t-73 -2q-31 0 -71.5 2t-73.5 8z" />
<glyph unicode="&#x117;" horiz-adv-x="1042" d="M158 410q0 125 43 245.5t121.5 216t192.5 153.5t255 58q68 0 126 -16t101 -50t68 -83t25 -115q0 -92 -43 -159.5t-115 -114.5t-163 -77t-189 -44l-138 -23q12 -98 65.5 -146t156.5 -48q82 0 144 17.5t132 45.5q33 -41 44 -99t11 -124q-35 -16 -81 -29.5t-95 -22.5 t-98 -14.5t-88 -5.5q-125 0 -214 31t-147.5 87.5t-86 137t-27.5 179.5zM453 594l106 16q78 12 127 32t78 43.5t39 48t10 48.5q0 39 -25.5 63.5t-68.5 24.5q-53 0 -97 -23.5t-77 -62.5t-56.5 -89t-35.5 -101zM606 1237q-4 72 8.5 136.5t36.5 135.5q37 8 78 11.5t74 3.5t73 -3 t74 -12q0 -72 -12 -137t-37 -135q-37 -6 -77 -8t-72 -2q-31 0 -72 2t-74 8z" />
<glyph unicode="&#x118;" horiz-adv-x="1085" d="M162 0l258 1473h807q0 -8 1 -16.5t1 -16.5q0 -53 -12.5 -108.5t-34.5 -112.5h-508l-56 -320h404q0 -123 -45 -256h-404l-69 -389h522q0 -8 1 -15.5t1 -15.5q0 -55 -13.5 -109.5t-31.5 -113.5h-63q-29 -18 -69 -48t-75 -66t-59.5 -74.5t-24.5 -73.5q0 -68 74 -68 q12 0 34.5 2t61.5 15q12 -20 19.5 -50t7.5 -61q0 -10 -1 -19.5t-3 -19.5q-37 -14 -94.5 -23.5t-116.5 -9.5q-49 0 -94 8.5t-79 29t-53.5 52t-19.5 78.5q0 49 21.5 94.5t57.5 86.5t82 77.5t93 69.5h-520z" />
<glyph unicode="&#x119;" horiz-adv-x="1042" d="M158 410q0 125 43 245.5t121.5 216t192.5 153.5t255 58q68 0 126 -16t101 -50t68 -83t25 -115q0 -92 -43 -159.5t-115 -114.5t-163 -77t-189 -44l-138 -23q12 -98 65.5 -146t156.5 -48q82 0 144 17.5t132 45.5q33 -41 44 -99t11 -124q-14 -6 -30.5 -14t-30.5 -19 q-43 -29 -88 -61.5t-81 -68.5t-58.5 -73.5t-22.5 -72.5q0 -68 74 -68q12 0 34.5 2t61.5 15q12 -20 19.5 -50t7.5 -61q0 -10 -1 -19.5t-3 -19.5q-37 -14 -94.5 -23.5t-116.5 -9.5q-49 0 -94.5 8.5t-79 29t-53 52t-19.5 78.5q0 45 18.5 87t48 80t69.5 72t83 64h-8 q-123 0 -213 31t-147.5 87.5t-85 137t-27.5 179.5zM453 594l106 16q78 12 127 32t78 43.5t39 48t10 48.5q0 39 -25.5 63.5t-68.5 24.5q-53 0 -97 -23.5t-77 -62.5t-56.5 -89t-35.5 -101z" />
<glyph unicode="&#x11a;" horiz-adv-x="1085" d="M162 0l258 1473h807q0 -8 1 -16.5t1 -16.5q0 -53 -12.5 -108.5t-34.5 -112.5h-508l-56 -320h404q0 -123 -45 -256h-404l-69 -389h522q0 -8 1 -15.5t1 -15.5q0 -55 -13.5 -109.5t-31.5 -113.5h-821zM537 1821q49 12 126 12q35 0 75 -3t73 -11l61 -101l105 101 q29 8 68.5 11t76.5 3q82 0 137 -12l-245 -224q-35 -4 -82 -7t-90 -3q-27 0 -69 2t-81 10z" />
<glyph unicode="&#x11b;" horiz-adv-x="1042" d="M158 410q0 125 43 245.5t121.5 216t192.5 153.5t255 58q68 0 126 -16t101 -50t68 -83t25 -115q0 -92 -43 -159.5t-115 -114.5t-163 -77t-189 -44l-138 -23q12 -98 65.5 -146t156.5 -48q82 0 144 17.5t132 45.5q33 -41 44 -99t11 -124q-35 -16 -81 -29.5t-95 -22.5 t-98 -14.5t-88 -5.5q-125 0 -214 31t-147.5 87.5t-86 137t-27.5 179.5zM440 1470q49 12 127 13q35 0 75 -3t73 -12l61 -131l105 131q29 8 68.5 11.5t76.5 3.5q82 0 137 -13l-245 -253q-35 -4 -82 -7.5t-90 -3.5q-27 0 -69 2t-81 11zM453 594l106 16q78 12 127 32t78 43.5 t39 48t10 48.5q0 39 -25.5 63.5t-68.5 24.5q-53 0 -97 -23.5t-77 -62.5t-56.5 -89t-35.5 -101z" />
<glyph unicode="&#x11c;" horiz-adv-x="1349" d="M211 541q0 199 59.5 372.5t167 304t259 205t335.5 74.5q96 0 172 -12t154 -47q-12 -63 -31.5 -118.5t-54.5 -121.5q-63 27 -116.5 35t-104.5 8q-137 0 -234.5 -59.5t-160 -154.5t-92 -216t-29.5 -244q0 -178 87 -253.5t230 -75.5q29 0 63.5 3t53.5 7l90 514q41 8 78 11 t71 3q35 0 73 -3t75 -11l-129 -729q-90 -31 -203 -44.5t-211 -13.5q-150 0 -262.5 43t-188 119t-113.5 179.5t-38 224.5zM654 1599l245 224q35 4 82 7t90 3q27 0 69 -2t81 -10l155 -222q-49 -12 -127 -12q-35 0 -74.5 3t-72.5 12l-61 100l-105 -100q-29 -8 -68.5 -11.5 t-76.5 -3.5q-82 0 -137 12z" />
<glyph unicode="&#x11d;" horiz-adv-x="1169" d="M68 -463q2 35 5 63.5t9 55.5t16.5 53.5t28.5 59.5q33 -10 89 -19.5t122 -9.5q57 0 119.5 9t121 42t106.5 98.5t75 180.5l31 129q-59 -94 -153.5 -159t-217.5 -65q-135 0 -204 87.5t-69 228.5q0 154 46.5 296t137.5 252.5t227 177t316 66.5q178 0 332 -47l-180 -1013 q-29 -164 -101.5 -265.5t-169 -159t-204 -78t-207.5 -20.5t-170 12.5t-106 24.5zM446 362q0 -74 26 -113.5t77 -39.5q98 0 182 120t123 337l31 174q-18 4 -36 5t-34 1q-98 0 -167.5 -49t-114 -122t-66 -158t-21.5 -155zM451 1219l246 254q35 4 82 7t90 3q27 0 68.5 -2 t80.5 -11l156 -251q-49 -12 -127 -13q-35 0 -74 3t-72 12l-61 131l-104 -131q-29 -8 -70 -11.5t-78 -3.5q-82 0 -137 13z" />
<glyph unicode="&#x11e;" horiz-adv-x="1349" d="M211 541q0 199 59.5 372.5t167 304t259 205t335.5 74.5q96 0 172 -12t154 -47q-12 -63 -31.5 -118.5t-54.5 -121.5q-63 27 -116.5 35t-104.5 8q-137 0 -234.5 -59.5t-160 -154.5t-92 -216t-29.5 -244q0 -178 87 -253.5t230 -75.5q29 0 63.5 3t53.5 7l90 514q41 8 78 11 t71 3q35 0 73 -3t75 -11l-129 -729q-90 -31 -203 -44.5t-211 -13.5q-150 0 -262.5 43t-188 119t-113.5 179.5t-38 224.5zM690 1821q31 8 60.5 11t58.5 3q31 0 58.5 -4t56.5 -12q0 -16 3 -33t14 -30t31.5 -21.5t55.5 -8.5q66 0 92.5 26t40.5 69q37 8 63.5 11t59.5 3 q27 0 54.5 -3t54.5 -11q-20 -78 -62.5 -129.5t-94.5 -80t-109.5 -39.5t-110.5 -11q-66 0 -123 13t-102 44t-72 80t-29 123z" />
<glyph unicode="&#x11f;" horiz-adv-x="1169" d="M68 -463q2 35 5 63.5t9 55.5t16.5 53.5t28.5 59.5q33 -10 89 -19.5t122 -9.5q57 0 119.5 9t121 42t106.5 98.5t75 180.5l31 129q-59 -94 -153.5 -159t-217.5 -65q-135 0 -204 87.5t-69 228.5q0 154 46.5 296t137.5 252.5t227 177t316 66.5q178 0 332 -47l-180 -1013 q-29 -164 -101.5 -265.5t-169 -159t-204 -78t-207.5 -20.5t-170 12.5t-106 24.5zM446 362q0 -74 26 -113.5t77 -39.5q98 0 182 120t123 337l31 174q-18 4 -36 5t-34 1q-98 0 -167.5 -49t-114 -122t-66 -158t-21.5 -155zM506 1481q31 8 61.5 11t58.5 3q31 0 55.5 -3t53.5 -11 q0 -16 3 -36t14.5 -37t34 -28.5t59.5 -11.5q74 0 97 32t36 79q37 8 63.5 12t59.5 4q27 0 55 -3t55 -11q-18 -88 -59 -142.5t-93.5 -85t-111.5 -42t-115 -11.5q-57 0 -115.5 12.5t-106.5 44t-76.5 86t-28.5 138.5z" />
<glyph unicode="&#x120;" horiz-adv-x="1349" d="M211 541q0 199 59.5 372.5t167 304t259 205t335.5 74.5q96 0 172 -12t154 -47q-12 -63 -31.5 -118.5t-54.5 -121.5q-63 27 -116.5 35t-104.5 8q-137 0 -234.5 -59.5t-160 -154.5t-92 -216t-29.5 -244q0 -178 87 -253.5t230 -75.5q29 0 63.5 3t53.5 7l90 514q41 8 78 11 t71 3q35 0 73 -3t75 -11l-129 -729q-90 -31 -203 -44.5t-211 -13.5q-150 0 -262.5 43t-188 119t-113.5 179.5t-38 224.5zM883 1579q-4 72 8 136.5t37 135.5q37 8 78 11.5t73 3.5q33 0 73 -3t75 -12q0 -72 -12.5 -137t-36.5 -135q-37 -6 -77 -8t-73 -2q-31 0 -71.5 2t-73.5 8 z" />
<glyph unicode="&#x121;" horiz-adv-x="1169" d="M68 -463q2 35 5 63.5t9 55.5t16.5 53.5t28.5 59.5q33 -10 89 -19.5t122 -9.5q57 0 119.5 9t121 42t106.5 98.5t75 180.5l31 129q-59 -94 -153.5 -159t-217.5 -65q-135 0 -204 87.5t-69 228.5q0 154 46.5 296t137.5 252.5t227 177t316 66.5q178 0 332 -47l-180 -1013 q-29 -164 -101.5 -265.5t-169 -159t-204 -78t-207.5 -20.5t-170 12.5t-106 24.5zM446 362q0 -74 26 -113.5t77 -39.5q98 0 182 120t123 337l31 174q-18 4 -36 5t-34 1q-98 0 -167.5 -49t-114 -122t-66 -158t-21.5 -155zM710 1237q-4 72 8.5 136.5t36.5 135.5q37 8 78 11.5 t74 3.5t73 -3t74 -12q0 -72 -12 -137t-37 -135q-37 -6 -77 -8t-72 -2q-31 0 -72 2t-74 8z" />
<glyph unicode="&#x122;" horiz-adv-x="1349" d="M211 541q0 199 59.5 372.5t167 304t259 205t335.5 74.5q96 0 172 -12t154 -47q-12 -63 -31.5 -118.5t-54.5 -121.5q-63 27 -116.5 35t-104.5 8q-137 0 -234.5 -59.5t-160 -154.5t-92 -216t-29.5 -244q0 -178 87 -253.5t230 -75.5q29 0 63.5 3t53.5 7l90 514q41 8 78 11 t71 3q35 0 73 -3t75 -11l-129 -729q-90 -31 -203 -44.5t-211 -13.5q-150 0 -262.5 43t-188 119t-113.5 179.5t-38 224.5zM506 -487l131 348q35 8 74 11t74 3q72 0 135 -14l-160 -350q-29 -6 -64.5 -9.5t-64.5 -3.5t-60.5 3t-64.5 12z" />
<glyph unicode="&#x123;" horiz-adv-x="1169" d="M68 -463q2 35 5 63.5t9 55.5t16.5 53.5t28.5 59.5q33 -10 89 -19.5t122 -9.5q57 0 119.5 9t121 42t106.5 98.5t75 180.5l31 129q-59 -94 -153.5 -159t-217.5 -65q-135 0 -204 87.5t-69 228.5q0 154 46.5 296t137.5 252.5t227 177t316 66.5q178 0 332 -47l-180 -1013 q-29 -164 -101.5 -265.5t-169 -159t-204 -78t-207.5 -20.5t-170 12.5t-106 24.5zM446 362q0 -74 26 -113.5t77 -39.5q98 0 182 120t123 337l31 174q-18 4 -36 5t-34 1q-98 0 -167.5 -49t-114 -122t-66 -158t-21.5 -155zM698 1190l170 283q31 8 67 11t64 3q66 0 129 -14 l-147 -283q-72 -16 -139 -16q-68 0 -144 16z" />
<glyph unicode="&#x124;" horiz-adv-x="1366" d="M162 0l258 1470q78 14 151 15q35 0 73 -3t77 -12l-100 -575h444l100 575q41 8 79 11.5t73 3.5t74 -3t75 -12l-258 -1470q-80 -12 -153 -12q-74 0 -148 12l111 637h-445l-110 -637q-84 -12 -154 -12q-74 0 -147 12zM635 1599l245 224q35 4 82 7t90 3q27 0 69 -2t81 -10 l155 -222q-49 -12 -127 -12q-35 0 -74.5 3t-72.5 12l-61 100l-105 -100q-29 -8 -68.5 -11.5t-76.5 -3.5q-82 0 -137 12z" />
<glyph unicode="&#x125;" horiz-adv-x="1196" d="M152 0l194 1100q37 215 37 325q0 23 -1 38.5t-3 33.5q35 6 80 9t78 3q59 0 131 -12q10 -31 10 -78q0 -90 -25 -219l-53 -287q53 72 141 120t187 48q123 0 191.5 -62.5t68.5 -207.5q0 -31 -4 -65.5t-10 -73.5l-119 -672q-78 -12 -150 -12t-141 12l115 649q8 41 8 78 q0 61 -26.5 86t-76.5 25q-29 0 -64.5 -14.5t-72.5 -60.5t-71.5 -130t-59.5 -221l-76 -412q-39 -6 -76.5 -8t-70.5 -2q-35 0 -69 2t-72 8zM396 1599l245 224q35 4 82 7t90 3q27 0 69 -2t81 -10l155 -222q-49 -12 -127 -12q-35 0 -74.5 3t-72.5 12l-61 100l-105 -100 q-29 -8 -68.5 -11.5t-76.5 -3.5q-82 0 -137 12z" />
<glyph unicode="&#x126;" horiz-adv-x="1433" d="M195 0l190 1087h-115q-8 104 35 207h117l31 176q78 14 151 15q35 0 73 -3t77 -12l-31 -176h444l31 176q41 8 79 11.5t73 3.5t73.5 -3t75.5 -12l-31 -176h113q8 -104 -35 -207h-114l-191 -1087q-80 -12 -154 -12t-147 12l111 637h-445l-110 -637q-84 -12 -154 -12 q-74 0 -147 12zM653 895h445l32 192h-444z" />
<glyph unicode="&#x127;" horiz-adv-x="1193" d="M152 0l204 1155h-112q-6 47 3 89t27 85h103q6 61 6 96q0 23 -1 38.5t-3 33.5q35 6 80 9t78 3q59 0 131 -12q10 -31 10 -78q0 -35 -6 -90h278q6 -47 -3 -89t-27 -85h-277l-57 -311q53 72 141 120t186 48q123 0 192 -62.5t69 -208.5q0 -31 -4.5 -65.5t-10.5 -73.5 l-104 -602q-78 -12 -150 -12t-141 12l100 580q8 41 8 77q0 61 -26.5 86t-75.5 25q-29 0 -64.5 -14.5t-72.5 -60.5t-72 -130t-59 -221l-62 -342q-39 -6 -76.5 -8t-70.5 -2q-35 0 -69 2t-72 8z" />
<glyph unicode="&#x128;" horiz-adv-x="620" d="M162 0l258 1470q78 14 151 15q35 0 73 -3t77 -12l-258 -1470q-84 -12 -154 -12q-74 0 -147 12zM258 1741q41 45 106.5 79.5t141.5 34.5q39 0 73 -11t66.5 -24.5t67.5 -24.5t74 -11q35 0 66.5 9t78.5 48q25 -29 46.5 -70.5t25.5 -80.5q-43 -45 -108.5 -78t-141.5 -33 q-39 0 -74 11.5t-68.5 24.5t-67.5 24.5t-71 11.5q-39 0 -67.5 -11.5t-75.5 -46.5q-23 25 -45.5 67t-26.5 81z" />
<glyph unicode="&#x129;" horiz-adv-x="638" d="M141 1370q41 45 106.5 80t141.5 35q39 0 73 -11.5t66.5 -24.5t67.5 -24.5t74 -11.5q35 0 66.5 9.5t78.5 47.5q25 -29 46.5 -70.5t25.5 -80.5q-43 -45 -108.5 -78t-141.5 -33q-39 0 -74 11.5t-68.5 24.5t-67.5 24.5t-71 11.5q-39 0 -67.5 -11.5t-75.5 -45.5 q-23 25 -45.5 66.5t-26.5 80.5zM199 0l147 838h-129q0 6 -1 12t-1 14q0 53 10.5 99.5t30.5 95.5h414l-187 -1059q-78 -12 -147 -12q-63 0 -137 12z" />
<glyph unicode="&#x12a;" horiz-adv-x="620" d="M162 0l258 1470q78 14 151 15q35 0 73 -3t77 -12l-258 -1470q-84 -12 -154 -12q-74 0 -147 12zM328 1606q-8 104 35 206h542q8 -104 -34 -206h-543z" />
<glyph unicode="&#x12b;" horiz-adv-x="638" d="M199 0l147 838h-129q0 6 -1 12t-1 14q0 53 10.5 99.5t30.5 95.5h414l-187 -1059q-78 -12 -147 -12q-63 0 -137 12zM206 1292.5q1 24.5 5 50.5q8 51 30 105h543q2 -27 1 -51.5t-5 -50.5q-10 -53 -31 -105h-542q-2 27 -1 51.5z" />
<glyph unicode="&#x12c;" horiz-adv-x="620" d="M162 0l258 1470q78 14 151 15q35 0 73 -3t77 -12l-258 -1470q-84 -12 -154 -12q-74 0 -147 12zM288 1821q31 8 60.5 11t58.5 3q31 0 58.5 -4t56.5 -12q0 -16 3 -33t14 -30t31.5 -21.5t55.5 -8.5q66 0 92.5 26t40.5 69q37 8 63.5 11t59.5 3q27 0 54.5 -3t54.5 -11 q-20 -78 -62.5 -129.5t-94.5 -80t-109.5 -39.5t-110.5 -11q-66 0 -123 13t-102 44t-72 80t-29 123z" />
<glyph unicode="&#x12d;" horiz-adv-x="638" d="M189 1481q31 8 61.5 11t58.5 3q31 0 55.5 -3t53.5 -11q0 -16 3 -36t14.5 -37t34 -28.5t59.5 -11.5q74 0 97 32t36 79q37 8 63.5 12t59.5 4q27 0 55 -3t55 -11q-18 -88 -59 -142.5t-93.5 -85t-111.5 -42t-115 -11.5q-57 0 -115.5 12.5t-106.5 44t-76.5 86t-28.5 138.5z M199 0l147 838h-129q0 6 -1 12t-1 14q0 53 10.5 99.5t30.5 95.5h414l-187 -1059q-78 -12 -147 -12q-63 0 -137 12z" />
<glyph unicode="&#x12e;" horiz-adv-x="620" d="M-33 -328q0 49 20.5 93.5t54.5 84t77 75.5t90 69l-47 6l258 1470q78 14 151 15q35 0 73 -3t77 -12l-258 -1470q-31 -18 -72 -49t-75.5 -66t-59.5 -73.5t-25 -73.5q0 -68 74 -68q12 0 34.5 2t61.5 15q12 -20 19.5 -50t7.5 -61q0 -10 -1 -19.5t-3 -19.5 q-37 -14 -94.5 -23.5t-116.5 -9.5q-49 0 -94 8.5t-79 29t-53.5 52t-19.5 78.5z" />
<glyph unicode="&#x12f;" horiz-adv-x="638" d="M-12 -328q0 49 20.5 93.5t55 84t78.5 76.5t91 70q-10 0 -17 1t-17 3l147 838h-129q0 6 -1 12t-1 14q0 53 10.5 99.5t30.5 95.5h414l-187 -1059q-31 -18 -71.5 -49t-75.5 -66t-59.5 -73.5t-24.5 -73.5q0 -68 74 -68q12 0 34.5 2t61.5 15q12 -20 19.5 -50t7.5 -61 q0 -10 -1.5 -19.5t-3.5 -19.5q-37 -14 -94 -23.5t-117 -9.5q-49 0 -94 8.5t-78.5 29t-53 52t-19.5 78.5zM406 1237q-2 72 9 136.5t36 135.5q37 8 77.5 11.5t73.5 3.5t73 -3t75 -12q0 -72 -12.5 -137t-37.5 -135q-37 -6 -76.5 -8t-72.5 -2q-31 0 -71.5 2t-73.5 8z" />
<glyph unicode="&#x130;" horiz-adv-x="620" d="M162 0l258 1470q78 14 151 15q35 0 73 -3t77 -12l-258 -1470q-84 -12 -154 -12q-74 0 -147 12zM455 1579q-4 72 8 136.5t37 135.5q37 8 78 11.5t73 3.5q33 0 73 -3t75 -12q0 -72 -12.5 -137t-36.5 -135q-37 -6 -77 -8t-73 -2q-31 0 -71.5 2t-73.5 8z" />
<glyph unicode="&#x131;" horiz-adv-x="638" d="M199 0l147 838h-129q0 6 -1 12t-1 14q0 53 10.5 99.5t30.5 95.5h414l-187 -1059q-78 -12 -147 -12q-63 0 -137 12z" />
<glyph unicode="&#x132;" horiz-adv-x="1529" d="M162 0l258 1470q78 14 151 15q35 0 73 -3t77 -12l-258 -1470q-84 -12 -154 -12q-74 0 -147 12zM721 2q2 55 9 120.5t38 127.5q23 -6 59.5 -12.5t75.5 -6.5q35 0 69.5 5.5t64.5 26t52.5 60t34.5 111.5l137 785h-231q2 29 5 62.5t9 66.5q4 33 12.5 64.5t18.5 60.5h530 l-190 -1082q-41 -225 -167 -320.5t-329 -95.5q-51 0 -102 7.5t-96 19.5z" />
<glyph unicode="&#x133;" horiz-adv-x="1277" d="M199 0l147 838h-129q0 6 -1 12t-1 14q0 53 10.5 99.5t30.5 95.5h414l-187 -1059q-78 -12 -147 -12q-63 0 -137 12zM406 1237q-2 72 9 136.5t36 135.5q37 8 77.5 11.5t73.5 3.5t73 -3t75 -12q0 -72 -12.5 -137t-37.5 -135q-37 -6 -76.5 -8t-72.5 -2q-31 0 -71.5 2t-73.5 8 zM457 -432q0 92 43 170q23 -6 52.5 -10t53.5 -4q37 0 71 7t62.5 28.5t50 60.5t33.5 102l162 916h-129q0 8 -1 15t-1 15q0 47 11.5 94.5t29.5 96.5h414l-209 -1188q-35 -197 -158 -284t-303 -87q-94 0 -180 23q-2 12 -2 23.5v21.5zM1047 1243q-4 66 8 130.5t37 129.5 q41 10 80.5 15.5t70.5 5.5q29 0 68 -5.5t76 -15.5q0 -61 -10.5 -123.5t-35.5 -134.5q-41 -10 -81.5 -14t-69.5 -4q-31 0 -69.5 3t-73.5 13z" />
<glyph unicode="&#x134;" horiz-adv-x="854" d="M72 2q2 55 9 120.5t38 127.5q23 -6 59.5 -12.5t75.5 -6.5q35 0 69.5 5.5t64.5 26t52.5 60t34.5 111.5l137 785h-231q2 29 5 62.5t9 66.5q4 33 12.5 64.5t18.5 60.5h530l-190 -1082q-41 -225 -167 -320.5t-329 -95.5q-51 0 -102 7.5t-96 19.5zM381 1599l245 224q35 4 82 7 t90 3q27 0 69 -2t81 -10l155 -222q-49 -12 -127 -12q-35 0 -74.5 3t-72.5 12l-61 100l-105 -100q-29 -8 -68.5 -11.5t-76.5 -3.5q-82 0 -137 12z" />
<glyph unicode="&#x135;" horiz-adv-x="638" d="M-182 -432q0 92 43 170q23 -6 52.5 -10t53.5 -4q37 0 71 7t62.5 28.5t50 60.5t33.5 102l162 916h-129q0 8 -1 15t-1 15q0 47 11.5 94.5t29.5 96.5h414l-209 -1188q-35 -197 -158 -284t-303 -87q-94 0 -180 23q-2 12 -2 23.5v21.5zM137 1219l246 254q35 4 82 7t90 3 q27 0 68.5 -2t80.5 -11l156 -251q-49 -12 -127 -13q-35 0 -74 3t-72 12l-61 131l-104 -131q-29 -8 -70 -11.5t-78 -3.5q-82 0 -137 13z" />
<glyph unicode="&#x136;" horiz-adv-x="1230" d="M162 0l260 1473q41 8 78 10t75 2q35 0 70 -2t76 -10l-260 -1473q-80 -12 -152 -12q-37 0 -71.5 3t-75.5 9zM413 -487l131 348q35 8 74 11t74 3q72 0 135 -14l-160 -350q-29 -6 -64.5 -9.5t-64.5 -3.5t-60.5 3t-64.5 12zM618 741l508 732q51 10 90 11t70 1q35 0 82 -3 t88 -9l-524 -732l280 -741q-47 -8 -88 -10t-69 -2q-33 0 -72 2t-86 10z" />
<glyph unicode="&#x137;" horiz-adv-x="1105" d="M154 0l192 1100q37 215 37 325q0 23 -1 38.5t-3 33.5q35 6 80 9t78 3q59 0 131 -12q10 -31 10 -78q0 -90 -25 -219l-211 -1200q-74 -12 -149 -12q-70 0 -139 12zM325 -487l131 348q35 8 74 11t74 3q72 0 135 -14l-160 -350q-29 -6 -64.5 -9.5t-64.5 -3.5t-60.5 3 t-64.5 12zM582 555l215 283q59 78 79.5 133t22.5 88q43 8 81 10t79 2q37 0 79 -3t76 -9q-6 -53 -37.5 -108.5t-91.5 -139.5l-206 -258l198 -553q-43 -4 -78.5 -7t-72.5 -3q-39 0 -74 2t-76 8z" />
<glyph unicode="&#x138;" horiz-adv-x="1105" d="M154 0l186 1059q35 6 80 9t78 3q59 0 131 -12l-187 -1059q-74 -12 -149 -12q-70 0 -139 12zM582 555l215 283q59 78 79.5 133t22.5 88q43 8 81 10t79 2q37 0 79 -3t76 -9q-6 -53 -37.5 -108.5t-91.5 -139.5l-206 -258l198 -553q-43 -4 -78.5 -7t-72.5 -3q-39 0 -74 2 t-76 8z" />
<glyph unicode="&#x139;" horiz-adv-x="1001" d="M162 0l258 1473q78 14 151 14q72 0 144 -14l-213 -1215h483q0 -35 -4 -66.5t-8 -60.5q-6 -33 -14.5 -64.5t-18.5 -66.5h-778zM399 1591l227 219q25 4 71 7.5t93 3.5q53 0 105.5 -3t75.5 -8l-291 -221q-20 -4 -59.5 -6t-80.5 -2t-83 3t-58 7z" />
<glyph unicode="&#x13a;" horiz-adv-x="663" d="M188 272q0 29 4.5 61t10.5 66l135 701q23 109 32 189.5t9 135.5q0 23 -1 38.5t-3 33.5q35 6 80 9t77 3q59 0 132 -12q10 -31 10 -78q0 -43 -8.5 -98t-20.5 -121l-158 -823q-6 -35 -6 -58q0 -33 9.5 -51t23.5 -28.5t32.5 -13.5t37.5 -3q8 0 30.5 3t40.5 10 q10 -35 17.5 -76t7.5 -84q0 -16 -1 -30.5t-3 -31.5q-31 -12 -80 -19t-109 -7q-139 0 -219 68.5t-80 215.5zM336 1591l227 219q25 4 71 7.5t93 3.5q53 0 105.5 -3t75.5 -8l-291 -221q-20 -4 -59.5 -6t-80.5 -2t-83 3t-58 7z" />
<glyph unicode="&#x13b;" horiz-adv-x="1001" d="M162 0l258 1473q78 14 151 14q72 0 144 -14l-213 -1215h483q0 -35 -4 -66.5t-8 -60.5q-6 -33 -14.5 -64.5t-18.5 -66.5h-778zM268 -487l131 348q35 8 74 11t74 3q72 0 135 -14l-160 -350q-29 -6 -64.5 -9.5t-64.5 -3.5t-60.5 3t-64.5 12z" />
<glyph unicode="&#x13c;" horiz-adv-x="663" d="M86 -487l131 348q35 8 74 11t74 3q72 0 135 -14l-160 -350q-29 -6 -64.5 -9.5t-64.5 -3.5t-60.5 3t-64.5 12zM188 272q0 29 4.5 61t10.5 66l135 701q23 109 32 189.5t9 135.5q0 23 -1 38.5t-3 33.5q35 6 80 9t77 3q59 0 132 -12q10 -31 10 -78q0 -43 -8.5 -98t-20.5 -121 l-158 -823q-6 -35 -6 -58q0 -33 9.5 -51t23.5 -28.5t32.5 -13.5t37.5 -3q8 0 30.5 3t40.5 10q10 -35 17.5 -76t7.5 -84q0 -16 -1 -30.5t-3 -31.5q-31 -12 -80 -19t-109 -7q-139 0 -219 68.5t-80 215.5z" />
<glyph unicode="&#x13d;" horiz-adv-x="1001" d="M162 0l258 1473q78 14 151 14q72 0 144 -14l-213 -1215h483q0 -35 -4 -66.5t-8 -60.5q-6 -33 -14.5 -64.5t-18.5 -66.5h-778zM817 1067l72 413q12 2 51 4t86 2q33 0 73 -2t56 -4l-109 -413q-16 -4 -46.5 -6.5t-61.5 -2.5q-35 0 -68.5 2t-52.5 7z" />
<glyph unicode="&#x13e;" horiz-adv-x="753" d="M188 272q0 29 4.5 61t10.5 66l135 701q23 109 32 189.5t9 135.5q0 23 -1 38.5t-3 33.5q35 6 80 9t77 3q59 0 132 -12q10 -31 10 -78q0 -43 -8.5 -98t-20.5 -121l-158 -823q-6 -35 -6 -58q0 -33 9.5 -51t23.5 -28.5t32.5 -13.5t37.5 -3q8 0 30.5 3t40.5 10 q10 -35 17.5 -76t7.5 -84q0 -16 -1 -30.5t-3 -31.5q-31 -12 -80 -19t-109 -7q-139 0 -219 68.5t-80 215.5zM731 1092l72 413q12 2 51 4t86 2q33 0 73 -2t56 -4l-109 -413q-16 -4 -46.5 -6.5t-61.5 -2.5q-35 0 -68.5 2t-52.5 7z" />
<glyph unicode="&#x13f;" horiz-adv-x="1001" d="M162 0l258 1473q78 14 151 14q72 0 144 -14l-213 -1215h483q0 -35 -4 -66.5t-8 -60.5q-6 -33 -14.5 -64.5t-18.5 -66.5h-778zM792 621q-4 72 8.5 136.5t36.5 135.5q37 8 78 11.5t74 3.5t73 -3t74 -12q0 -72 -12 -137t-37 -135q-37 -6 -77 -8t-72 -2q-31 0 -72 2t-74 8z " />
<glyph unicode="&#x140;" horiz-adv-x="827" d="M188 272q0 29 4.5 61t10.5 66l135 701q23 109 32 189.5t9 135.5q0 23 -1 38.5t-3 33.5q35 6 80 9t77 3q59 0 132 -12q10 -31 10 -78q0 -43 -8.5 -98t-20.5 -121l-158 -823q-6 -35 -6 -58q0 -33 9.5 -51t23.5 -28.5t32.5 -13.5t37.5 -3q8 0 30.5 3t40.5 10 q10 -35 17.5 -76t7.5 -84q0 -16 -1 -30.5t-3 -31.5q-31 -12 -80 -19t-109 -7q-139 0 -219 68.5t-80 215.5zM655 621q-4 72 8.5 136.5t36.5 135.5q37 8 78 11.5t74 3.5t73 -3t74 -12q0 -72 -12 -137t-37 -135q-37 -6 -77 -8t-72 -2q-31 0 -72 2t-74 8z" />
<glyph unicode="&#x141;" horiz-adv-x="999" d="M78 510q-2 57 8 126t33 122l188 71l111 644q78 14 151 14q72 0 144 -14l-99 -560l271 103q2 -59 -8.5 -126t-32.5 -122l-273 -104l-71 -406h483q0 -35 -4 -66.5t-8 -60.5q-6 -33 -14.5 -64.5t-18.5 -66.5h-778l102 580z" />
<glyph unicode="&#x142;" horiz-adv-x="690" d="M137 584q-4 45 0 107.5t25 115.5l162 72l41 221q20 109 30.5 189.5t10.5 135.5q0 23 -1.5 38.5t-3.5 33.5q35 6 80 9t78 3q59 0 131 -12q10 -31 10 -78q0 -43 -8 -98t-20 -121l-45 -227l147 65q10 -121 -29 -223l-161 -74l-70 -364q-6 -35 -6 -58q0 -33 9 -51t23.5 -28.5 t33 -13.5t36.5 -3q8 0 31 3t41 10q10 -35 17.5 -76t7.5 -84q0 -16 -1 -30.5t-4 -31.5q-31 -12 -80 -19t-108 -7q-139 0 -219 68.5t-80 215.5q0 29 4 61t10 66l50 248z" />
<glyph unicode="&#x143;" horiz-adv-x="1363" d="M162 0l258 1473q35 8 66.5 10t60.5 2q61 0 123 -12l362 -936l162 936q74 12 145 12q33 0 64 -2t61 -10l-260 -1473q-72 -12 -125 -12q-57 0 -121 12l-364 934l-162 -934q-35 -6 -70.5 -9t-70.5 -3q-66 0 -129 12zM786 1591l227 219q25 4 71 7.5t93 3.5q53 0 105.5 -3 t75.5 -8l-291 -221q-20 -4 -59.5 -6t-80.5 -2t-83 3t-58 7z" />
<glyph unicode="&#x144;" horiz-adv-x="1198" d="M150 0l110 604q23 129 34 228.5t11 154.5v38t-2 34q68 12 135 12q31 0 61.5 -3t65.5 -9q4 -16 8.5 -39t4.5 -68q0 -18 -1.5 -36.5t-5.5 -45.5q25 43 62 82t84 68t101 45t110 16q123 0 191.5 -62.5t68.5 -207.5q0 -31 -4 -65.5t-10 -73.5l-119 -672q-78 -12 -150 -12 t-141 12l115 649q8 41 8 78q0 61 -26.5 86t-76.5 25q-29 0 -64.5 -14.5t-72.5 -60.5t-71.5 -130t-59.5 -221l-76 -412q-80 -12 -149 -12q-72 0 -141 12zM654 1221l209 252q82 12 184 12q53 0 91 -3t79 -9l-289 -252q-27 -4 -63.5 -8.5t-77.5 -4.5q-66 0 -133 13z" />
<glyph unicode="&#x145;" horiz-adv-x="1363" d="M162 0l258 1473q35 8 66.5 10t60.5 2q61 0 123 -12l362 -936l162 936q74 12 145 12q33 0 64 -2t61 -10l-260 -1473q-72 -12 -125 -12q-57 0 -121 12l-364 934l-162 -934q-35 -6 -70.5 -9t-70.5 -3q-66 0 -129 12zM450 -487l131 348q35 8 74 11t74 3q72 0 135 -14 l-160 -350q-29 -6 -64.5 -9.5t-64.5 -3.5t-60.5 3t-64.5 12z" />
<glyph unicode="&#x146;" horiz-adv-x="1198" d="M150 0l110 604q23 129 34 228.5t11 154.5v38t-2 34q68 12 135 12q31 0 61.5 -3t65.5 -9q4 -16 8.5 -39t4.5 -68q0 -18 -1.5 -36.5t-5.5 -45.5q25 43 62 82t84 68t101 45t110 16q123 0 191.5 -62.5t68.5 -207.5q0 -31 -4 -65.5t-10 -73.5l-119 -672q-78 -12 -150 -12 t-141 12l115 649q8 41 8 78q0 61 -26.5 86t-76.5 25q-29 0 -64.5 -14.5t-72.5 -60.5t-71.5 -130t-59.5 -221l-76 -412q-80 -12 -149 -12q-72 0 -141 12zM332 -487l131 348q35 8 74 11t74 3q72 0 135 -14l-160 -350q-29 -6 -64.5 -9.5t-64.5 -3.5t-60.5 3t-64.5 12z" />
<glyph unicode="&#x147;" horiz-adv-x="1363" d="M162 0l258 1473q35 8 66.5 10t60.5 2q61 0 123 -12l362 -936l162 936q74 12 145 12q33 0 64 -2t61 -10l-260 -1473q-72 -12 -125 -12q-57 0 -121 12l-364 934l-162 -934q-35 -6 -70.5 -9t-70.5 -3q-66 0 -129 12zM654 1821q49 12 126 12q35 0 75 -3t73 -11l61 -101 l105 101q29 8 68.5 11t76.5 3q82 0 137 -12l-245 -224q-35 -4 -82 -7t-90 -3q-27 0 -69 2t-81 10z" />
<glyph unicode="&#x148;" horiz-adv-x="1198" d="M150 0l110 604q23 129 34 228.5t11 154.5v38t-2 34q68 12 135 12q31 0 61.5 -3t65.5 -9q4 -16 8.5 -39t4.5 -68q0 -18 -1.5 -36.5t-5.5 -45.5q25 43 62 82t84 68t101 45t110 16q123 0 191.5 -62.5t68.5 -207.5q0 -31 -4 -65.5t-10 -73.5l-119 -672q-78 -12 -150 -12 t-141 12l115 649q8 41 8 78q0 61 -26.5 86t-76.5 25q-29 0 -64.5 -14.5t-72.5 -60.5t-71.5 -130t-59.5 -221l-76 -412q-80 -12 -149 -12q-72 0 -141 12zM501 1470q49 12 127 13q35 0 75 -3t73 -12l61 -131l105 131q29 8 68.5 11.5t76.5 3.5q82 0 137 -13l-245 -253 q-35 -4 -82 -7.5t-90 -3.5q-27 0 -69 2t-81 11z" />
<glyph unicode="&#x149;" horiz-adv-x="1198" d="M150 0l110 604q23 129 34 228.5t11 154.5v38t-2 34q68 12 135 12q31 0 61.5 -3t65.5 -9q4 -16 8.5 -39t4.5 -68q0 -18 -1.5 -36.5t-5.5 -45.5q25 43 62 82t84 68t101 45t110 16q123 0 191.5 -62.5t68.5 -207.5q0 -31 -4 -65.5t-10 -73.5l-119 -672q-78 -12 -150 -12 t-141 12l115 649q8 41 8 78q0 61 -26.5 86t-76.5 25q-29 0 -64.5 -14.5t-72.5 -60.5t-71.5 -130t-59.5 -221l-76 -412q-80 -12 -149 -12q-72 0 -141 12zM219 1174l139 323q29 6 62.5 9t66.5 3t69.5 -3t63.5 -9l-172 -323q-29 -6 -57.5 -8.5t-59.5 -2.5t-57.5 2t-54.5 9z" />
<glyph unicode="&#x14a;" horiz-adv-x="1363" d="M162 0l258 1473q35 8 66.5 10t60.5 2q61 0 123 -12l362 -936l162 936q74 12 145 12q33 0 64 -2t61 -10l-274 -1555q-41 -225 -167 -320.5t-329 -95.5q-51 0 -102 7.5t-96 19.5q2 55 9 120.5t38 127.5q23 -6 59.5 -12.5t75.5 -6.5q35 0 69.5 5.5t64.5 26t52.5 60 t34.5 111.5l23 133l-328 840l-162 -934q-35 -6 -70.5 -9t-70.5 -3q-66 0 -129 12z" />
<glyph unicode="&#x14b;" horiz-adv-x="1198" d="M150 0l110 604q23 129 34 228.5t11 154.5v38t-2 34q68 12 135 12q31 0 61.5 -3t65.5 -9q4 -16 8.5 -39t4.5 -68q0 -18 -1.5 -36.5t-5.5 -45.5q25 43 62 82t84 68t101 45t110 16q123 0 191.5 -62.5t68.5 -207.5q0 -31 -4 -65.5t-10 -73.5l-142 -801q-35 -197 -157.5 -284 t-303.5 -87q-94 0 -180 23q-2 12 -2 23.5v21.5q0 92 43 170q23 -6 52.5 -10t54.5 -4q37 0 70.5 7t61 28.5t49 60.5t32.5 102l127 727q8 41 8 78q0 61 -26.5 86t-76.5 25q-29 0 -64.5 -14.5t-72.5 -60.5t-71.5 -130t-59.5 -221l-76 -412q-80 -12 -149 -12q-72 0 -141 12z" />
<glyph unicode="&#x14c;" horiz-adv-x="1425" d="M205 524q0 111 19.5 226.5t60.5 224t102.5 204t146 166t192.5 111.5t239 41q129 0 225 -39t158.5 -110.5t93.5 -175t31 -234.5q0 -111 -19.5 -226.5t-60.5 -222t-103.5 -200.5t-146.5 -164t-191.5 -110t-238.5 -40q-260 0 -384 145.5t-124 403.5zM516 510 q0 -285 223 -285q80 0 142.5 36t108.5 94.5t79 135t52.5 157.5t28.5 161t9 145q0 287 -221 287q-80 0 -142.5 -36t-109.5 -94t-80 -135t-52 -158t-28.5 -160.5t-9.5 -147.5zM766 1606q-8 104 35 206h542q8 -104 -34 -206h-543z" />
<glyph unicode="&#x14d;" horiz-adv-x="1142" d="M160 389q0 123 36.5 247t110.5 223t185.5 161.5t261.5 62.5q213 0 312 -112.5t99 -304.5q0 -127 -35.5 -250t-109.5 -221.5t-186.5 -159t-264.5 -60.5q-211 0 -310 111t-99 303zM451 379q0 -182 145 -182q78 0 131 49t87 121.5t48.5 153.5t14.5 147q0 188 -154 188 q-78 0 -129 -51t-84 -125t-46 -156t-13 -145zM552 1292.5q1 24.5 5 50.5q8 51 30 105h543q2 -27 1 -51.5t-5 -50.5q-10 -53 -31 -105h-542q-2 27 -1 51.5z" />
<glyph unicode="&#x14e;" horiz-adv-x="1425" d="M205 524q0 111 19.5 226.5t60.5 224t102.5 204t146 166t192.5 111.5t239 41q129 0 225 -39t158.5 -110.5t93.5 -175t31 -234.5q0 -111 -19.5 -226.5t-60.5 -222t-103.5 -200.5t-146.5 -164t-191.5 -110t-238.5 -40q-260 0 -384 145.5t-124 403.5zM516 510 q0 -285 223 -285q80 0 142.5 36t108.5 94.5t79 135t52.5 157.5t28.5 161t9 145q0 287 -221 287q-80 0 -142.5 -36t-109.5 -94t-80 -135t-52 -158t-28.5 -160.5t-9.5 -147.5zM692 1821q31 8 60.5 11t58.5 3q31 0 58.5 -4t56.5 -12q0 -16 3 -33t14 -30t31.5 -21.5t55.5 -8.5 q66 0 92.5 26t40.5 69q37 8 63.5 11t59.5 3q27 0 54.5 -3t54.5 -11q-20 -78 -62.5 -129.5t-94.5 -80t-109.5 -39.5t-110.5 -11q-66 0 -123 13t-102 44t-72 80t-29 123z" />
<glyph unicode="&#x14f;" horiz-adv-x="1142" d="M160 389q0 123 36.5 247t110.5 223t185.5 161.5t261.5 62.5q213 0 312 -112.5t99 -304.5q0 -127 -35.5 -250t-109.5 -221.5t-186.5 -159t-264.5 -60.5q-211 0 -310 111t-99 303zM451 379q0 -182 145 -182q78 0 131 49t87 121.5t48.5 153.5t14.5 147q0 188 -154 188 q-78 0 -129 -51t-84 -125t-46 -156t-13 -145zM467 1481q31 8 61.5 11t58.5 3q31 0 55.5 -3t53.5 -11q0 -16 3 -36t14.5 -37t34 -28.5t59.5 -11.5q74 0 97 32t36 79q37 8 63.5 12t59.5 4q27 0 55 -3t55 -11q-18 -88 -59 -142.5t-93.5 -85t-111.5 -42t-115 -11.5 q-57 0 -115.5 12.5t-106.5 44t-76.5 86t-28.5 138.5z" />
<glyph unicode="&#x150;" horiz-adv-x="1425" d="M205 524q0 111 19.5 226.5t60.5 224t102.5 204t146 166t192.5 111.5t239 41q129 0 225 -39t158.5 -110.5t93.5 -175t31 -234.5q0 -111 -19.5 -226.5t-60.5 -222t-103.5 -200.5t-146.5 -164t-191.5 -110t-238.5 -40q-260 0 -384 145.5t-124 403.5zM516 510 q0 -285 223 -285q80 0 142.5 36t108.5 94.5t79 135t52.5 157.5t28.5 161t9 145q0 287 -221 287q-80 0 -142.5 -36t-109.5 -94t-80 -135t-52 -158t-28.5 -160.5t-9.5 -147.5zM602 1587l209 252q82 12 185 12q53 0 91 -3t79 -9l-289 -252q-27 -4 -64 -8t-77 -4q-66 0 -134 12z M1053 1587l209 252q82 12 184 12q53 0 91 -3t79 -9l-289 -252q-27 -4 -63.5 -8t-77.5 -4q-66 0 -133 12z" />
<glyph unicode="&#x151;" horiz-adv-x="1142" d="M160 389q0 123 36.5 247t110.5 223t185.5 161.5t261.5 62.5q213 0 312 -112.5t99 -304.5q0 -127 -35.5 -250t-109.5 -221.5t-186.5 -159t-264.5 -60.5q-211 0 -310 111t-99 303zM409 1221l187 252q80 12 160 12q76 0 153 -12l-229 -252q-27 -4 -63 -8.5t-77 -4.5 q-63 0 -131 13zM451 379q0 -182 145 -182q78 0 131 49t87 121.5t48.5 153.5t14.5 147q0 188 -154 188q-78 0 -129 -51t-84 -125t-46 -156t-13 -145zM850 1221l186 252q80 12 160 12q76 0 153 -12l-229 -252q-27 -4 -62.5 -8.5t-76.5 -4.5q-63 0 -131 13z" />
<glyph unicode="&#x152;" horiz-adv-x="1841" d="M205 532q0 168 45 339t137 310.5t233.5 227.5t335.5 88q123 0 220 -24h806q0 -8 1.5 -16.5t1.5 -16.5q0 -53 -12.5 -108.5t-35.5 -112.5h-507l-56 -320h404q0 -123 -45 -256h-404l-69 -389h522q0 -8 1 -15.5t1 -15.5q0 -55 -13.5 -109.5t-31.5 -113.5h-815 q-47 -12 -104.5 -18.5t-112.5 -6.5q-129 0 -224.5 39t-157 111t-91 175t-29.5 232zM516 537q0 -162 52.5 -242t168.5 -80q59 0 118.5 11.5t107.5 37.5l167 957q-90 31 -176 30q-84 0 -149.5 -35.5t-113.5 -95t-82 -135.5t-54 -155.5t-29.5 -156.5t-9.5 -136z" />
<glyph unicode="&#x153;" horiz-adv-x="1718" d="M160 389q0 123 36.5 247t108.5 223t180.5 161.5t253.5 62.5q131 0 210 -53t116 -129q70 72 167 127t234 55q59 0 113.5 -16t95.5 -50t65.5 -83t24.5 -115q0 -92 -43 -159.5t-114.5 -114.5t-162.5 -77t-190 -44l-137 -23q12 -98 65.5 -146t155.5 -48q82 0 144.5 17.5 t132.5 45.5q33 -41 44 -99t11 -124q-35 -16 -81 -29.5t-95 -22.5t-98 -14.5t-88 -5.5q-152 0 -238 55.5t-127 129.5q-29 -33 -66.5 -66t-88 -59.5t-112 -43t-134.5 -16.5q-190 0 -286.5 111t-96.5 303zM451 379q0 -182 145 -182q78 0 131 49t87 121.5t48.5 153.5t14.5 147 q0 188 -154 188q-78 0 -129 -51t-84 -125t-46 -156t-13 -145zM1128 594l107 16q78 12 127 32t77.5 43.5t39 48t10.5 48.5q0 39 -25.5 63.5t-68.5 24.5q-53 0 -97.5 -23.5t-77 -62.5t-56 -89t-36.5 -101z" />
<glyph unicode="&#x154;" horiz-adv-x="1206" d="M162 0l258 1470q86 16 158.5 21.5t148.5 5.5q104 0 202.5 -17.5t176.5 -61.5t125 -120.5t47 -193.5q0 -94 -27.5 -170t-69.5 -136.5t-91.5 -102.5t-94.5 -68l-24 -15l219 -612q-86 -12 -166 -12t-150 12l-227 684l35 21q31 18 80 43.5t96 67.5t81 101.5t34 143.5 q0 53 -18.5 89t-50.5 58.5t-72.5 31.5t-83.5 9t-70 -6l-219 -1243q-41 -4 -77 -7t-71 -3q-33 0 -71.5 2t-77.5 8zM680 1591l227 219q25 4 71 7.5t93 3.5q53 0 105.5 -3t75.5 -8l-291 -221q-20 -4 -59.5 -6t-80.5 -2t-83 3t-58 7z" />
<glyph unicode="&#x155;" horiz-adv-x="806" d="M150 0l110 604q23 129 34 228.5t11 154.5v38t-2 34q68 12 135 12q31 0 61.5 -3t65.5 -9q4 -16 8.5 -39t4.5 -68q0 -18 -1.5 -36.5t-5.5 -45.5q20 37 51 73t69 64.5t84 46t102 17.5q43 0 73 -10q2 -8 2 -16.5v-18.5q0 -57 -14 -118.5t-39 -102.5q-12 2 -26.5 4t-36.5 2 q-84 0 -138.5 -28.5t-89.5 -81t-55.5 -126t-36.5 -163.5l-76 -412q-80 -12 -149 -12q-72 0 -141 12zM514 1221l209 252q82 12 184 12q53 0 91 -3t79 -9l-289 -252q-27 -4 -63.5 -8.5t-77.5 -4.5q-66 0 -133 13z" />
<glyph unicode="&#x156;" horiz-adv-x="1206" d="M162 0l258 1470q86 16 158.5 21.5t148.5 5.5q104 0 202.5 -17.5t176.5 -61.5t125 -120.5t47 -193.5q0 -94 -27.5 -170t-69.5 -136.5t-91.5 -102.5t-94.5 -68l-24 -15l219 -612q-86 -12 -166 -12t-150 12l-227 684l35 21q31 18 80 43.5t96 67.5t81 101.5t34 143.5 q0 53 -18.5 89t-50.5 58.5t-72.5 31.5t-83.5 9t-70 -6l-219 -1243q-41 -4 -77 -7t-71 -3q-33 0 -71.5 2t-77.5 8zM399 -487l131 348q35 8 74 11t74 3q72 0 135 -14l-160 -350q-29 -6 -64.5 -9.5t-64.5 -3.5t-60.5 3t-64.5 12z" />
<glyph unicode="&#x157;" horiz-adv-x="806" d="M2 -487l131 348q35 8 74 11t74 3q72 0 135 -14l-160 -350q-29 -6 -64.5 -9.5t-64.5 -3.5t-60.5 3t-64.5 12zM150 0l110 604q23 129 34 228.5t11 154.5v38t-2 34q68 12 135 12q31 0 61.5 -3t65.5 -9q4 -16 8.5 -39t4.5 -68q0 -18 -1.5 -36.5t-5.5 -45.5q20 37 51 73 t69 64.5t84 46t102 17.5q43 0 73 -10q2 -8 2 -16.5v-18.5q0 -57 -14 -118.5t-39 -102.5q-12 2 -26.5 4t-36.5 2q-84 0 -138.5 -28.5t-89.5 -81t-55.5 -126t-36.5 -163.5l-76 -412q-80 -12 -149 -12q-72 0 -141 12z" />
<glyph unicode="&#x158;" horiz-adv-x="1206" d="M162 0l258 1470q86 16 158.5 21.5t148.5 5.5q104 0 202.5 -17.5t176.5 -61.5t125 -120.5t47 -193.5q0 -94 -27.5 -170t-69.5 -136.5t-91.5 -102.5t-94.5 -68l-24 -15l219 -612q-86 -12 -166 -12t-150 12l-227 684l35 21q31 18 80 43.5t96 67.5t81 101.5t34 143.5 q0 53 -18.5 89t-50.5 58.5t-72.5 31.5t-83.5 9t-70 -6l-219 -1243q-41 -4 -77 -7t-71 -3q-33 0 -71.5 2t-77.5 8zM515 1821q49 12 126 12q35 0 75 -3t73 -11l61 -101l105 101q29 8 68.5 11t76.5 3q82 0 137 -12l-245 -224q-35 -4 -82 -7t-90 -3q-27 0 -69 2t-81 10z" />
<glyph unicode="&#x159;" horiz-adv-x="806" d="M150 0l110 604q23 129 34 228.5t11 154.5v38t-2 34q68 12 135 12q31 0 61.5 -3t65.5 -9q4 -16 8.5 -39t4.5 -68q0 -18 -1.5 -36.5t-5.5 -45.5q20 37 51 73t69 64.5t84 46t102 17.5q43 0 73 -10q2 -8 2 -16.5v-18.5q0 -57 -14 -118.5t-39 -102.5q-12 2 -26.5 4t-36.5 2 q-84 0 -138.5 -28.5t-89.5 -81t-55.5 -126t-36.5 -163.5l-76 -412q-80 -12 -149 -12q-72 0 -141 12zM346 1470q49 12 127 13q35 0 75 -3t73 -12l61 -131l105 131q29 8 68.5 11.5t76.5 3.5q82 0 137 -13l-245 -253q-35 -4 -82 -7.5t-90 -3.5q-27 0 -69 2t-81 11z" />
<glyph unicode="&#x15a;" horiz-adv-x="1087" d="M78 47q8 61 29.5 123.5t52.5 130.5q78 -29 158.5 -49.5t156.5 -20.5q63 0 117.5 14.5t94.5 43t62.5 69.5t22.5 97q0 41 -18.5 71.5t-47 55t-67.5 46t-78 46.5q-131 78 -208 161t-77 195q0 111 39 198t111 146.5t173 91t228 31.5q113 0 195 -16.5t172 -50.5 q-8 -55 -28.5 -117t-57.5 -121q-59 29 -121.5 47t-163.5 18q-37 0 -79 -6t-75.5 -23.5t-56 -48t-22.5 -79.5q0 -70 50 -115t128 -90q70 -39 129 -78t104.5 -84t71 -101.5t25.5 -129.5q0 -104 -38 -200.5t-117 -168.5t-199.5 -115t-286.5 -43q-193 0 -379 72zM631 1591 l227 219q25 4 71 7.5t93 3.5q53 0 105.5 -3t75.5 -8l-291 -221q-20 -4 -59.5 -6t-80.5 -2t-83 3t-58 7z" />
<glyph unicode="&#x15b;" horiz-adv-x="911" d="M84 29q6 119 61 221q63 -29 130 -40t128 -11q31 0 66 6t63.5 20.5t48 40t19.5 62.5q0 41 -28.5 66.5t-79.5 45.5l-66 27q-33 12 -65.5 31.5t-60.5 49.5t-45 73t-17 102q0 86 33.5 152.5t94 112.5t141.5 70.5t175 24.5q33 0 72 -3t78.5 -9t77.5 -17.5t69 -27.5 q-4 -53 -19.5 -105.5t-50.5 -105.5q-43 23 -104.5 37t-116.5 14q-23 0 -50.5 -4t-52 -14t-41 -30.5t-16.5 -51.5q0 -61 78 -96l80 -35q39 -16 76 -38t65.5 -52.5t46 -71.5t17.5 -96q0 -102 -41 -177t-110.5 -125t-165 -75t-201.5 -25q-66 0 -146 13.5t-143 40.5zM494 1221 l209 252q82 12 184 12q53 0 91 -3t79 -9l-289 -252q-27 -4 -63.5 -8.5t-77.5 -4.5q-66 0 -133 13z" />
<glyph unicode="&#x15c;" horiz-adv-x="1087" d="M78 47q8 61 29.5 123.5t52.5 130.5q78 -29 158.5 -49.5t156.5 -20.5q63 0 117.5 14.5t94.5 43t62.5 69.5t22.5 97q0 41 -18.5 71.5t-47 55t-67.5 46t-78 46.5q-131 78 -208 161t-77 195q0 111 39 198t111 146.5t173 91t228 31.5q113 0 195 -16.5t172 -50.5 q-8 -55 -28.5 -117t-57.5 -121q-59 29 -121.5 47t-163.5 18q-37 0 -79 -6t-75.5 -23.5t-56 -48t-22.5 -79.5q0 -70 50 -115t128 -90q70 -39 129 -78t104.5 -84t71 -101.5t25.5 -129.5q0 -104 -38 -200.5t-117 -168.5t-199.5 -115t-286.5 -43q-193 0 -379 72zM506 1599 l245 224q35 4 82 7t90 3q27 0 69 -2t81 -10l155 -222q-49 -12 -127 -12q-35 0 -74.5 3t-72.5 12l-61 100l-105 -100q-29 -8 -68.5 -11.5t-76.5 -3.5q-82 0 -137 12z" />
<glyph unicode="&#x15d;" horiz-adv-x="911" d="M84 29q6 119 61 221q63 -29 130 -40t128 -11q31 0 66 6t63.5 20.5t48 40t19.5 62.5q0 41 -28.5 66.5t-79.5 45.5l-66 27q-33 12 -65.5 31.5t-60.5 49.5t-45 73t-17 102q0 86 33.5 152.5t94 112.5t141.5 70.5t175 24.5q33 0 72 -3t78.5 -9t77.5 -17.5t69 -27.5 q-4 -53 -19.5 -105.5t-50.5 -105.5q-43 23 -104.5 37t-116.5 14q-23 0 -50.5 -4t-52 -14t-41 -30.5t-16.5 -51.5q0 -61 78 -96l80 -35q39 -16 76 -38t65.5 -52.5t46 -71.5t17.5 -96q0 -102 -41 -177t-110.5 -125t-165 -75t-201.5 -25q-66 0 -146 13.5t-143 40.5zM324 1219 l246 254q35 4 82 7t90 3q27 0 68.5 -2t80.5 -11l156 -251q-49 -12 -127 -13q-35 0 -74 3t-72 12l-61 131l-104 -131q-29 -8 -70 -11.5t-78 -3.5q-82 0 -137 13z" />
<glyph unicode="&#x15e;" horiz-adv-x="1087" d="M78 47q8 61 29.5 123.5t52.5 130.5q78 -29 158.5 -49.5t156.5 -20.5q63 0 117.5 14.5t94.5 43t62.5 69.5t22.5 97q0 41 -18.5 71.5t-47 55t-67.5 46t-78 46.5q-131 78 -208 161t-77 195q0 111 39 198t111 146.5t173 91t228 31.5q113 0 195 -16.5t172 -50.5 q-8 -55 -28.5 -117t-57.5 -121q-59 29 -121.5 47t-163.5 18q-37 0 -79 -6t-75.5 -23.5t-56 -48t-22.5 -79.5q0 -70 50 -115t128 -90q70 -39 129 -78t104.5 -84t71 -101.5t25.5 -129.5q0 -92 -30 -178t-90 -155t-153.5 -117t-220.5 -66l-51 -95q16 4 49 5q80 0 127 -43 t47 -123q0 -66 -27.5 -109t-71.5 -68.5t-100.5 -36t-111.5 -10.5q-59 0 -109.5 11.5t-68.5 25.5q8 33 21.5 67t35.5 64q35 -10 65.5 -17t61.5 -7q14 0 35.5 2t40 8t32 19.5t13.5 35.5q0 35 -27.5 47.5t-75.5 12.5q-29 0 -60.5 -4t-59.5 -15l-13 15l107 204h-6 q-193 0 -379 72z" />
<glyph unicode="&#x15f;" horiz-adv-x="911" d="M84 29q6 119 61 221q63 -29 130 -40t128 -11q31 0 66 6t63.5 20.5t48 40t19.5 62.5q0 41 -28.5 66.5t-79.5 45.5l-66 27q-33 12 -65.5 31.5t-60.5 49.5t-45 73t-17 102q0 86 33.5 152.5t94 112.5t141.5 70.5t175 24.5q33 0 72 -3t78.5 -9t77.5 -17.5t69 -27.5 q-4 -53 -19.5 -105.5t-50.5 -105.5q-43 23 -104.5 37t-116.5 14q-23 0 -50.5 -4t-52 -14t-41 -30.5t-16.5 -51.5q0 -61 78 -96l80 -35q39 -16 76 -38t65.5 -52.5t46 -71.5t17.5 -96q0 -86 -28.5 -152.5t-81 -116t-123 -80t-152.5 -42.5l-51 -95q16 4 49 5q80 0 127 -43 t47 -123q0 -66 -27.5 -109t-71.5 -68.5t-100.5 -36t-111.5 -10.5q-59 0 -109.5 11.5t-69.5 25.5q8 33 21.5 67t36.5 64q35 -10 65.5 -17t61.5 -7q14 0 35.5 2t40 8t32 19.5t13.5 35.5q0 35 -28 47.5t-75 12.5q-29 0 -60.5 -4t-60.5 -15l-12 15l107 204q-66 2 -143 15.5 t-138 38.5z" />
<glyph unicode="&#x160;" horiz-adv-x="1087" d="M78 47q8 61 29.5 123.5t52.5 130.5q78 -29 158.5 -49.5t156.5 -20.5q63 0 117.5 14.5t94.5 43t62.5 69.5t22.5 97q0 41 -18.5 71.5t-47 55t-67.5 46t-78 46.5q-131 78 -208 161t-77 195q0 111 39 198t111 146.5t173 91t228 31.5q113 0 195 -16.5t172 -50.5 q-8 -55 -28.5 -117t-57.5 -121q-59 29 -121.5 47t-163.5 18q-37 0 -79 -6t-75.5 -23.5t-56 -48t-22.5 -79.5q0 -70 50 -115t128 -90q70 -39 129 -78t104.5 -84t71 -101.5t25.5 -129.5q0 -104 -38 -200.5t-117 -168.5t-199.5 -115t-286.5 -43q-193 0 -379 72zM535 1821 q49 12 126 12q35 0 75 -3t73 -11l61 -101l105 101q29 8 68.5 11t76.5 3q82 0 137 -12l-245 -224q-35 -4 -82 -7t-90 -3q-27 0 -69 2t-81 10z" />
<glyph unicode="&#x161;" horiz-adv-x="911" d="M84 29q6 119 61 221q63 -29 130 -40t128 -11q31 0 66 6t63.5 20.5t48 40t19.5 62.5q0 41 -28.5 66.5t-79.5 45.5l-66 27q-33 12 -65.5 31.5t-60.5 49.5t-45 73t-17 102q0 86 33.5 152.5t94 112.5t141.5 70.5t175 24.5q33 0 72 -3t78.5 -9t77.5 -17.5t69 -27.5 q-4 -53 -19.5 -105.5t-50.5 -105.5q-43 23 -104.5 37t-116.5 14q-23 0 -50.5 -4t-52 -14t-41 -30.5t-16.5 -51.5q0 -61 78 -96l80 -35q39 -16 76 -38t65.5 -52.5t46 -71.5t17.5 -96q0 -102 -41 -177t-110.5 -125t-165 -75t-201.5 -25q-66 0 -146 13.5t-143 40.5zM362 1470 q49 12 127 13q35 0 75 -3t73 -12l61 -131l105 131q29 8 68.5 11.5t76.5 3.5q82 0 137 -13l-245 -253q-35 -4 -82 -7.5t-90 -3.5q-27 0 -69 2t-81 11z" />
<glyph unicode="&#x162;" horiz-adv-x="1124" d="M270 -487l131 348q35 8 74 11t74 3q72 0 135 -14l-160 -350q-29 -6 -64.5 -9.5t-64.5 -3.5t-60.5 3t-64.5 12zM272 1219q0 63 11.5 125.5t33.5 128.5h998q0 -63 -11.5 -125t-33.5 -129h-348l-213 -1219q-84 -12 -154 -12q-74 0 -147 12l213 1219h-349z" />
<glyph unicode="&#x163;" horiz-adv-x="780" d="M162 838q0 55 8 108t31 113h157l13 61q10 51 12 97.5t2 76.5q53 35 133 49.5t148 14.5q10 -31 10 -78q0 -33 -5 -71t-14 -83l-12 -67h254q0 -61 -10 -112.5t-29 -108.5h-254l-71 -404q-4 -29 -7.5 -53.5t-3.5 -46.5q0 -53 24.5 -84t92.5 -31q35 0 61.5 5t49.5 12 q27 -59 26 -156v-32.5t-2 -33.5q-88 -27 -211 -26q-172 0 -255 63.5t-83 212.5q0 31 4.5 63.5t10.5 71.5l77 439h-157zM196 -487l131 348q35 8 74 11t74 3q72 0 135 -14l-160 -350q-29 -6 -64.5 -9.5t-64.5 -3.5t-60.5 3t-64.5 12z" />
<glyph unicode="&#x164;" horiz-adv-x="1124" d="M272 1219q0 63 11.5 125.5t33.5 128.5h998q0 -63 -11.5 -125t-33.5 -129h-348l-213 -1219q-84 -12 -154 -12q-74 0 -147 12l213 1219h-349zM515 1821q49 12 126 12q35 0 75 -3t73 -11l61 -101l105 101q29 8 68.5 11t76.5 3q82 0 137 -12l-245 -224q-35 -4 -82 -7t-90 -3 q-27 0 -69 2t-81 10z" />
<glyph unicode="&#x165;" horiz-adv-x="780" d="M162 838q0 55 8 108t31 113h157l13 61q10 51 12 97.5t2 76.5q53 35 133 49.5t148 14.5q10 -31 10 -78q0 -33 -5 -71t-14 -83l-12 -67h254q0 -61 -10 -112.5t-29 -108.5h-254l-71 -404q-4 -29 -7.5 -53.5t-3.5 -46.5q0 -53 24.5 -84t92.5 -31q35 0 61.5 5t49.5 12 q27 -59 26 -156v-32.5t-2 -33.5q-88 -27 -211 -26q-172 0 -255 63.5t-83 212.5q0 31 4.5 63.5t10.5 71.5l77 439h-157zM776 1186l72 413q12 2 51 4t86 2q33 0 73 -2t56 -4l-109 -413q-16 -4 -46.5 -6.5t-61.5 -2.5q-35 0 -68.5 2t-52.5 7z" />
<glyph unicode="&#x166;" horiz-adv-x="1124" d="M266 616q-8 104 35 207h250l70 396h-349q0 63 11.5 125.5t33.5 128.5h998q0 -63 -11.5 -125t-33.5 -129h-348l-70 -396h266q8 -104 -35 -207h-268l-106 -616q-84 -12 -154 -12q-74 0 -147 12l106 616h-248z" />
<glyph unicode="&#x167;" horiz-adv-x="780" d="M106 485q-2 43 7.5 88t25.5 86h148l32 179h-157q0 55 8 108t31 113h157l13 61q10 51 12 97.5t2 76.5q53 35 133 49.5t148 14.5q10 -31 10 -78q0 -33 -5 -71t-14 -83l-12 -67h254q0 -61 -10 -112.5t-29 -108.5h-254l-33 -179h258q0 -53 -8 -92t-26 -82h-254l-8 -51 q-4 -29 -7.5 -53.5t-3.5 -46.5q0 -53 24.5 -84t92.5 -31q35 0 61.5 5t49.5 12q27 -59 26 -156v-32.5t-2 -33.5q-88 -27 -211 -26q-172 0 -255 63.5t-83 212.5q0 31 4.5 63.5t10.5 71.5l14 86h-150z" />
<glyph unicode="&#x168;" horiz-adv-x="1368" d="M242 412q0 102 22 233l146 828q41 8 78.5 10t74.5 2q35 0 71 -2t75 -10l-134 -764q-14 -84 -22 -149.5t-8 -119.5q0 -106 39 -156.5t137 -50.5q76 0 127 28t87 86.5t59.5 147.5t45.5 214l134 764q45 8 80.5 10t70.5 2q37 0 74 -2t76 -10l-146 -828q-29 -164 -72 -289 t-116.5 -209t-185 -128t-273.5 -44q-223 0 -331.5 102.5t-108.5 334.5zM630 1741q41 45 106.5 79.5t141.5 34.5q39 0 73 -11t66.5 -24.5t67.5 -24.5t74 -11q35 0 66.5 9t78.5 48q25 -29 46.5 -70.5t25.5 -80.5q-43 -45 -108.5 -78t-141.5 -33q-39 0 -74 11.5t-68.5 24.5 t-67.5 24.5t-71 11.5q-39 0 -67.5 -11.5t-75.5 -46.5q-23 25 -45.5 67t-26.5 81z" />
<glyph unicode="&#x169;" horiz-adv-x="1198" d="M197 248q0 31 4 65.5t10 73.5l119 672q39 6 76.5 9t72.5 3q70 0 142 -12l-115 -649q-8 -41 -8 -78q0 -61 26.5 -86t75.5 -25q29 0 64.5 14.5t72.5 60.5t72 129t59 222l76 412q80 12 150 12t141 -12l-111 -604q-23 -129 -34 -228.5t-11 -154.5v-38.5t2 -33.5 q-68 -12 -135 -12q-57 0 -127 12q-4 16 -8 38.5t-4 67.5q0 18 1 37t5 45q-25 -43 -61.5 -81.5t-83.5 -67.5t-101.5 -45.5t-109.5 -16.5q-123 0 -191.5 62.5t-68.5 208.5zM440 1370q41 45 106.5 80t141.5 35q39 0 73 -11.5t66.5 -24.5t67.5 -24.5t74 -11.5q35 0 66.5 9.5 t78.5 47.5q25 -29 46.5 -70.5t25.5 -80.5q-43 -45 -108.5 -78t-141.5 -33q-39 0 -74 11.5t-68.5 24.5t-67.5 24.5t-71 11.5q-39 0 -67.5 -11.5t-75.5 -45.5q-23 25 -45.5 66.5t-26.5 80.5z" />
<glyph unicode="&#x16a;" horiz-adv-x="1368" d="M242 412q0 102 22 233l146 828q41 8 78.5 10t74.5 2q35 0 71 -2t75 -10l-134 -764q-14 -84 -22 -149.5t-8 -119.5q0 -106 39 -156.5t137 -50.5q76 0 127 28t87 86.5t59.5 147.5t45.5 214l134 764q45 8 80.5 10t70.5 2q37 0 74 -2t76 -10l-146 -828q-29 -164 -72 -289 t-116.5 -209t-185 -128t-273.5 -44q-223 0 -331.5 102.5t-108.5 334.5zM690 1606q-8 104 35 206h542q8 -104 -34 -206h-543z" />
<glyph unicode="&#x16b;" horiz-adv-x="1198" d="M197 248q0 31 4 65.5t10 73.5l119 672q39 6 76.5 9t72.5 3q70 0 142 -12l-115 -649q-8 -41 -8 -78q0 -61 26.5 -86t75.5 -25q29 0 64.5 14.5t72.5 60.5t72 129t59 222l76 412q80 12 150 12t141 -12l-111 -604q-23 -129 -34 -228.5t-11 -154.5v-38.5t2 -33.5 q-68 -12 -135 -12q-57 0 -127 12q-4 16 -8 38.5t-4 67.5q0 18 1 37t5 45q-25 -43 -61.5 -81.5t-83.5 -67.5t-101.5 -45.5t-109.5 -16.5q-123 0 -191.5 62.5t-68.5 208.5zM561 1292.5q1 24.5 5 50.5q8 51 30 105h543q2 -27 1 -51.5t-5 -50.5q-10 -53 -31 -105h-542 q-2 27 -1 51.5z" />
<glyph unicode="&#x16c;" horiz-adv-x="1368" d="M242 412q0 102 22 233l146 828q41 8 78.5 10t74.5 2q35 0 71 -2t75 -10l-134 -764q-14 -84 -22 -149.5t-8 -119.5q0 -106 39 -156.5t137 -50.5q76 0 127 28t87 86.5t59.5 147.5t45.5 214l134 764q45 8 80.5 10t70.5 2q37 0 74 -2t76 -10l-146 -828q-29 -164 -72 -289 t-116.5 -209t-185 -128t-273.5 -44q-223 0 -331.5 102.5t-108.5 334.5zM661 1821q31 8 60.5 11t58.5 3q31 0 58.5 -4t56.5 -12q0 -16 3 -33t14 -30t31.5 -21.5t55.5 -8.5q66 0 92.5 26t40.5 69q37 8 63.5 11t59.5 3q27 0 54.5 -3t54.5 -11q-20 -78 -62.5 -129.5t-94.5 -80 t-109.5 -39.5t-110.5 -11q-66 0 -123 13t-102 44t-72 80t-29 123z" />
<glyph unicode="&#x16d;" horiz-adv-x="1198" d="M197 248q0 31 4 65.5t10 73.5l119 672q39 6 76.5 9t72.5 3q70 0 142 -12l-115 -649q-8 -41 -8 -78q0 -61 26.5 -86t75.5 -25q29 0 64.5 14.5t72.5 60.5t72 129t59 222l76 412q80 12 150 12t141 -12l-111 -604q-23 -129 -34 -228.5t-11 -154.5v-38.5t2 -33.5 q-68 -12 -135 -12q-57 0 -127 12q-4 16 -8 38.5t-4 67.5q0 18 1 37t5 45q-25 -43 -61.5 -81.5t-83.5 -67.5t-101.5 -45.5t-109.5 -16.5q-123 0 -191.5 62.5t-68.5 208.5zM494 1481q31 8 61.5 11t58.5 3q31 0 55.5 -3t53.5 -11q0 -16 3 -36t14.5 -37t34 -28.5t59.5 -11.5 q74 0 97 32t36 79q37 8 63.5 12t59.5 4q27 0 55 -3t55 -11q-18 -88 -59 -142.5t-93.5 -85t-111.5 -42t-115 -11.5q-57 0 -115.5 12.5t-106.5 44t-76.5 86t-28.5 138.5z" />
<glyph unicode="&#x16e;" horiz-adv-x="1368" d="M242 412q0 102 22 233l146 828q41 8 78.5 10t74.5 2q35 0 71 -2t75 -10l-134 -764q-14 -84 -22 -149.5t-8 -119.5q0 -106 39 -156.5t137 -50.5q76 0 127 28t87 86.5t59.5 147.5t45.5 214l134 764q45 8 80.5 10t70.5 2q37 0 74 -2t76 -10l-146 -828q-29 -164 -72 -289 t-116.5 -209t-185 -128t-273.5 -44q-223 0 -331.5 102.5t-108.5 334.5zM739 1720q0 61 20.5 112.5t57.5 90.5t87 60.5t110 21.5q109 0 167 -65.5t58 -161.5q0 -61 -20.5 -112.5t-56.5 -88.5t-85 -58.5t-106 -21.5q-117 0 -174.5 64.5t-57.5 158.5zM889 1737q0 -47 19.5 -79 t66.5 -32q53 0 82.5 42t29.5 97q0 47 -18.5 79t-65.5 32q-55 0 -84.5 -40t-29.5 -99z" />
<glyph unicode="&#x16f;" horiz-adv-x="1198" d="M197 248q0 31 4 65.5t10 73.5l119 672q39 6 76.5 9t72.5 3q70 0 142 -12l-115 -649q-8 -41 -8 -78q0 -61 26.5 -86t75.5 -25q29 0 64.5 14.5t72.5 60.5t72 129t59 222l76 412q80 12 150 12t141 -12l-111 -604q-23 -129 -34 -228.5t-11 -154.5v-38.5t2 -33.5 q-68 -12 -135 -12q-57 0 -127 12q-4 16 -8 38.5t-4 67.5q0 18 1 37t5 45q-25 -43 -61.5 -81.5t-83.5 -67.5t-101.5 -45.5t-109.5 -16.5q-123 0 -191.5 62.5t-68.5 208.5zM611 1399q0 49 16 95t48 82t79 58.5t109 22.5q90 0 150.5 -53.5t60.5 -167.5q0 -53 -18.5 -97.5 t-51.5 -78t-80 -52t-102 -18.5q-94 0 -152.5 53.5t-58.5 155.5zM752 1409q0 -96 82 -96q43 0 71.5 32.5t28.5 92.5q0 96 -84 96q-49 0 -73.5 -39t-24.5 -86z" />
<glyph unicode="&#x170;" horiz-adv-x="1368" d="M242 412q0 102 22 233l146 828q41 8 78.5 10t74.5 2q35 0 71 -2t75 -10l-134 -764q-14 -84 -22 -149.5t-8 -119.5q0 -106 39 -156.5t137 -50.5q76 0 127 28t87 86.5t59.5 147.5t45.5 214l134 764q45 8 80.5 10t70.5 2q37 0 74 -2t76 -10l-146 -828q-29 -164 -72 -289 t-116.5 -209t-185 -128t-273.5 -44q-223 0 -331.5 102.5t-108.5 334.5zM581 1587l209 252q82 12 185 12q53 0 91 -3t79 -9l-289 -252q-27 -4 -64 -8t-77 -4q-66 0 -134 12zM1032 1587l209 252q82 12 184 12q53 0 91 -3t79 -9l-289 -252q-27 -4 -63.5 -8t-77.5 -4 q-66 0 -133 12z" />
<glyph unicode="&#x171;" horiz-adv-x="1198" d="M197 248q0 31 4 65.5t10 73.5l119 672q39 6 76.5 9t72.5 3q70 0 142 -12l-115 -649q-8 -41 -8 -78q0 -61 26.5 -86t75.5 -25q29 0 64.5 14.5t72.5 60.5t72 129t59 222l76 412q80 12 150 12t141 -12l-111 -604q-23 -129 -34 -228.5t-11 -154.5v-38.5t2 -33.5 q-68 -12 -135 -12q-57 0 -127 12q-4 16 -8 38.5t-4 67.5q0 18 1 37t5 45q-25 -43 -61.5 -81.5t-83.5 -67.5t-101.5 -45.5t-109.5 -16.5q-123 0 -191.5 62.5t-68.5 208.5zM444 1221l187 252q80 12 160 12q76 0 153 -12l-229 -252q-27 -4 -63 -8.5t-77 -4.5q-63 0 -131 13z M885 1221l186 252q80 12 160 12q76 0 153 -12l-229 -252q-27 -4 -62.5 -8.5t-76.5 -4.5q-63 0 -131 13z" />
<glyph unicode="&#x172;" horiz-adv-x="1366" d="M242 412q0 102 22 233l146 828q41 8 78.5 10t74.5 2q35 0 71 -2t75 -10l-134 -764q-14 -84 -22 -149.5t-8 -119.5q0 -106 39 -156.5t137 -50.5q76 0 127 28t87 86.5t59.5 147.5t45.5 214l134 764q45 8 80.5 10t70.5 2q37 0 74 -2t76 -10l-146 -828q-23 -123 -52.5 -221 t-74.5 -175t-105.5 -135.5t-140.5 -101.5q-47 -25 -93 -57.5t-83 -69.5t-59.5 -74.5t-22.5 -72.5q0 -68 74 -68q12 0 34.5 2t61.5 15q12 -20 19.5 -50t7.5 -61q0 -10 -1 -19.5t-3 -19.5q-37 -14 -94.5 -23.5t-116.5 -9.5q-49 0 -94 8.5t-79 29t-53.5 52t-19.5 78.5 q0 45 18.5 87t48 80t69.5 72t83 64q-211 6 -311 109.5t-100 327.5z" />
<glyph unicode="&#x173;" horiz-adv-x="1198" d="M197 248q0 31 4 65.5t10 73.5l119 672q39 6 76.5 9t72.5 3q70 0 142 -12l-115 -649q-8 -41 -8 -78q0 -61 26.5 -86t75.5 -25q29 0 64.5 14.5t72.5 60.5t72 129t59 222l76 412q80 12 150 12t141 -12l-111 -604q-23 -129 -34 -228.5t-11 -154.5v-38.5t2 -33.5 q-27 -18 -64.5 -48t-72.5 -66t-59.5 -74.5t-24.5 -73.5q0 -68 74 -68q12 0 34.5 2t61.5 15q12 -20 19.5 -50t7.5 -61q0 -10 -1 -19.5t-3 -19.5q-37 -14 -94.5 -23.5t-116.5 -9.5q-49 0 -94.5 8.5t-79 29t-53 52t-19.5 78.5q0 49 16.5 91t46 80t70.5 76t90 81q-4 16 -8 38.5 t-4 67.5q0 18 1 37t5 45q-25 -43 -61.5 -81.5t-83.5 -67.5t-101.5 -45.5t-109.5 -16.5q-123 0 -191.5 62.5t-68.5 208.5z" />
<glyph unicode="&#x174;" horiz-adv-x="1824" d="M293 1473q74 12 160 12q41 0 77.5 -1t73.5 -11l4 -1072l424 1072q43 8 77 10t71 2q31 0 63.5 -2t67.5 -10l49 -1098l387 1098q37 8 75 10t72 2q35 0 74 -3t72 -9l-594 -1473q-39 -6 -80 -9t-78 -3q-76 0 -164 12l-53 948l-397 -948l-72 -6q-53 -6 -102 -6q-59 0 -133 12z M838 1599l245 224q35 4 82 7t90 3q27 0 69 -2t81 -10l155 -222q-49 -12 -127 -12q-35 0 -74.5 3t-72.5 12l-61 100l-105 -100q-29 -8 -68.5 -11.5t-76.5 -3.5q-82 0 -137 12z" />
<glyph unicode="&#x175;" horiz-adv-x="1650" d="M199 1059q80 12 168 12q35 0 70.5 -2t70.5 -10l29 -735l305 735q63 12 139 12t149 -12l58 -737l198 460q35 80 47.5 141.5t12.5 102.5q0 10 -1 18.5t-1 14.5q68 12 155 12q84 0 156 -12v-8q0 -66 -22.5 -137.5t-73.5 -170.5l-381 -743q-37 -6 -83 -9t-87 -3 q-74 0 -141 12l-60 674l-289 -674q-39 -4 -81.5 -8t-83.5 -4q-35 0 -74 3t-72 9zM639 1219l246 254q35 4 82 7t90 3q27 0 68.5 -2t80.5 -11l156 -251q-49 -12 -127 -13q-35 0 -74 3t-72 12l-61 131l-104 -131q-29 -8 -70 -11.5t-78 -3.5q-82 0 -137 13z" />
<glyph unicode="&#x176;" horiz-adv-x="1153" d="M242 1473q88 12 166 12q37 0 73.5 -2t75.5 -10l158 -654l379 654q41 6 82 8t81 2q35 0 75 -2t79 -8l-600 -947l-92 -526q-43 -8 -81 -10t-75 -2q-35 0 -70.5 2t-74.5 10l92 526zM515 1599l245 224q35 4 82 7t90 3q27 0 69 -2t81 -10l155 -222q-49 -12 -127 -12 q-35 0 -74.5 3t-72.5 12l-61 100l-105 -100q-29 -8 -68.5 -11.5t-76.5 -3.5q-82 0 -137 12z" />
<glyph unicode="&#x177;" horiz-adv-x="1110" d="M55 -475q4 59 16.5 112.5t41.5 102.5q18 -8 43.5 -13.5t44.5 -5.5q25 0 57.5 5.5t70.5 31t80 77.5t85 145l10 22q-23 -4 -49.5 -5t-55.5 -1h-46.5t-47.5 4l-96 1059q76 12 158 12q72 0 143 -12l55 -926q80 168 134.5 292t91 213t56 148.5t30 100.5t12.5 68.5t2 52.5 q0 20 -2 30.5t-4 20.5q35 6 73.5 9t79.5 3q82 0 154 -12q6 -18 6 -43q0 -35 -9 -77t-22.5 -84t-29 -81t-27.5 -69q-53 -127 -148.5 -325t-244.5 -501q-63 -127 -125 -202.5t-125.5 -114.5t-127 -50.5t-128.5 -11.5q-47 0 -81 6.5t-75 18.5zM361 1219l246 254q35 4 82 7t90 3 q27 0 68.5 -2t80.5 -11l156 -251q-49 -12 -127 -13q-35 0 -74 3t-72 12l-61 131l-104 -131q-29 -8 -70 -11.5t-78 -3.5q-82 0 -137 13z" />
<glyph unicode="&#x178;" horiz-adv-x="1153" d="M242 1473q88 12 166 12q37 0 73.5 -2t75.5 -10l158 -654l379 654q41 6 82 8t81 2q35 0 75 -2t79 -8l-600 -947l-92 -526q-43 -8 -81 -10t-75 -2q-35 0 -70.5 2t-74.5 10l92 526zM491 1591q2 63 11.5 123t31.5 119q33 6 69 9t64 3q29 0 65 -3t66 -9q-2 -63 -11 -122.5 t-32 -119.5q-35 -6 -69.5 -8t-65.5 -2q-27 0 -63.5 2t-65.5 8zM944 1591q-2 63 8 123t35 119q33 6 68.5 9t64.5 3t64.5 -3t66.5 -9q-4 -61 -13.5 -120.5t-29.5 -121.5q-35 -6 -71 -8t-64 -2q-29 0 -64.5 2t-64.5 8z" />
<glyph unicode="&#x179;" horiz-adv-x="1095" d="M47 20l787 1199h-525q0 31 2 61.5t8 62.5q12 66 35 130h951l12 -25l-782 -1194h516q2 -31 -2.5 -61.5t-8.5 -63.5q-6 -33 -14 -65.5t-18 -63.5h-951zM622 1591l227 219q25 4 71 7.5t93 3.5q53 0 105.5 -3t75.5 -8l-291 -221q-20 -4 -59.5 -6t-80.5 -2t-83 3t-58 7z" />
<glyph unicode="&#x17a;" horiz-adv-x="958" d="M35 25l606 811h-397q0 31 3 59.5t7 56.5q4 27 11 52.5t20 54.5h800l7 -25l-609 -811h457q0 -31 -3 -59.5t-7 -57.5q-4 -27 -11.5 -52t-17.5 -54h-854zM531 1221l209 252q82 12 184 12q53 0 91 -3t79 -9l-289 -252q-27 -4 -63.5 -8.5t-77.5 -4.5q-66 0 -133 13z" />
<glyph unicode="&#x17b;" horiz-adv-x="1095" d="M47 20l787 1199h-525q0 31 2 61.5t8 62.5q12 66 35 130h951l12 -25l-782 -1194h516q2 -31 -2.5 -61.5t-8.5 -63.5q-6 -33 -14 -65.5t-18 -63.5h-951zM697 1579q-4 72 8 136.5t37 135.5q37 8 78 11.5t73 3.5q33 0 73 -3t75 -12q0 -72 -12.5 -137t-36.5 -135q-37 -6 -77 -8 t-73 -2q-31 0 -71.5 2t-73.5 8z" />
<glyph unicode="&#x17c;" horiz-adv-x="958" d="M35 25l606 811h-397q0 31 3 59.5t7 56.5q4 27 11 52.5t20 54.5h800l7 -25l-609 -811h457q0 -31 -3 -59.5t-7 -57.5q-4 -27 -11.5 -52t-17.5 -54h-854zM551 1237q-4 72 8.5 136.5t36.5 135.5q37 8 78 11.5t74 3.5t73 -3t74 -12q0 -72 -12 -137t-37 -135q-37 -6 -77 -8 t-72 -2q-31 0 -72 2t-74 8z" />
<glyph unicode="&#x17d;" horiz-adv-x="1095" d="M47 20l787 1199h-525q0 31 2 61.5t8 62.5q12 66 35 130h951l12 -25l-782 -1194h516q2 -31 -2.5 -61.5t-8.5 -63.5q-6 -33 -14 -65.5t-18 -63.5h-951zM523 1821q49 12 126 12q35 0 75 -3t73 -11l61 -101l105 101q29 8 68.5 11t76.5 3q82 0 137 -12l-245 -224 q-35 -4 -82 -7t-90 -3q-27 0 -69 2t-81 10z" />
<glyph unicode="&#x17e;" horiz-adv-x="958" d="M35 25l606 811h-397q0 31 3 59.5t7 56.5q4 27 11 52.5t20 54.5h800l7 -25l-609 -811h457q0 -31 -3 -59.5t-7 -57.5q-4 -27 -11.5 -52t-17.5 -54h-854zM379 1458q49 12 127 13q35 0 75 -3t73 -12l61 -131l105 131q29 8 68.5 11.5t76.5 3.5q82 0 137 -13l-245 -253 q-35 -4 -82 -7.5t-90 -3.5q-27 0 -69 2t-81 11z" />
<glyph unicode="&#x17f;" horiz-adv-x="735" d="M-211 -471q10 123 68 221q23 -8 50 -13t44 -5q39 0 73.5 11t64.5 45t53.5 93.5t39.5 155.5l189 1055q39 227 156.5 328.5t308.5 101.5q59 0 105 -6.5t93 -20.5q-14 -68 -32.5 -121t-47.5 -106q-27 8 -53.5 13t-56.5 5q-37 0 -66.5 -9t-53.5 -31.5t-41 -63.5t-30 -105 l-190 -1067q-27 -150 -73 -248t-107.5 -156.5t-139 -82t-168.5 -23.5q-94 0 -186 29z" />
<glyph unicode="&#x192;" horiz-adv-x="1228" d="M152 -248q4 68 18 119t35 104q23 -4 47 -9t65 -5q70 0 109 35t57 143l111 617h-170q-6 49 4 108.5t29 112.5h161l13 84q29 197 132 304.5t304 107.5q63 0 130 -13.5t97 -29.5q-4 -68 -18 -120.5t-37 -99.5q-23 4 -66 14.5t-83 10.5q-72 0 -115 -35t-55 -145l-11 -78h250 q10 -59 -2 -116.5t-31 -104.5h-243l-113 -635q-35 -195 -131 -297.5t-283 -102.5q-61 0 -108 8.5t-96 22.5z" />
<glyph unicode="&#x218;" horiz-adv-x="1087" d="M78 47q8 61 29.5 123.5t52.5 130.5q78 -29 158.5 -49.5t156.5 -20.5q63 0 117.5 14.5t94.5 43t62.5 69.5t22.5 97q0 41 -18.5 71.5t-47 55t-67.5 46t-78 46.5q-131 78 -208 161t-77 195q0 111 39 198t111 146.5t173 91t228 31.5q113 0 195 -16.5t172 -50.5 q-8 -55 -28.5 -117t-57.5 -121q-59 29 -121.5 47t-163.5 18q-37 0 -79 -6t-75.5 -23.5t-56 -48t-22.5 -79.5q0 -70 50 -115t128 -90q70 -39 129 -78t104.5 -84t71 -101.5t25.5 -129.5q0 -104 -38 -200.5t-117 -168.5t-199.5 -115t-286.5 -43q-193 0 -379 72zM321 -487 l131 348q35 8 74 11t74 3q72 0 135 -14l-160 -350q-29 -6 -64.5 -9.5t-64.5 -3.5t-60.5 3t-64.5 12z" />
<glyph unicode="&#x219;" horiz-adv-x="911" d="M84 29q6 119 61 221q63 -29 130 -40t128 -11q31 0 66 6t63.5 20.5t48 40t19.5 62.5q0 41 -28.5 66.5t-79.5 45.5l-66 27q-33 12 -65.5 31.5t-60.5 49.5t-45 73t-17 102q0 86 33.5 152.5t94 112.5t141.5 70.5t175 24.5q33 0 72 -3t78.5 -9t77.5 -17.5t69 -27.5 q-4 -53 -19.5 -105.5t-50.5 -105.5q-43 23 -104.5 37t-116.5 14q-23 0 -50.5 -4t-52 -14t-41 -30.5t-16.5 -51.5q0 -61 78 -96l80 -35q39 -16 76 -38t65.5 -52.5t46 -71.5t17.5 -96q0 -102 -41 -177t-110.5 -125t-165 -75t-201.5 -25q-66 0 -146 13.5t-143 40.5zM209 -487 l131 348q35 8 74 11t74 3q72 0 135 -14l-160 -350q-29 -6 -64.5 -9.5t-64.5 -3.5t-60.5 3t-64.5 12z" />
<glyph unicode="&#x21a;" horiz-adv-x="1124" d="M272 1219q0 63 11.5 125.5t33.5 128.5h998q0 -63 -11.5 -125t-33.5 -129h-348l-213 -1219q-84 -12 -154 -12q-74 0 -147 12l213 1219h-349zM276 -487l131 348q35 8 74 11t74 3q72 0 135 -14l-160 -350q-29 -6 -64.5 -9.5t-64.5 -3.5t-60.5 3t-64.5 12z" />
<glyph unicode="&#x21b;" horiz-adv-x="780" d="M162 838q0 55 8 108t31 113h157l13 61q10 51 12 97.5t2 76.5q53 35 133 49.5t148 14.5q10 -31 10 -78q0 -33 -5 -71t-14 -83l-12 -67h254q0 -61 -10 -112.5t-29 -108.5h-254l-71 -404q-4 -29 -7.5 -53.5t-3.5 -46.5q0 -53 24.5 -84t92.5 -31q35 0 61.5 5t49.5 12 q27 -59 26 -156v-32.5t-2 -33.5q-88 -27 -211 -26q-172 0 -255 63.5t-83 212.5q0 31 4.5 63.5t10.5 71.5l77 439h-157zM205 -487l131 348q35 8 74 11t74 3q72 0 135 -14l-160 -350q-29 -6 -64.5 -9.5t-64.5 -3.5t-60.5 3t-64.5 12z" />
<glyph unicode="&#x237;" horiz-adv-x="638" d="M-182 -432q0 92 43 170q23 -6 52.5 -10t53.5 -4q37 0 71 7t62.5 28.5t50 60.5t33.5 102l162 916h-129q0 8 -1 15t-1 15q0 47 11.5 94.5t29.5 96.5h414l-209 -1188q-35 -197 -158 -284t-303 -87q-94 0 -180 23q-2 12 -2 23.5v21.5z" />
<glyph unicode="&#x2bc;" horiz-adv-x="595" d="M328 1174l139 323q29 6 62.5 9t66.5 3t69.5 -3t63.5 -9l-172 -323q-29 -6 -57.5 -8.5t-59.5 -2.5t-57.5 2t-54.5 9z" />
<glyph unicode="&#x2c6;" horiz-adv-x="1019" d="M377 1219l246 254q35 4 82 7t90 3q27 0 68.5 -2t80.5 -11l156 -251q-49 -12 -127 -13q-35 0 -74 3t-72 12l-61 131l-104 -131q-29 -8 -70 -11.5t-78 -3.5q-82 0 -137 13z" />
<glyph unicode="&#x2c7;" horiz-adv-x="1019" d="M399 1470q49 12 127 13q35 0 75 -3t73 -12l61 -131l105 131q29 8 68.5 11.5t76.5 3.5q82 0 137 -13l-245 -253q-35 -4 -82 -7.5t-90 -3.5q-27 0 -69 2t-81 11z" />
<glyph unicode="&#x2c9;" horiz-adv-x="1024" d="M409 1292.5q1 24.5 5 50.5q8 51 30 105h543q2 -27 1 -51.5t-5 -50.5q-10 -53 -31 -105h-542q-2 27 -1 51.5z" />
<glyph unicode="&#x2d8;" horiz-adv-x="1024" d="M408 1481q31 8 61.5 11t58.5 3q31 0 55.5 -3t53.5 -11q0 -16 3 -36t14.5 -37t34 -28.5t59.5 -11.5q74 0 97 32t36 79q37 8 63.5 12t59.5 4q27 0 55 -3t55 -11q-18 -88 -59 -142.5t-93.5 -85t-111.5 -42t-115 -11.5q-57 0 -115.5 12.5t-106.5 44t-76.5 86t-28.5 138.5z " />
<glyph unicode="&#x2d9;" horiz-adv-x="1024" d="M524 1237q-4 72 8.5 136.5t36.5 135.5q37 8 78 11.5t74 3.5t73 -3t74 -12q0 -72 -12 -137t-37 -135q-37 -6 -77 -8t-72 -2q-31 0 -72 2t-74 8z" />
<glyph unicode="&#x2da;" horiz-adv-x="1032" d="M500 1399q0 49 16 95t48 82t79 58.5t109 22.5q90 0 150.5 -53.5t60.5 -167.5q0 -53 -18.5 -97.5t-51.5 -78t-80 -52t-102 -18.5q-94 0 -152.5 53.5t-58.5 155.5zM641 1409q0 -96 82 -96q43 0 71.5 32.5t28.5 92.5q0 96 -84 96q-49 0 -73.5 -39t-24.5 -86z" />
<glyph unicode="&#x2db;" horiz-adv-x="1024" d="M262 -328q0 49 21.5 94.5t57.5 86.5t82 77.5t93 69.5h238q-29 -18 -69 -48t-75 -66t-59.5 -74.5t-24.5 -73.5q0 -68 74 -68q12 0 34.5 2t61.5 15q16 -27 23.5 -70t-0.5 -80q-37 -14 -94.5 -23.5t-116.5 -9.5q-49 0 -94 8.5t-79 29t-53.5 52t-19.5 78.5z" />
<glyph unicode="&#x2dc;" horiz-adv-x="1024" d="M354 1370q41 45 106.5 80t141.5 35q39 0 73 -11.5t66.5 -24.5t67.5 -24.5t74 -11.5q35 0 66.5 9.5t78.5 47.5q25 -29 46.5 -70.5t25.5 -80.5q-43 -45 -108.5 -78t-141.5 -33q-39 0 -74 11.5t-68.5 24.5t-67.5 24.5t-71 11.5q-39 0 -67.5 -11.5t-75.5 -45.5 q-23 25 -45.5 66.5t-26.5 80.5z" />
<glyph unicode="&#x2dd;" horiz-adv-x="1024" d="M358 1221l187 252q80 12 160 12q76 0 153 -12l-229 -252q-27 -4 -63 -8.5t-77 -4.5q-63 0 -131 13zM799 1221l186 252q80 12 160 12q76 0 153 -12l-229 -252q-27 -4 -62.5 -8.5t-76.5 -4.5q-63 0 -131 13z" />
<glyph unicode="&#x3a9;" horiz-adv-x="1499" d="M123 0q2 70 12 132.5t29 121.5h192q-14 25 -30.5 65.5t-31.5 94t-25.5 117t-10.5 131.5q0 162 45 313t135 267t223.5 185.5t309.5 69.5q129 0 227 -40t165 -113.5t101.5 -177t34.5 -232.5q0 -92 -18.5 -185.5t-51 -181.5t-79.5 -168t-105 -145h164q-2 -72 -12.5 -133.5 t-28.5 -120.5h-539l-6 39q23 12 59 56t77.5 111.5t82.5 152.5t75 179.5t55.5 192.5t21.5 191q0 160 -71.5 239.5t-194.5 79.5q-102 0 -175 -55.5t-119 -146.5t-66.5 -207.5t-20.5 -239.5q0 -94 13 -177t32.5 -154t43 -127t44.5 -95l-16 -39h-541z" />
<glyph unicode="&#x3c0;" horiz-adv-x="1548" d="M205 926q53 55 149.5 94t223.5 39h1028q0 -57 -10.5 -114.5t-28.5 -117.5h-244l-70 -405q-6 -33 -8 -58.5t-2 -46.5q0 -59 24.5 -78.5t80.5 -19.5q29 0 53 4t47 8q8 -31 13 -65.5t5 -71.5q0 -18 -2 -37.5t-6 -40.5q-45 -10 -101.5 -19t-105.5 -9q-150 0 -225.5 61.5 t-75.5 200.5q0 25 3 51.5t8 56.5l79 469h-231l-139 -827q-72 -12 -140 -12q-35 0 -70.5 3t-70.5 9l139 827h-18q-78 0 -135.5 -28.5t-81.5 -48.5q-27 33 -53.5 82t-34.5 94z" />
<glyph unicode="&#x1e80;" horiz-adv-x="1824" d="M293 1473q74 12 160 12q41 0 77.5 -1t73.5 -11l4 -1072l424 1072q43 8 77 10t71 2q31 0 63.5 -2t67.5 -10l49 -1098l387 1098q37 8 75 10t72 2q35 0 74 -3t72 -9l-594 -1473q-39 -6 -80 -9t-78 -3q-76 0 -164 12l-53 948l-397 -948l-72 -6q-53 -6 -102 -6q-59 0 -133 12z M867 1829q10 2 31.5 3t49 3t57 3t56.5 1q47 0 93 -3t71 -7l180 -238q-16 -4 -56 -8t-81 -4t-76 2t-55 6z" />
<glyph unicode="&#x1e81;" horiz-adv-x="1650" d="M199 1059q80 12 168 12q35 0 70.5 -2t70.5 -10l29 -735l305 735q63 12 139 12t149 -12l58 -737l198 460q35 80 47.5 141.5t12.5 102.5q0 10 -1 18.5t-1 14.5q68 12 155 12q84 0 156 -12v-8q0 -66 -22.5 -137.5t-73.5 -170.5l-381 -743q-37 -6 -83 -9t-87 -3 q-74 0 -141 12l-60 674l-289 -674q-39 -4 -81.5 -8t-83.5 -4q-35 0 -74 3t-72 9zM666 1473q41 6 78.5 9t91.5 3q100 0 184 -12l182 -252q-68 -12 -133 -13q-41 0 -78 4.5t-63 8.5z" />
<glyph unicode="&#x1e82;" horiz-adv-x="1824" d="M293 1473q74 12 160 12q41 0 77.5 -1t73.5 -11l4 -1072l424 1072q43 8 77 10t71 2q31 0 63.5 -2t67.5 -10l49 -1098l387 1098q37 8 75 10t72 2q35 0 74 -3t72 -9l-594 -1473q-39 -6 -80 -9t-78 -3q-76 0 -164 12l-53 948l-397 -948l-72 -6q-53 -6 -102 -6q-59 0 -133 12z M989 1591l227 219q25 4 71 7.5t93 3.5q53 0 105.5 -3t75.5 -8l-291 -221q-20 -4 -59.5 -6t-80.5 -2t-83 3t-58 7z" />
<glyph unicode="&#x1e83;" horiz-adv-x="1650" d="M199 1059q80 12 168 12q35 0 70.5 -2t70.5 -10l29 -735l305 735q63 12 139 12t149 -12l58 -737l198 460q35 80 47.5 141.5t12.5 102.5q0 10 -1 18.5t-1 14.5q68 12 155 12q84 0 156 -12v-8q0 -66 -22.5 -137.5t-73.5 -170.5l-381 -743q-37 -6 -83 -9t-87 -3 q-74 0 -141 12l-60 674l-289 -674q-39 -4 -81.5 -8t-83.5 -4q-35 0 -74 3t-72 9zM781 1221l209 252q82 12 184 12q53 0 91 -3t79 -9l-289 -252q-27 -4 -63.5 -8.5t-77.5 -4.5q-66 0 -133 13z" />
<glyph unicode="&#x1e84;" horiz-adv-x="1824" d="M293 1473q74 12 160 12q41 0 77.5 -1t73.5 -11l4 -1072l424 1072q43 8 77 10t71 2q31 0 63.5 -2t67.5 -10l49 -1098l387 1098q37 8 75 10t72 2q35 0 74 -3t72 -9l-594 -1473q-39 -6 -80 -9t-78 -3q-76 0 -164 12l-53 948l-397 -948l-72 -6q-53 -6 -102 -6q-59 0 -133 12z M838 1591q2 63 11.5 123t31.5 119q33 6 69 9t64 3q29 0 65 -3t66 -9q-2 -63 -11 -122.5t-32 -119.5q-35 -6 -69.5 -8t-65.5 -2q-27 0 -63.5 2t-65.5 8zM1291 1591q-2 63 8 123t35 119q33 6 68.5 9t64.5 3t64.5 -3t66.5 -9q-4 -61 -13.5 -120.5t-29.5 -121.5q-35 -6 -71 -8 t-64 -2q-29 0 -64.5 2t-64.5 8z" />
<glyph unicode="&#x1e85;" horiz-adv-x="1650" d="M199 1059q80 12 168 12q35 0 70.5 -2t70.5 -10l29 -735l305 735q63 12 139 12t149 -12l58 -737l198 460q35 80 47.5 141.5t12.5 102.5q0 10 -1 18.5t-1 14.5q68 12 155 12q84 0 156 -12v-8q0 -66 -22.5 -137.5t-73.5 -170.5l-381 -743q-37 -6 -83 -9t-87 -3 q-74 0 -141 12l-60 674l-289 -674q-39 -4 -81.5 -8t-83.5 -4q-35 0 -74 3t-72 9zM641 1214q2 63 11 123t32 119q33 6 68.5 9t64.5 3t64.5 -3t66.5 -9q-2 -63 -11.5 -122.5t-31.5 -119.5q-35 -6 -69.5 -8t-65.5 -2q-27 0 -63.5 2t-65.5 8zM1093 1214q-2 63 8.5 123t34.5 119 q33 6 69 9t65 3t64.5 -3t66.5 -9q-4 -61 -13.5 -120.5t-29.5 -121.5q-35 -6 -71 -8t-65 -2t-64.5 2t-64.5 8z" />
<glyph unicode="&#x1ef2;" horiz-adv-x="1153" d="M242 1473q88 12 166 12q37 0 73.5 -2t75.5 -10l158 -654l379 654q41 6 82 8t81 2q35 0 75 -2t79 -8l-600 -947l-92 -526q-43 -8 -81 -10t-75 -2q-35 0 -70.5 2t-74.5 10l92 526zM490 1829q10 2 31.5 3t49 3t57 3t56.5 1q47 0 93 -3t71 -7l180 -238q-16 -4 -56 -8t-81 -4 t-76 2t-55 6z" />
<glyph unicode="&#x1ef3;" horiz-adv-x="1110" d="M55 -475q4 59 16.5 112.5t41.5 102.5q18 -8 43.5 -13.5t44.5 -5.5q25 0 57.5 5.5t70.5 31t80 77.5t85 145l10 22q-23 -4 -49.5 -5t-55.5 -1h-46.5t-47.5 4l-96 1059q76 12 158 12q72 0 143 -12l55 -926q80 168 134.5 292t91 213t56 148.5t30 100.5t12.5 68.5t2 52.5 q0 20 -2 30.5t-4 20.5q35 6 73.5 9t79.5 3q82 0 154 -12q6 -18 6 -43q0 -35 -9 -77t-22.5 -84t-29 -81t-27.5 -69q-53 -127 -148.5 -325t-244.5 -501q-63 -127 -125 -202.5t-125.5 -114.5t-127 -50.5t-128.5 -11.5q-47 0 -81 6.5t-75 18.5zM361 1473q41 6 78.5 9t91.5 3 q100 0 184 -12l182 -252q-68 -12 -133 -13q-41 0 -78 4.5t-63 8.5z" />
<glyph unicode="&#x2000;" horiz-adv-x="1002" />
<glyph unicode="&#x2001;" horiz-adv-x="2005" />
<glyph unicode="&#x2002;" horiz-adv-x="1002" />
<glyph unicode="&#x2003;" horiz-adv-x="2005" />
<glyph unicode="&#x2004;" horiz-adv-x="668" />
<glyph unicode="&#x2005;" horiz-adv-x="501" />
<glyph unicode="&#x2006;" horiz-adv-x="334" />
<glyph unicode="&#x2007;" horiz-adv-x="334" />
<glyph unicode="&#x2008;" horiz-adv-x="250" />
<glyph unicode="&#x2009;" horiz-adv-x="401" />
<glyph unicode="&#x200a;" horiz-adv-x="111" />
<glyph unicode="&#x2010;" horiz-adv-x="749" d="M207 475q0 61 11 122.5t32 129.5h512q2 -63 -10.5 -127.5t-32.5 -124.5h-512z" />
<glyph unicode="&#x2011;" horiz-adv-x="749" d="M207 475q0 61 11 122.5t32 129.5h512q2 -63 -10.5 -127.5t-32.5 -124.5h-512z" />
<glyph unicode="&#x2012;" horiz-adv-x="749" d="M207 475q0 61 11 122.5t32 129.5h512q2 -63 -10.5 -127.5t-32.5 -124.5h-512z" />
<glyph unicode="&#x2013;" horiz-adv-x="1024" d="M82 436q-2 78 9 132.5t32 119.5h1024q4 -63 -8.5 -124.5t-34.5 -127.5h-1022z" />
<glyph unicode="&#x2014;" horiz-adv-x="2048" d="M68 436q-4 63 7 129t34 123h2048q4 -63 -8.5 -124.5t-34.5 -127.5h-2046z" />
<glyph unicode="&#x2018;" horiz-adv-x="581" d="M283 1470q35 8 73.5 11.5t71.5 3.5t67.5 -3t69.5 -12l135 -524q-35 -8 -66.5 -10t-64.5 -2t-67.5 2t-69.5 10z" />
<glyph unicode="&#x2019;" horiz-adv-x="557" d="M231 946l228 524q35 8 70.5 11.5t68.5 3.5t72 -3t71 -12l-241 -524q-35 -8 -71 -10t-69 -2t-64.5 2t-64.5 10z" />
<glyph unicode="&#x201a;" horiz-adv-x="593" d="M37 -229l221 522q35 10 71 13t68 3q33 0 72 -3t72 -13l-234 -522q-37 -8 -71.5 -10.5t-67.5 -2.5t-64.5 2t-66.5 11z" />
<glyph unicode="&#x201c;" horiz-adv-x="1015" d="M283 1470q35 8 73.5 11.5t71.5 3.5t67.5 -3t69.5 -12l135 -524q-35 -8 -66.5 -10t-64.5 -2t-67.5 2t-69.5 10zM717 1470q35 8 73.5 11.5t71.5 3.5t67.5 -3t69.5 -12l135 -524q-35 -8 -66.5 -10t-64.5 -2t-67.5 2t-69.5 10z" />
<glyph unicode="&#x201d;" horiz-adv-x="991" d="M231 946l228 524q35 8 70.5 11.5t68.5 3.5t72 -3t71 -12l-241 -524q-35 -8 -71 -10t-69 -2t-64.5 2t-64.5 10zM665 946l228 524q35 8 70.5 11.5t68.5 3.5t72 -3t71 -12l-241 -524q-35 -8 -71 -10t-69 -2t-64.5 2t-64.5 10z" />
<glyph unicode="&#x201e;" horiz-adv-x="1028" d="M37 -229l221 522q35 10 71 13t68 3q33 0 72 -3t72 -13l-234 -522q-37 -8 -71.5 -10.5t-67.5 -2.5t-64.5 2t-66.5 11zM471 -229l221 522q35 10 71 13t68 3q33 0 72 -3t72 -13l-234 -522q-37 -8 -71.5 -10.5t-67.5 -2.5t-64.5 2t-66.5 11z" />
<glyph unicode="&#x2020;" horiz-adv-x="1120" d="M238 702q0 63 10 125t35 127h305l90 519q74 12 141 12q72 0 139 -12l-90 -519h306q0 -61 -10.5 -123.5t-35.5 -128.5h-305l-188 -1062q-72 -12 -141 -13q-70 0 -140 13l189 1062h-305z" />
<glyph unicode="&#x2021;" horiz-adv-x="1120" d="M143 170q0 61 10.5 123.5t34.5 128.5h306l67 383h-305q0 66 10 126t33 126h305l74 416q74 12 141 12q72 0 139 -12l-73 -416h305q4 -61 -8.5 -124t-34.5 -128h-305l-68 -383h305q0 -61 -10 -123.5t-35 -128.5h-305l-94 -530q-72 -12 -141 -13q-70 0 -140 13l95 530h-306z " />
<glyph unicode="&#x2022;" d="M281 752q0 63 24.5 118.5t65.5 97.5t97 66.5t120 24.5q63 0 118.5 -24.5t97.5 -66.5t66.5 -97.5t24.5 -118.5t-24.5 -120t-66.5 -97.5t-97.5 -65.5t-118.5 -25t-119.5 25t-97.5 65.5t-65.5 97.5t-24.5 120z" />
<glyph unicode="&#x2026;" horiz-adv-x="1697" d="M145 0q0 80 13.5 151.5t38.5 147.5q41 8 77.5 11t73.5 3q35 0 73 -3t75 -11q0 -80 -13.5 -151.5t-38.5 -147.5q-41 -8 -77.5 -11t-73.5 -3q-35 0 -73 3t-75 11zM698 0q0 80 13.5 151.5t38.5 147.5q41 8 77.5 11t73.5 3q35 0 73 -3t75 -11q0 -80 -13.5 -151.5 t-38.5 -147.5q-41 -8 -77.5 -11t-73.5 -3q-35 0 -73 3t-75 11zM1251 0q0 80 13.5 151.5t38.5 147.5q41 8 77.5 11t73.5 3q35 0 73 -3t75 -11q0 -80 -13.5 -151.5t-38.5 -147.5q-41 -8 -77.5 -11t-73.5 -3q-35 0 -73 3t-75 11z" />
<glyph unicode="&#x202f;" horiz-adv-x="401" />
<glyph unicode="&#x2030;" horiz-adv-x="2904" d="M227 936q0 102 30 198.5t87 172t143 121t201 45.5q84 0 144.5 -27t98.5 -73t56.5 -107.5t18.5 -130.5q0 -111 -33 -207.5t-92.5 -169t-143.5 -114.5t-188 -42q-86 0 -147.5 26.5t-99.5 71.5t-56.5 106.5t-18.5 129.5zM477 942q0 -68 25 -106.5t74 -38.5q51 0 84.5 34.5 t55 85t31 106.5t9.5 101q0 72 -23.5 112t-77.5 40q-51 0 -85.5 -36t-55 -88t-29 -109.5t-8.5 -100.5zM497 4l990 1448q70 12 143 12q63 0 141 -12l-991 -1448q-72 -12 -137 -12q-70 0 -146 12zM1259 309q0 102 30 198.5t87 172t143 121t201 45.5q84 0 144.5 -27t98.5 -73 t56.5 -107.5t18.5 -130.5q0 -111 -33 -207.5t-92.5 -169t-143.5 -114.5t-188 -42q-86 0 -147.5 26.5t-99.5 71.5t-56.5 106.5t-18.5 129.5zM1509 315q0 -68 25 -106.5t74 -38.5q51 0 84.5 34.5t55 85t31 106.5t9.5 101q0 72 -23.5 112t-77.5 40q-51 0 -85.5 -36t-55 -88 t-29 -109.5t-8.5 -100.5zM2125 309q0 102 30 198.5t87 172t143 121t201 45.5q84 0 144.5 -27t98.5 -73t56.5 -107.5t18.5 -130.5q0 -111 -33 -207.5t-92.5 -169t-143.5 -114.5t-188 -42q-86 0 -147.5 26.5t-99.5 71.5t-56.5 106.5t-18.5 129.5zM2375 315q0 -68 25 -106.5 t74 -38.5q51 0 84.5 34.5t55 85t31 106.5t9.5 101q0 72 -23.5 112t-77.5 40q-51 0 -85.5 -36t-55 -88t-29 -109.5t-8.5 -100.5z" />
<glyph unicode="&#x2039;" horiz-adv-x="782" d="M178 551l430 448q63 12 140 13q41 0 89 -3t89 -10l-437 -467l256 -442q-80 -12 -163 -12q-72 0 -136 12z" />
<glyph unicode="&#x203a;" horiz-adv-x="800" d="M72 90l442 479l-262 430q80 12 164 13q70 0 135 -13l270 -471l-424 -438q-33 -6 -72.5 -9t-74.5 -3q-41 0 -89 3t-89 9z" />
<glyph unicode="&#x2044;" horiz-adv-x="450" d="M-412 4l990 1448q70 12 143 12q63 0 141 -12l-991 -1448q-72 -12 -137 -12q-70 0 -146 12z" />
<glyph unicode="&#x205f;" horiz-adv-x="501" />
<glyph unicode="&#x2070;" d="M229 936q0 102 30 198.5t87 172t143 121t201 45.5q84 0 144.5 -27t98.5 -73t56.5 -107.5t18.5 -130.5q0 -111 -33 -207.5t-92.5 -169t-143.5 -114.5t-188 -42q-86 0 -147.5 26.5t-99.5 71.5t-56.5 106.5t-18.5 129.5zM479 942q0 -68 25 -106.5t74 -38.5q51 0 84.5 34.5 t55 85t31 106.5t9.5 101q0 72 -23.5 112t-77.5 40q-51 0 -85.5 -36t-55 -88t-29 -109.5t-8.5 -100.5z" />
<glyph unicode="&#x2074;" d="M193 811l432 668q51 -6 102 -27.5t86 -50.5l-313 -463h155l29 160q23 4 42 5t52 1q59 0 103 -6l-27 -160h84q2 -41 -5 -82t-22 -82h-84l-24 -149q-27 -4 -48.5 -6.5t-52.5 -2.5q-59 0 -98 9l25 149h-422z" />
<glyph unicode="&#x2075;" d="M231 657q10 43 24.5 84t55.5 90q45 -20 93.5 -33.5t101.5 -13.5q78 0 121 32t43 89q0 43 -29 67.5t-96 24.5q-35 0 -71 -6t-79 -24l-28 32l96 445h479q0 -96 -31 -182h-307l-29 -119q43 12 93 12q45 0 89 -12.5t77.5 -39t54 -69.5t20.5 -102q0 -88 -33.5 -150.5 t-89 -102.5t-127 -59.5t-147.5 -19.5q-84 0 -161 16.5t-120 40.5z" />
<glyph unicode="&#x2076;" d="M258 905q0 123 45 224.5t127 177t193.5 121t246.5 55.5q16 -55 17 -103q0 -41 -13 -80q-49 -2 -101 -13t-101 -36.5t-92 -66t-76 -101.5q111 92 225 93q92 0 155.5 -59.5t63.5 -170.5q0 -80 -31.5 -145.5t-85 -110.5t-122 -69.5t-142.5 -24.5q-156 0 -232.5 87t-76.5 222 zM498 877q0 -47 23.5 -75t70.5 -28q55 0 90 45t35 103q0 53 -24.5 74.5t-67.5 21.5q-47 0 -87 -41t-40 -100z" />
<glyph unicode="&#x2077;" d="M346 684l361 582h-334q0 45 8 90t22 92h627l10 -33l-493 -815q-55 10 -105.5 29.5t-95.5 54.5z" />
<glyph unicode="&#x2078;" d="M250 807q0 86 58 148.5t134 103.5q-76 61 -75 162q0 61 25.5 107t69.5 79t104.5 49.5t129.5 16.5q129 0 199 -55.5t70 -141.5q0 -66 -45.5 -120t-102.5 -89q49 -29 89 -74t40 -110q0 -70 -33.5 -122t-89 -88t-125 -53.5t-141.5 -17.5q-61 0 -116.5 11.5t-98.5 36 t-67.5 63.5t-24.5 94zM481 852q0 -31 27 -54.5t78 -23.5q45 0 82 17.5t37 64.5q0 20 -13.5 38.5t-33 33t-41 27t-37.5 20.5q-35 -16 -67 -46t-32 -77zM578 1237q0 -35 31.5 -60.5t60.5 -35.5q33 18 57.5 42.5t24.5 61.5q0 23 -20.5 44.5t-59.5 21.5q-41 0 -67.5 -19.5 t-26.5 -54.5z" />
<glyph unicode="&#x2079;" d="M279 1133q0 80 31.5 145t85 110.5t122 70t141.5 24.5q156 0 233 -87t77 -222q0 -123 -45 -224.5t-127 -177.5t-194 -121t-247 -55q-16 55 -16 102q0 39 12 80q49 2 101.5 13.5t101.5 37t92 65.5t76 101q-111 -92 -225 -92q-92 0 -155.5 59.5t-63.5 170.5zM510 1163 q0 -53 24.5 -74.5t67.5 -21.5q47 0 87 41t40 100q0 47 -23.5 75t-70.5 28q-55 0 -90 -45t-35 -103z" />
<glyph unicode="&#x2080;" d="M141 313q0 102 30 198.5t87 172t143 121t201 45.5q84 0 144.5 -27t98.5 -73t56.5 -107.5t18.5 -130.5q0 -111 -33 -207.5t-92.5 -169t-143.5 -114.5t-188 -42q-86 0 -147.5 26.5t-99.5 71.5t-56.5 106.5t-18.5 129.5zM391 319q0 -68 25 -106.5t74 -38.5q51 0 84.5 34.5 t55 85t31 106.5t9.5 101q0 72 -23.5 112t-77.5 40q-51 0 -85.5 -36t-55 -88t-29 -109.5t-8.5 -100.5z" />
<glyph unicode="&#x2081;" d="M250 2q-4 49 4 99t31 93h164l63 363l-154 -58q-29 41 -45 82t-22 94l409 160h84l-110 -641h174q4 -47 -5 -101t-30 -91h-563z" />
<glyph unicode="&#x2082;" d="M135 39l313 301q57 55 105.5 109t48.5 112q0 92 -97 92q-47 0 -92 -13.5t-92 -35.5q-16 35 -31.5 79t-19.5 95q59 29 139 50.5t158 21.5q137 0 211 -67t74 -171q0 -59 -16.5 -105.5t-45.5 -88.5t-67.5 -79.5t-83.5 -80.5l-66 -62h246q0 -47 -8.5 -97t-26.5 -97h-641z" />
<glyph unicode="&#x2083;" d="M162 30q8 47 30.5 91t51.5 77q53 -18 94 -29.5t94 -11.5q31 0 61.5 7.5t55 22.5t39 37.5t14.5 53.5q0 47 -34 67.5t-79 20.5q-12 0 -33.5 -2t-56.5 -12l-35 45l226 244h-279q0 47 7.5 92t23.5 92h541l14 -41l-238 -285q86 -14 130 -68.5t44 -133.5q0 -74 -31.5 -133.5 t-87 -100.5t-128 -62.5t-154.5 -21.5q-86 0 -151.5 14.5t-118.5 36.5z" />
<glyph unicode="&#x2084;" d="M125 188l432 668q51 -6 102 -27.5t86 -50.5l-313 -463h155l29 160q23 4 42 5t52 1q59 0 103 -6l-27 -160h84q2 -41 -5 -82t-22 -82h-84l-24 -149q-27 -4 -48.5 -6.5t-52.5 -2.5q-59 0 -98 9l25 149h-422z" />
<glyph unicode="&#x2085;" d="M127 34q10 43 24.5 84t55.5 90q45 -20 93.5 -33.5t101.5 -13.5q78 0 121 32t43 89q0 43 -29 67.5t-96 24.5q-35 0 -71 -6t-79 -24l-28 32l96 445h479q0 -96 -31 -182h-307l-29 -119q43 12 93 12q45 0 89 -12.5t77.5 -39t54 -69.5t20.5 -102q0 -88 -33.5 -150.5 t-89 -102.5t-127 -59.5t-147.5 -19.5q-84 0 -161 16.5t-120 40.5z" />
<glyph unicode="&#x2086;" d="M178 282q0 123 45 224.5t127 177t193.5 121t246.5 55.5q16 -55 17 -103q0 -41 -13 -80q-49 -2 -101 -13t-101 -36.5t-92 -66t-76 -101.5q111 92 225 93q92 0 155.5 -59.5t63.5 -170.5q0 -80 -31.5 -145.5t-85 -110.5t-122 -69.5t-142.5 -24.5q-156 0 -232.5 87t-76.5 222 zM418 254q0 -47 23.5 -75t70.5 -28q55 0 90 45t35 103q0 53 -24.5 74.5t-67.5 21.5q-47 0 -87 -41t-40 -100z" />
<glyph unicode="&#x2087;" d="M254 61l361 582h-334q0 45 8 90t22 92h627l10 -33l-493 -815q-55 10 -105.5 29.5t-95.5 54.5z" />
<glyph unicode="&#x2088;" d="M170 184q0 86 58 148.5t134 103.5q-76 61 -75 162q0 61 25.5 107t69.5 79t104.5 49.5t129.5 16.5q129 0 199 -55.5t70 -141.5q0 -66 -45.5 -120t-102.5 -89q49 -29 89 -74t40 -110q0 -70 -33.5 -122t-89 -88t-125 -53.5t-141.5 -17.5q-61 0 -116.5 11.5t-98.5 36 t-67.5 63.5t-24.5 94zM401 229q0 -31 27 -54.5t78 -23.5q45 0 82 17.5t37 64.5q0 20 -13.5 38.5t-33 33t-41 27t-37.5 20.5q-35 -16 -67 -46t-32 -77zM498 614q0 -35 31.5 -60.5t60.5 -35.5q33 18 57.5 42.5t24.5 61.5q0 23 -20.5 44.5t-59.5 21.5q-41 0 -67.5 -19.5 t-26.5 -54.5z" />
<glyph unicode="&#x2089;" d="M211 510q0 80 31.5 145t85 110.5t122 70t141.5 24.5q156 0 233 -87t77 -222q0 -123 -45 -224.5t-127 -177.5t-194 -121t-247 -55q-16 55 -16 102q0 39 12 80q49 2 101.5 13.5t101.5 37t92 65.5t76 101q-111 -92 -225 -92q-92 0 -155.5 59.5t-63.5 170.5zM442 540 q0 -53 24.5 -74.5t67.5 -21.5q47 0 87 41t40 100q0 47 -23.5 75t-70.5 28q-55 0 -90 -45t-35 -103z" />
<glyph unicode="&#x20ac;" horiz-adv-x="1228" d="M133 457q-4 88 31 172h155q4 43 8.5 84t12.5 82h-145q-4 39 4 85t24 87h166q43 113 110.5 206t156.5 159.5t200 102t242 35.5q96 0 178 -15t147 -50q-12 -63 -31.5 -115.5t-54.5 -118.5q-70 27 -124 35t-109 8q-150 0 -243 -68.5t-146 -178.5h422q6 -43 -4.5 -87 t-24.5 -85h-449q-14 -80 -18 -166h436q6 -39 -4 -89.5t-26 -82.5h-400q18 -113 86 -167t201 -54q31 0 57.5 2t53 6t57.5 13t69 22q23 -53 36.5 -118t17.5 -128q-45 -18 -96.5 -29.5t-99.5 -17.5t-90 -8.5t-67 -2.5q-137 0 -236 34t-166 97.5t-103.5 152.5t-44.5 198h-189z " />
<glyph unicode="&#x2113;" horiz-adv-x="942" d="M145 365l170 110v445q0 164 18.5 263t55.5 165t91.5 94t135.5 28q133 0 199 -73q16 -20 30.5 -45t25 -60t15.5 -83t5 -115q0 -158 -80 -338q-78 -182 -295 -381q0 -29 5 -62.5t17.5 -62.5t34 -47.5t56.5 -18.5t72.5 26t70.5 58q18 18 36.5 40t37.5 44l127 -127 q-49 -68 -113 -121q-53 -47 -121.5 -83.5t-142.5 -36.5q-117 0 -186.5 70.5t-85.5 201.5l-97 -61zM516 623q90 109 129 247q41 145 41 228q0 100 -18.5 135t-59.5 35q-59 0 -75.5 -86t-16.5 -275v-284z" />
<glyph unicode="&#x2122;" horiz-adv-x="1638" d="M233 1346q0 55 9 102h602q4 -25 6 -49.5t2 -48.5q0 -25 -2 -49.5t-6 -47.5h-195v-622q-29 -6 -55.5 -10.5t-54.5 -4.5q-51 0 -101 15v622h-196q-8 41 -9 93zM926 631l45 815q35 4 62.5 7t51.5 3q20 0 45 -3t60 -7l156 -389l151 389q29 4 52.5 7t49.5 3q23 0 50.5 -3 t58.5 -7l45 -815q-33 -6 -57.5 -9.5t-48.5 -3.5q-20 0 -46 1.5t-59 11.5l-26 416l-115 -269q-18 -4 -33.5 -5t-42.5 -1q-16 0 -33.5 1t-46.5 5l-94 260l-21 -407q-31 -10 -55 -11.5t-45 -1.5q-23 0 -46 3.5t-58 9.5z" />
<glyph unicode="&#x2126;" horiz-adv-x="1499" d="M123 0q2 70 12 132.5t29 121.5h192q-14 25 -30.5 65.5t-31.5 94t-25.5 117t-10.5 131.5q0 162 45 313t135 267t223.5 185.5t309.5 69.5q129 0 227 -40t165 -113.5t101.5 -177t34.5 -232.5q0 -92 -18.5 -185.5t-51 -181.5t-79.5 -168t-105 -145h164q-2 -72 -12.5 -133.5 t-28.5 -120.5h-539l-6 39q23 12 59 56t77.5 111.5t82.5 152.5t75 179.5t55.5 192.5t21.5 191q0 160 -71.5 239.5t-194.5 79.5q-102 0 -175 -55.5t-119 -146.5t-66.5 -207.5t-20.5 -239.5q0 -94 13 -177t32.5 -154t43 -127t44.5 -95l-16 -39h-541z" />
<glyph unicode="&#x212e;" horiz-adv-x="1374" d="M199 537q0 111 47 208t127 169.5t187.5 114.5t227.5 42q123 0 230.5 -43t187.5 -117.5t125 -175t45 -213.5h-940q-12 0 -12 -16v-264q0 -10 6 -34t23 -40q59 -59 145 -97t190 -38q117 0 210.5 47t162.5 129h88q-78 -98 -197.5 -153.5t-263.5 -55.5q-121 0 -228 42 t-187 114.5t-127 171t-47 209.5zM424 563q0 -14 10 -14h707q10 0 10 14v268q0 41 -23 70q-141 141 -340 141q-197 0 -337 -141q-10 -14 -18.5 -32.5t-8.5 -37.5v-268z" />
<glyph unicode="&#x2153;" horiz-adv-x="2150" d="M293 625q-4 49 4 99t31 93h164l63 363l-154 -58q-29 41 -45 82t-22 94l409 160h84l-110 -641h174q4 -47 -5 -101t-30 -91h-563zM614 4l990 1448q70 12 143 12q63 0 141 -12l-991 -1448q-72 -12 -137 -12q-70 0 -146 12zM1436 30q8 47 30.5 91t51.5 77q53 -18 94 -29.5 t94 -11.5q31 0 61.5 7.5t55 22.5t39 37.5t14.5 53.5q0 47 -34 67.5t-79 20.5q-12 0 -33.5 -2t-56.5 -12l-35 45l226 244h-279q0 47 7.5 92t23.5 92h541l14 -41l-238 -285q86 -14 130 -68.5t44 -133.5q0 -74 -31.5 -133.5t-87 -100.5t-128 -62.5t-154.5 -21.5 q-86 0 -151.5 14.5t-118.5 36.5z" />
<glyph unicode="&#x2154;" horiz-adv-x="2150" d="M203 662l313 301q57 55 105.5 109t48.5 112q0 92 -97 92q-47 0 -92 -13.5t-92 -35.5q-16 35 -31.5 79t-19.5 95q59 29 139 50.5t158 21.5q137 0 211 -67t74 -171q0 -59 -16.5 -105.5t-45.5 -88.5t-67.5 -79.5t-83.5 -80.5l-66 -62h246q0 -47 -8.5 -97t-26.5 -97h-641z M581 4l990 1448q70 12 143 12q63 0 141 -12l-991 -1448q-72 -12 -137 -12q-70 0 -146 12zM1416 30q8 47 30.5 91t51.5 77q53 -18 94 -29.5t94 -11.5q31 0 61.5 7.5t55 22.5t39 37.5t14.5 53.5q0 47 -34 67.5t-79 20.5q-12 0 -33.5 -2t-56.5 -12l-35 45l226 244h-279 q0 47 7.5 92t23.5 92h541l14 -41l-238 -285q86 -14 130 -68.5t44 -133.5q0 -74 -31.5 -133.5t-87 -100.5t-128 -62.5t-154.5 -21.5q-86 0 -151.5 14.5t-118.5 36.5z" />
<glyph unicode="&#x2155;" horiz-adv-x="2150" d="M293 625q-4 49 4 99t31 93h164l63 363l-154 -58q-29 41 -45 82t-22 94l409 160h84l-110 -641h174q4 -47 -5 -101t-30 -91h-563zM575 4l990 1448q70 12 143 12q63 0 141 -12l-991 -1448q-72 -12 -137 -12q-70 0 -146 12zM1384 34q10 43 24.5 84t55.5 90q45 -20 93.5 -33.5 t101.5 -13.5q78 0 121 32t43 89q0 43 -29 67.5t-96 24.5q-35 0 -71 -6t-79 -24l-28 32l96 445h479q0 -96 -31 -182h-307l-29 -119q43 12 93 12q45 0 89 -12.5t77.5 -39t54 -69.5t20.5 -102q0 -88 -33.5 -150.5t-89 -102.5t-127 -59.5t-147.5 -19.5q-84 0 -161 16.5 t-120 40.5z" />
<glyph unicode="&#x2156;" horiz-adv-x="2150" d="M203 662l313 301q57 55 105.5 109t48.5 112q0 92 -97 92q-47 0 -92 -13.5t-92 -35.5q-16 35 -31.5 79t-19.5 95q59 29 139 50.5t158 21.5q137 0 211 -67t74 -171q0 -59 -16.5 -105.5t-45.5 -88.5t-67.5 -79.5t-83.5 -80.5l-66 -62h246q0 -47 -8.5 -97t-26.5 -97h-641z M622 4l990 1448q70 12 143 12q63 0 141 -12l-991 -1448q-72 -12 -137 -12q-70 0 -146 12zM1425 34q10 43 24.5 84t55.5 90q45 -20 93.5 -33.5t101.5 -13.5q78 0 121 32t43 89q0 43 -29 67.5t-96 24.5q-35 0 -71 -6t-79 -24l-28 32l96 445h479q0 -96 -31 -182h-307l-29 -119 q43 12 93 12q45 0 89 -12.5t77.5 -39t54 -69.5t20.5 -102q0 -88 -33.5 -150.5t-89 -102.5t-127 -59.5t-147.5 -19.5q-84 0 -161 16.5t-120 40.5z" />
<glyph unicode="&#x2157;" horiz-adv-x="2150" d="M242 653q8 47 30.5 91t51.5 77q53 -18 94 -29.5t94 -11.5q31 0 61.5 7.5t55 22.5t39 37.5t14.5 53.5q0 47 -34 67.5t-79 20.5q-12 0 -33.5 -2t-56.5 -12l-35 45l226 244h-279q0 47 7.5 92t23.5 92h541l14 -41l-238 -285q86 -14 130 -68.5t44 -133.5q0 -74 -31.5 -133.5 t-87 -100.5t-128 -62.5t-154.5 -21.5q-86 0 -151.5 14.5t-118.5 36.5zM555 4l990 1448q70 12 143 12q63 0 141 -12l-991 -1448q-72 -12 -137 -12q-70 0 -146 12zM1353 34q10 43 24.5 84t55.5 90q45 -20 93.5 -33.5t101.5 -13.5q78 0 121 32t43 89q0 43 -29 67.5t-96 24.5 q-35 0 -71 -6t-79 -24l-28 32l96 445h479q0 -96 -31 -182h-307l-29 -119q43 12 93 12q45 0 89 -12.5t77.5 -39t54 -69.5t20.5 -102q0 -88 -33.5 -150.5t-89 -102.5t-127 -59.5t-147.5 -19.5q-84 0 -161 16.5t-120 40.5z" />
<glyph unicode="&#x2158;" horiz-adv-x="2150" d="M193 811l432 668q51 -6 102 -27.5t86 -50.5l-313 -463h155l29 160q23 4 42 5t52 1q59 0 103 -6l-27 -160h84q2 -41 -5 -82t-22 -82h-84l-24 -149q-27 -4 -48.5 -6.5t-52.5 -2.5q-59 0 -98 9l25 149h-422zM581 4l990 1448q70 12 143 12q63 0 141 -12l-991 -1448 q-72 -12 -137 -12q-70 0 -146 12zM1366 34q10 43 24.5 84t55.5 90q45 -20 93.5 -33.5t101.5 -13.5q78 0 121 32t43 89q0 43 -29 67.5t-96 24.5q-35 0 -71 -6t-79 -24l-28 32l96 445h479q0 -96 -31 -182h-307l-29 -119q43 12 93 12q45 0 89 -12.5t77.5 -39t54 -69.5 t20.5 -102q0 -88 -33.5 -150.5t-89 -102.5t-127 -59.5t-147.5 -19.5q-84 0 -161 16.5t-120 40.5z" />
<glyph unicode="&#x2159;" horiz-adv-x="2150" d="M293 625q-4 49 4 99t31 93h164l63 363l-154 -58q-29 41 -45 82t-22 94l409 160h84l-110 -641h174q4 -47 -5 -101t-30 -91h-563zM606 4l990 1448q70 12 143 12q63 0 141 -12l-991 -1448q-72 -12 -137 -12q-70 0 -146 12zM1432 282q0 123 45 224.5t127 177t193.5 121 t246.5 55.5q16 -55 17 -103q0 -41 -13 -80q-49 -2 -101 -13t-101 -36.5t-92 -66t-76 -101.5q111 92 225 93q92 0 155.5 -59.5t63.5 -170.5q0 -80 -31.5 -145.5t-85 -110.5t-122 -69.5t-142.5 -24.5q-156 0 -232.5 87t-76.5 222zM1672 254q0 -47 23.5 -75t70.5 -28 q55 0 90 45t35 103q0 53 -24.5 74.5t-67.5 21.5q-47 0 -87 -41t-40 -100z" />
<glyph unicode="&#x215a;" horiz-adv-x="2150" d="M231 657q10 43 24.5 84t55.5 90q45 -20 93.5 -33.5t101.5 -13.5q78 0 121 32t43 89q0 43 -29 67.5t-96 24.5q-35 0 -71 -6t-79 -24l-28 32l96 445h479q0 -96 -31 -182h-307l-29 -119q43 12 93 12q45 0 89 -12.5t77.5 -39t54 -69.5t20.5 -102q0 -88 -33.5 -150.5 t-89 -102.5t-127 -59.5t-147.5 -19.5q-84 0 -161 16.5t-120 40.5zM544 4l990 1448q70 12 143 12q63 0 141 -12l-991 -1448q-72 -12 -137 -12q-70 0 -146 12zM1370 282q0 123 45 224.5t127 177t193.5 121t246.5 55.5q16 -55 17 -103q0 -41 -13 -80q-49 -2 -101 -13 t-101 -36.5t-92 -66t-76 -101.5q111 92 225 93q92 0 155.5 -59.5t63.5 -170.5q0 -80 -31.5 -145.5t-85 -110.5t-122 -69.5t-142.5 -24.5q-156 0 -232.5 87t-76.5 222zM1610 254q0 -47 23.5 -75t70.5 -28q55 0 90 45t35 103q0 53 -24.5 74.5t-67.5 21.5q-47 0 -87 -41 t-40 -100z" />
<glyph unicode="&#x215b;" horiz-adv-x="2150" d="M293 625q-4 49 4 99t31 93h164l63 363l-154 -58q-29 41 -45 82t-22 94l409 160h84l-110 -641h174q4 -47 -5 -101t-30 -91h-563zM600 4l990 1448q70 12 143 12q63 0 141 -12l-991 -1448q-72 -12 -137 -12q-70 0 -146 12zM1415 184q0 86 58 148.5t134 103.5q-76 61 -75 162 q0 61 25.5 107t69.5 79t104.5 49.5t129.5 16.5q129 0 199 -55.5t70 -141.5q0 -66 -45.5 -120t-102.5 -89q49 -29 89 -74t40 -110q0 -70 -33.5 -122t-89 -88t-125 -53.5t-141.5 -17.5q-61 0 -116.5 11.5t-98.5 36t-67.5 63.5t-24.5 94zM1646 229q0 -31 27 -54.5t78 -23.5 q45 0 82 17.5t37 64.5q0 20 -13.5 38.5t-33 33t-41 27t-37.5 20.5q-35 -16 -67 -46t-32 -77zM1743 614q0 -35 31.5 -60.5t60.5 -35.5q33 18 57.5 42.5t24.5 61.5q0 23 -20.5 44.5t-59.5 21.5q-41 0 -67.5 -19.5t-26.5 -54.5z" />
<glyph unicode="&#x215c;" horiz-adv-x="2150" d="M242 653q8 47 30.5 91t51.5 77q53 -18 94 -29.5t94 -11.5q31 0 61.5 7.5t55 22.5t39 37.5t14.5 53.5q0 47 -34 67.5t-79 20.5q-12 0 -33.5 -2t-56.5 -12l-35 45l226 244h-279q0 47 7.5 92t23.5 92h541l14 -41l-238 -285q86 -14 130 -68.5t44 -133.5q0 -74 -31.5 -133.5 t-87 -100.5t-128 -62.5t-154.5 -21.5q-86 0 -151.5 14.5t-118.5 36.5zM563 4l990 1448q70 12 143 12q63 0 141 -12l-991 -1448q-72 -12 -137 -12q-70 0 -146 12zM1403 184q0 86 58 148.5t134 103.5q-76 61 -75 162q0 61 25.5 107t69.5 79t104.5 49.5t129.5 16.5 q129 0 199 -55.5t70 -141.5q0 -66 -45.5 -120t-102.5 -89q49 -29 89 -74t40 -110q0 -70 -33.5 -122t-89 -88t-125 -53.5t-141.5 -17.5q-61 0 -116.5 11.5t-98.5 36t-67.5 63.5t-24.5 94zM1634 229q0 -31 27 -54.5t78 -23.5q45 0 82 17.5t37 64.5q0 20 -13.5 38.5t-33 33 t-41 27t-37.5 20.5q-35 -16 -67 -46t-32 -77zM1731 614q0 -35 31.5 -60.5t60.5 -35.5q33 18 57.5 42.5t24.5 61.5q0 23 -20.5 44.5t-59.5 21.5q-41 0 -67.5 -19.5t-26.5 -54.5z" />
<glyph unicode="&#x215d;" horiz-adv-x="2150" d="M231 657q10 43 24.5 84t55.5 90q45 -20 93.5 -33.5t101.5 -13.5q78 0 121 32t43 89q0 43 -29 67.5t-96 24.5q-35 0 -71 -6t-79 -24l-28 32l96 445h479q0 -96 -31 -182h-307l-29 -119q43 12 93 12q45 0 89 -12.5t77.5 -39t54 -69.5t20.5 -102q0 -88 -33.5 -150.5 t-89 -102.5t-127 -59.5t-147.5 -19.5q-84 0 -161 16.5t-120 40.5zM569 4l990 1448q70 12 143 12q63 0 141 -12l-991 -1448q-72 -12 -137 -12q-70 0 -146 12zM1407 184q0 86 58 148.5t134 103.5q-76 61 -75 162q0 61 25.5 107t69.5 79t104.5 49.5t129.5 16.5q129 0 199 -55.5 t70 -141.5q0 -66 -45.5 -120t-102.5 -89q49 -29 89 -74t40 -110q0 -70 -33.5 -122t-89 -88t-125 -53.5t-141.5 -17.5q-61 0 -116.5 11.5t-98.5 36t-67.5 63.5t-24.5 94zM1638 229q0 -31 27 -54.5t78 -23.5q45 0 82 17.5t37 64.5q0 20 -13.5 38.5t-33 33t-41 27t-37.5 20.5 q-35 -16 -67 -46t-32 -77zM1735 614q0 -35 31.5 -60.5t60.5 -35.5q33 18 57.5 42.5t24.5 61.5q0 23 -20.5 44.5t-59.5 21.5q-41 0 -67.5 -19.5t-26.5 -54.5z" />
<glyph unicode="&#x215e;" horiz-adv-x="2150" d="M346 684l361 582h-334q0 45 8 90t22 92h627l10 -33l-493 -815q-55 10 -105.5 29.5t-95.5 54.5zM485 4l990 1448q70 12 143 12q63 0 141 -12l-991 -1448q-72 -12 -137 -12q-70 0 -146 12zM1380 184q0 86 58 148.5t134 103.5q-76 61 -75 162q0 61 25.5 107t69.5 79 t104.5 49.5t129.5 16.5q129 0 199 -55.5t70 -141.5q0 -66 -45.5 -120t-102.5 -89q49 -29 89 -74t40 -110q0 -70 -33.5 -122t-89 -88t-125 -53.5t-141.5 -17.5q-61 0 -116.5 11.5t-98.5 36t-67.5 63.5t-24.5 94zM1611 229q0 -31 27 -54.5t78 -23.5q45 0 82 17.5t37 64.5 q0 20 -13.5 38.5t-33 33t-41 27t-37.5 20.5q-35 -16 -67 -46t-32 -77zM1708 614q0 -35 31.5 -60.5t60.5 -35.5q33 18 57.5 42.5t24.5 61.5q0 23 -20.5 44.5t-59.5 21.5q-41 0 -67.5 -19.5t-26.5 -54.5z" />
<glyph unicode="&#x2202;" horiz-adv-x="1234" d="M164 379q0 131 43 236.5t117.5 179t173 112.5t209.5 39q74 0 142.5 -21.5t121.5 -50.5q2 74 -9.5 139.5t-40 114t-79.5 76t-129 27.5q-74 0 -131.5 -17.5t-116.5 -42.5q-23 43 -37 97.5t-14 105.5q72 43 173 71t206 28q129 0 217 -42t143 -115t78.5 -169t23.5 -207 q0 -176 -31.5 -349t-108.5 -310.5t-206 -221.5t-325 -84q-86 0 -163 21.5t-134.5 69t-90 125t-32.5 188.5zM449 410q0 -92 40.5 -144.5t133.5 -52.5q72 0 123 30.5t86.5 87t60.5 135.5t43 175q-47 29 -105.5 49.5t-119.5 20.5q-63 0 -111.5 -23.5t-82.5 -64.5t-51 -95.5 t-17 -117.5z" />
<glyph unicode="&#x2206;" horiz-adv-x="1282" d="M41 0l684 1448q41 6 89 9t93 3q39 0 76 -3t80 -9l197 -1448h-1219zM446 248h488l-92 889z" />
<glyph unicode="&#x220f;" horiz-adv-x="1497" d="M186 -358l273 1552h-207q0 57 10 116.5t33 137.5h1388q4 -59 -8 -126t-35 -128h-202l-273 -1552q-72 -12 -141 -13q-82 0 -152 13l271 1552h-389l-273 -1552q-80 -12 -157 -13q-41 0 -73 3t-65 10z" />
<glyph unicode="&#x2211;" horiz-adv-x="1030" d="M-152 -350l631 917l-278 856l18 25h920q4 -59 -8.5 -119.5t-34.5 -134.5h-521l203 -651l-442 -660h500q4 -72 -7.5 -130t-33.5 -124h-936z" />
<glyph unicode="&#x2212;" horiz-adv-x="1228" d="M299 600q0 68 10 125t33 123h862q4 -61 -8 -127t-35 -121h-862z" />
<glyph unicode="&#x2215;" horiz-adv-x="837" d="M31 0l729 1470q78 14 149 15q76 0 142 -15l-732 -1470q-80 -12 -149 -12q-70 0 -139 12z" />
<glyph unicode="&#x2219;" horiz-adv-x="591" d="M233 438q0 80 13.5 151.5t38.5 147.5q41 8 77.5 11t73.5 3q35 0 73 -3t75 -11q0 -80 -13.5 -151.5t-38.5 -147.5q-41 -8 -77.5 -11t-73.5 -3q-35 0 -73 3t-75 11z" />
<glyph unicode="&#x221a;" horiz-adv-x="1277" d="M174 600q0 31 2 61.5t8 63.5t13.5 62.5t17.5 60.5h395l76 -537l576 1133q41 6 76.5 8t72.5 2q35 0 71 -2t72 -8l-757 -1444q-86 -12 -172 -12q-41 0 -77 3t-77 9l-113 600h-184z" />
<glyph unicode="&#x221e;" horiz-adv-x="1601" d="M188 553q0 82 26 153.5t71 124t108.5 82t136.5 29.5q90 0 181.5 -51t181.5 -170q92 111 177 163t173 52q74 0 137.5 -29.5t108.5 -82t70.5 -124t25.5 -153.5t-25.5 -153.5t-70.5 -124t-108.5 -82t-137.5 -29.5q-90 0 -181 51t-181 170q-92 -111 -177.5 -163t-173.5 -52 q-74 0 -137 29.5t-108 82t-71 123t-26 154.5zM432 553q0 -66 32 -104.5t81 -38.5q20 0 40.5 6t43 21.5t49 44t61.5 73.5q-66 86 -108.5 113.5t-83.5 27.5q-51 0 -83 -39t-32 -104zM1034 545q66 -86 109 -114t84 -28q51 0 82.5 39t31.5 105t-31.5 104.5t-80.5 38.5 q-23 0 -42.5 -6t-42 -21.5t-49 -44t-61.5 -73.5z" />
<glyph unicode="&#x222b;" horiz-adv-x="768" d="M-119 -485q14 68 31.5 122t46.5 107q20 -4 42 -9t60 -5q33 0 65 7t56.5 26.5t43 54.5t26.5 90l154 1155q14 106 55 183t102.5 128t139 76t165.5 25q59 0 98.5 -5.5t82.5 -19.5q-14 -68 -32 -122t-46 -107q-20 4 -43 9t-62 5q-35 0 -65.5 -7t-55 -26.5t-43 -54.5 t-24.5 -90l-154 -1155q-14 -106 -61 -184t-117 -128.5t-153.5 -75t-172.5 -24.5q-29 0 -45 1t-30.5 4t-27.5 8t-36 12z" />
<glyph unicode="&#x2248;" horiz-adv-x="1228" d="M285 559q47 51 120.5 87t165.5 36q43 0 83 -12.5t79 -27.5t80 -27.5t86 -12.5q20 0 41 2t41 10.5t44 22.5t52 37q31 -41 50.5 -90t23.5 -99q-49 -51 -123 -84.5t-166 -33.5q-43 0 -83 12t-80 27.5t-79.5 27.5t-84.5 12q-23 0 -43.5 -2t-40 -9t-42 -21.5t-51.5 -36.5 q-29 41 -49 87t-24 95zM338 944q49 51 124 88t167 37q43 0 82 -13.5t77.5 -28.5t79.5 -27.5t86 -12.5q41 0 80 13.5t99 60.5q31 -41 49 -90t26 -99q-49 -51 -124.5 -85.5t-165.5 -34.5q-43 0 -85 12t-84 27.5t-82 29t-77 13.5q-23 0 -43.5 -2.5t-40 -10.5t-43 -21.5 t-51.5 -37.5q-29 43 -49.5 89t-24.5 93z" />
<glyph unicode="&#x2260;" horiz-adv-x="1228" d="M250 377q-2 61 9 124.5t34 123.5h287l110 174h-366q-2 61 10 124.5t35 123.5h481l139 217q23 6 59.5 9t57.5 3q41 0 78 -12l-140 -217h187q2 -61 -10.5 -125t-34.5 -123h-301l-113 -174h383q4 -61 -8 -125t-35 -123h-498l-139 -217q-41 -12 -82 -13q-20 0 -55 3.5 t-55 9.5l139 217h-172z" />
<glyph unicode="&#x2264;" horiz-adv-x="1228" d="M164 2q0 68 10 125t33 123h862q4 -61 -8 -127t-35 -121h-862zM280 666q-6 156 54 305l907 334q0 -66 -10.5 -139.5t-34.5 -141.5l-656 -211l578 -229q2 -66 -10.5 -131.5t-38.5 -122.5z" />
<glyph unicode="&#x2265;" horiz-adv-x="1228" d="M164 2q0 68 10 125t33 123h862q4 -61 -8 -127t-35 -121h-862zM215 330q0 66 10.5 139.5t34.5 140.5l656 224l-578 217v14q0 131 49 240l789 -336v-31q0 -141 -53 -274z" />
<glyph unicode="&#x25ca;" horiz-adv-x="1142" d="M205 737l473 738q39 6 82 8t71 2q29 0 69 -2t73 -10l235 -736l-471 -737q-39 -6 -86 -8t-76 -2t-65.5 2t-69.5 10zM494 737l137 -487l295 487l-133 488z" />
<glyph unicode="&#x25fc;" horiz-adv-x="1075" d="M0 0v1075h1075v-1075h-1075z" />
<glyph unicode="&#xf506;" horiz-adv-x="2150" d="M293 625q-4 49 4 99t31 93h164l63 363l-154 -58q-29 41 -45 82t-22 94l409 160h84l-110 -641h174q4 -47 -5 -101t-30 -91h-563zM600 4l990 1448q70 12 143 12q63 0 141 -12l-991 -1448q-72 -12 -137 -12q-70 0 -146 12zM1540 61l361 582h-334q0 45 8 90t22 92h627l10 -33 l-493 -815q-55 10 -105.5 29.5t-95.5 54.5z" />
<glyph unicode="&#xf507;" horiz-adv-x="2150" d="M203 662l313 301q57 55 105.5 109t48.5 112q0 92 -97 92q-47 0 -92 -13.5t-92 -35.5q-16 35 -31.5 79t-19.5 95q59 29 139 50.5t158 21.5q137 0 211 -67t74 -171q0 -59 -16.5 -105.5t-45.5 -88.5t-67.5 -79.5t-83.5 -80.5l-66 -62h246q0 -47 -8.5 -97t-26.5 -97h-641z M598 4l990 1448q70 12 143 12q63 0 141 -12l-991 -1448q-72 -12 -137 -12q-70 0 -146 12zM1540 61l361 582h-334q0 45 8 90t22 92h627l10 -33l-493 -815q-55 10 -105.5 29.5t-95.5 54.5z" />
<glyph unicode="&#xf508;" horiz-adv-x="2150" d="M242 653q8 47 30.5 91t51.5 77q53 -18 94 -29.5t94 -11.5q31 0 61.5 7.5t55 22.5t39 37.5t14.5 53.5q0 47 -34 67.5t-79 20.5q-12 0 -33.5 -2t-56.5 -12l-35 45l226 244h-279q0 47 7.5 92t23.5 92h541l14 -41l-238 -285q86 -14 130 -68.5t44 -133.5q0 -74 -31.5 -133.5 t-87 -100.5t-128 -62.5t-154.5 -21.5q-86 0 -151.5 14.5t-118.5 36.5zM571 4l990 1448q70 12 143 12q63 0 141 -12l-991 -1448q-72 -12 -137 -12q-70 0 -146 12zM1540 61l361 582h-334q0 45 8 90t22 92h627l10 -33l-493 -815q-55 10 -105.5 29.5t-95.5 54.5z" />
<glyph unicode="&#xf509;" horiz-adv-x="2150" d="M193 811l432 668q51 -6 102 -27.5t86 -50.5l-313 -463h155l29 160q23 4 42 5t52 1q59 0 103 -6l-27 -160h84q2 -41 -5 -82t-22 -82h-84l-24 -149q-27 -4 -48.5 -6.5t-52.5 -2.5q-59 0 -98 9l25 149h-422zM579 4l990 1448q70 12 143 12q63 0 141 -12l-991 -1448 q-72 -12 -137 -12q-70 0 -146 12zM1540 61l361 582h-334q0 45 8 90t22 92h627l10 -33l-493 -815q-55 10 -105.5 29.5t-95.5 54.5z" />
<glyph unicode="&#xf50a;" horiz-adv-x="2150" d="M231 657q10 43 24.5 84t55.5 90q45 -20 93.5 -33.5t101.5 -13.5q78 0 121 32t43 89q0 43 -29 67.5t-96 24.5q-35 0 -71 -6t-79 -24l-28 32l96 445h479q0 -96 -31 -182h-307l-29 -119q43 12 93 12q45 0 89 -12.5t77.5 -39t54 -69.5t20.5 -102q0 -88 -33.5 -150.5 t-89 -102.5t-127 -59.5t-147.5 -19.5q-84 0 -161 16.5t-120 40.5zM522 4l990 1448q70 12 143 12q63 0 141 -12l-991 -1448q-72 -12 -137 -12q-70 0 -146 12zM1479 61l361 582h-334q0 45 8 90t22 92h627l10 -33l-493 -815q-55 10 -105.5 29.5t-95.5 54.5z" />
<glyph unicode="&#xf50b;" horiz-adv-x="2150" d="M258 905q0 123 45 224.5t127 177t193.5 121t246.5 55.5q16 -55 17 -103q0 -41 -13 -80q-49 -2 -101 -13t-101 -36.5t-92 -66t-76 -101.5q111 92 225 93q92 0 155.5 -59.5t63.5 -170.5q0 -80 -31.5 -145.5t-85 -110.5t-122 -69.5t-142.5 -24.5q-156 0 -232.5 87t-76.5 222 zM498 877q0 -47 23.5 -75t70.5 -28q55 0 90 45t35 103q0 53 -24.5 74.5t-67.5 21.5q-47 0 -87 -41t-40 -100zM583 4l990 1448q70 12 143 12q63 0 141 -12l-991 -1448q-72 -12 -137 -12q-70 0 -146 12zM1540 61l361 582h-334q0 45 8 90t22 92h627l10 -33l-493 -815 q-55 10 -105.5 29.5t-95.5 54.5z" />
<glyph unicode="&#xf50c;" horiz-adv-x="2150" d="M293 625q-4 49 4 99t31 93h164l63 363l-154 -58q-29 41 -45 82t-22 94l409 160h84l-110 -641h174q4 -47 -5 -101t-30 -91h-563zM587 4l990 1448q70 12 143 12q63 0 141 -12l-991 -1448q-72 -12 -137 -12q-70 0 -146 12zM1473 510q0 80 31.5 145t85 110.5t122 70 t141.5 24.5q156 0 233 -87t77 -222q0 -123 -45 -224.5t-127 -177.5t-194 -121t-247 -55q-16 55 -16 102q0 39 12 80q49 2 101.5 13.5t101.5 37t92 65.5t76 101q-111 -92 -225 -92q-92 0 -155.5 59.5t-63.5 170.5zM1704 540q0 -53 24.5 -74.5t67.5 -21.5q47 0 87 41t40 100 q0 47 -23.5 75t-70.5 28q-55 0 -90 -45t-35 -103z" />
<glyph unicode="&#xf50d;" horiz-adv-x="2150" d="M203 662l313 301q57 55 105.5 109t48.5 112q0 92 -97 92q-47 0 -92 -13.5t-92 -35.5q-16 35 -31.5 79t-19.5 95q59 29 139 50.5t158 21.5q137 0 211 -67t74 -171q0 -59 -16.5 -105.5t-45.5 -88.5t-67.5 -79.5t-83.5 -80.5l-66 -62h246q0 -47 -8.5 -97t-26.5 -97h-641z M587 4l990 1448q70 12 143 12q63 0 141 -12l-991 -1448q-72 -12 -137 -12q-70 0 -146 12zM1473 510q0 80 31.5 145t85 110.5t122 70t141.5 24.5q156 0 233 -87t77 -222q0 -123 -45 -224.5t-127 -177.5t-194 -121t-247 -55q-16 55 -16 102q0 39 12 80q49 2 101.5 13.5 t101.5 37t92 65.5t76 101q-111 -92 -225 -92q-92 0 -155.5 59.5t-63.5 170.5zM1704 540q0 -53 24.5 -74.5t67.5 -21.5q47 0 87 41t40 100q0 47 -23.5 75t-70.5 28q-55 0 -90 -45t-35 -103z" />
<glyph unicode="&#xf50e;" horiz-adv-x="2150" d="M193 811l432 668q51 -6 102 -27.5t86 -50.5l-313 -463h155l29 160q23 4 42 5t52 1q59 0 103 -6l-27 -160h84q2 -41 -5 -82t-22 -82h-84l-24 -149q-27 -4 -48.5 -6.5t-52.5 -2.5q-59 0 -98 9l25 149h-422zM565 4l990 1448q70 12 143 12q63 0 141 -12l-991 -1448 q-72 -12 -137 -12q-70 0 -146 12zM1473 510q0 80 31.5 145t85 110.5t122 70t141.5 24.5q156 0 233 -87t77 -222q0 -123 -45 -224.5t-127 -177.5t-194 -121t-247 -55q-16 55 -16 102q0 39 12 80q49 2 101.5 13.5t101.5 37t92 65.5t76 101q-111 -92 -225 -92 q-92 0 -155.5 59.5t-63.5 170.5zM1704 540q0 -53 24.5 -74.5t67.5 -21.5q47 0 87 41t40 100q0 47 -23.5 75t-70.5 28q-55 0 -90 -45t-35 -103z" />
<glyph unicode="&#xf50f;" horiz-adv-x="2150" d="M231 657q10 43 24.5 84t55.5 90q45 -20 93.5 -33.5t101.5 -13.5q78 0 121 32t43 89q0 43 -29 67.5t-96 24.5q-35 0 -71 -6t-79 -24l-28 32l96 445h479q0 -96 -31 -182h-307l-29 -119q43 12 93 12q45 0 89 -12.5t77.5 -39t54 -69.5t20.5 -102q0 -88 -33.5 -150.5 t-89 -102.5t-127 -59.5t-147.5 -19.5q-84 0 -161 16.5t-120 40.5zM532 4l990 1448q70 12 143 12q63 0 141 -12l-991 -1448q-72 -12 -137 -12q-70 0 -146 12zM1432 510q0 80 31.5 145t85 110.5t122 70t141.5 24.5q156 0 233 -87t77 -222q0 -123 -45 -224.5t-127 -177.5 t-194 -121t-247 -55q-16 55 -16 102q0 39 12 80q49 2 101.5 13.5t101.5 37t92 65.5t76 101q-111 -92 -225 -92q-92 0 -155.5 59.5t-63.5 170.5zM1663 540q0 -53 24.5 -74.5t67.5 -21.5q47 0 87 41t40 100q0 47 -23.5 75t-70.5 28q-55 0 -90 -45t-35 -103z" />
<glyph unicode="&#xf510;" horiz-adv-x="2150" d="M346 684l361 582h-334q0 45 8 90t22 92h627l10 -33l-493 -815q-55 10 -105.5 29.5t-95.5 54.5zM462 4l990 1448q70 12 143 12q63 0 141 -12l-991 -1448q-72 -12 -137 -12q-70 0 -146 12zM1412 510q0 80 31.5 145t85 110.5t122 70t141.5 24.5q156 0 233 -87t77 -222 q0 -123 -45 -224.5t-127 -177.5t-194 -121t-247 -55q-16 55 -16 102q0 39 12 80q49 2 101.5 13.5t101.5 37t92 65.5t76 101q-111 -92 -225 -92q-92 0 -155.5 59.5t-63.5 170.5zM1643 540q0 -53 24.5 -74.5t67.5 -21.5q47 0 87 41t40 100q0 47 -23.5 75t-70.5 28 q-55 0 -90 -45t-35 -103z" />
<glyph unicode="&#xf511;" horiz-adv-x="2150" d="M250 807q0 86 58 148.5t134 103.5q-76 61 -75 162q0 61 25.5 107t69.5 79t104.5 49.5t129.5 16.5q129 0 199 -55.5t70 -141.5q0 -66 -45.5 -120t-102.5 -89q49 -29 89 -74t40 -110q0 -70 -33.5 -122t-89 -88t-125 -53.5t-141.5 -17.5q-61 0 -116.5 11.5t-98.5 36 t-67.5 63.5t-24.5 94zM481 852q0 -31 27 -54.5t78 -23.5q45 0 82 17.5t37 64.5q0 20 -13.5 38.5t-33 33t-41 27t-37.5 20.5q-35 -16 -67 -46t-32 -77zM555 4l990 1448q70 12 143 12q63 0 141 -12l-991 -1448q-72 -12 -137 -12q-70 0 -146 12zM578 1237q0 -35 31.5 -60.5 t60.5 -35.5q33 18 57.5 42.5t24.5 61.5q0 23 -20.5 44.5t-59.5 21.5q-41 0 -67.5 -19.5t-26.5 -54.5zM1426 510q0 80 31.5 145t85 110.5t122 70t141.5 24.5q156 0 233 -87t77 -222q0 -123 -45 -224.5t-127 -177.5t-194 -121t-247 -55q-16 55 -16 102q0 39 12 80 q49 2 101.5 13.5t101.5 37t92 65.5t76 101q-111 -92 -225 -92q-92 0 -155.5 59.5t-63.5 170.5zM1657 540q0 -53 24.5 -74.5t67.5 -21.5q47 0 87 41t40 100q0 47 -23.5 75t-70.5 28q-55 0 -90 -45t-35 -103z" />
<glyph unicode="&#xf605;" horiz-adv-x="1130" d="M27 4l544 1126q20 2 49 4.5t58 4.5t54.5 2h41.5q33 0 80 -2t82 -11l168 -1124q-49 -10 -89 -12t-71 -2q-37 0 -78 2t-69 12l-19 193h-368l-84 -195q-29 -4 -68 -8t-80 -4q-31 0 -67.5 2t-83.5 12zM508 422h250l-43 471z" />
<glyph unicode="&#xf606;" horiz-adv-x="1079" d="M145 0l199 1128q76 10 166 17.5t178 7.5q190 0 294.5 -64.5t104.5 -199.5q0 -119 -79.5 -192.5t-196.5 -100.5q111 -10 177.5 -75.5t66.5 -170.5q0 -113 -52.5 -185.5t-133.5 -114.5t-178 -58.5t-185 -16.5q-90 0 -174 5.5t-187 19.5zM465 209q29 -6 51.5 -8t50.5 -2 q80 0 139.5 42t59.5 119q0 117 -168 117h-84zM551 686h41q102 0 158.5 41t56.5 117q0 47 -29.5 75.5t-101.5 28.5q-23 0 -44.5 -1t-35.5 -5z" />
<glyph unicode="&#xf607;" horiz-adv-x="1024" d="M190 432q0 131 40 260t123 231.5t208 166t295 63.5q72 0 142.5 -11.5t148.5 -45.5q-10 -47 -30.5 -102.5t-61.5 -125.5q-57 23 -104.5 34t-106.5 11q-90 0 -154.5 -41t-106.5 -104t-61.5 -138t-19.5 -145q0 -61 10 -110t34.5 -85t65.5 -55.5t101 -19.5q55 0 110 11 t121 36q23 -47 38 -106.5t17 -112.5q-86 -35 -172 -51.5t-163 -16.5q-127 0 -217.5 37t-146.5 99.5t-83 145.5t-27 175z" />
<glyph unicode="&#xf608;" horiz-adv-x="1224" d="M147 0l199 1128q78 10 170 17.5t178 7.5q141 0 242.5 -35t168 -96t98.5 -145t32 -183q0 -158 -47 -290t-141.5 -227t-235.5 -148.5t-330 -53.5q-78 0 -169 7.5t-165 17.5zM473 221q39 -8 78 -8q88 0 157.5 37t119 98.5t76 144t26.5 175.5q0 121 -63.5 183t-182.5 62 q-23 0 -45.5 -2t-46.5 -6z" />
<glyph unicode="&#xf609;" horiz-adv-x="956" d="M141 0l199 1128h729q-4 -59 -12 -115.5t-31 -121.5h-442l-35 -195h340q0 -61 -9.5 -119.5t-31.5 -119.5h-340l-39 -219h455q0 -59 -9.5 -115.5t-31.5 -122.5h-742z" />
<glyph unicode="&#xf60a;" horiz-adv-x="925" d="M141 0l199 1128h729q-4 -59 -12 -115.5t-31 -121.5h-442l-47 -266h340q0 -70 -10.5 -122t-30.5 -118h-340l-68 -385q-37 -6 -73 -8t-72 -2q-33 0 -70 2t-72 8z" />
<glyph unicode="&#xf60b;" horiz-adv-x="1120" d="M166 432q0 141 44 271.5t130 230.5t211 159.5t287 59.5q72 0 149.5 -14.5t155.5 -48.5q-10 -47 -37 -104.5t-68 -117.5q-57 23 -104 34t-100 11q-90 0 -158 -38.5t-112 -101t-65.5 -141.5t-21.5 -161q0 -129 48 -197.5t161 -68.5q18 0 38.5 2t43.5 6l63 367q74 12 144 12 q74 0 141 -12l-96 -541q-80 -35 -175 -49.5t-194 -14.5q-127 0 -219 36t-151.5 97.5t-87 144.5t-27.5 179z" />
<glyph unicode="&#xf60c;" horiz-adv-x="1259" d="M141 0l199 1128q70 12 143 13q74 0 146 -13l-80 -450h399l80 450q70 12 148 13q74 0 141 -13l-199 -1128q-72 -12 -145 -12q-74 0 -144 12l76 436h-399l-76 -436q-74 -12 -149 -12q-76 0 -140 12z" />
<glyph unicode="&#xf60d;" horiz-adv-x="571" d="M141 0l199 1128q70 12 143 13q74 0 146 -13l-199 -1128q-74 -12 -149 -12q-76 0 -140 12z" />
<glyph unicode="&#xf60e;" horiz-adv-x="800" d="M51 2q2 61 19.5 117.5t46.5 111.5q29 -8 56.5 -12t62.5 -4q33 0 65.5 4t61 23.5t51 60.5t35.5 115l83 485h-223q4 55 12.5 111.5t30.5 126.5h508l-135 -762q-20 -115 -59 -191.5t-98.5 -124t-141.5 -68t-188 -20.5q-33 0 -88.5 6.5t-98.5 20.5z" />
<glyph unicode="&#xf60f;" horiz-adv-x="1132" d="M141 0l199 1130q37 6 71.5 8.5t73.5 2.5q37 0 72 -2t70 -9l-199 -1130q-37 -6 -73 -8t-72 -2q-33 0 -70 2t-72 8zM557 582l434 546q47 8 85 10.5t71 2.5q35 0 77 -4t83 -9l-451 -540l281 -588q-45 -4 -88 -8t-78 -4q-33 0 -68 2t-78 10z" />
<glyph unicode="&#xf610;" horiz-adv-x="890" d="M141 0l199 1130q37 6 71.5 8.5t73.5 2.5q37 0 72 -2t70 -9l-158 -888h412q-2 -68 -12.5 -126.5t-28.5 -115.5h-699z" />
<glyph unicode="&#xf611;" horiz-adv-x="1490" d="M102 0l256 1128q39 6 80 9.5t80 3.5q80 0 154 -13l147 -682l400 682q31 6 70.5 9.5t80.5 3.5q76 0 148 -13l-138 -1128q-74 -12 -143 -12q-70 0 -127 12l90 702l-323 -518q-31 -4 -64 -7t-68 -3q-31 0 -57 2t-55 8l-119 512l-154 -696q-61 -12 -124 -12q-72 0 -134 12z " />
<glyph unicode="&#xf612;" horiz-adv-x="1251" d="M141 0l199 1128q61 12 125 13q61 0 123 -13l344 -692l123 692q68 12 137 13q61 0 117 -13l-199 -1128q-66 -12 -125 -12q-61 0 -119 12l-346 686l-121 -686q-61 -12 -133 -12q-70 0 -125 12z" />
<glyph unicode="&#xf613;" horiz-adv-x="1253" d="M180 420q0 133 41 264t120 235.5t195.5 169t270.5 64.5q115 0 199 -33t139 -91t81.5 -141t26.5 -183q0 -141 -41 -273.5t-119.5 -234t-196.5 -162t-271 -60.5q-111 0 -194 32t-139 90.5t-84 140.5t-28 182zM475 436q0 -113 45 -170t131 -57q84 0 141.5 47t93.5 117.5 t52 154.5t16 158q0 115 -46 171t-132 56q-84 0 -141 -48t-92 -119.5t-51.5 -155.5t-16.5 -154z" />
<glyph unicode="&#xf614;" horiz-adv-x="1089" d="M141 0l199 1128q88 12 181 18.5t186 6.5q84 0 161.5 -17.5t138 -56.5t97.5 -103.5t37 -158.5q0 -121 -44 -219t-122 -168t-182.5 -106.5t-225.5 -36.5q-20 0 -44.5 1t-43.5 3l-51 -291q-37 -6 -73 -8t-72 -2q-33 0 -70 2t-72 8zM520 524q10 -4 32.5 -5t39.5 -1 q119 0 184.5 74t65.5 178q0 66 -43 108t-125 42q-20 0 -45 -1t-41 -6z" />
<glyph unicode="&#xf615;" horiz-adv-x="1253" d="M180 420q0 133 41 264t120 235.5t195.5 169t270.5 64.5q115 0 199 -33t139 -91t81.5 -141t26.5 -183q0 -141 -41 -273.5t-119.5 -234t-196.5 -162t-271 -60.5q-111 0 -194 32t-139 90.5t-84 140.5t-28 182zM475 436q0 -113 45 -170t131 -57q84 0 141.5 47t93.5 117.5 t52 154.5t16 158q0 115 -46 171t-132 56q-84 0 -141 -48t-92 -119.5t-51.5 -155.5t-16.5 -154zM717 -244q0 49 13 106.5t40 106.5l404 -61q-2 -53 -16.5 -107.5t-37.5 -105.5z" />
<glyph unicode="&#xf616;" horiz-adv-x="1116" d="M141 0l199 1128q88 10 187.5 17.5t191.5 7.5q213 0 325.5 -82t112.5 -229q0 -117 -60.5 -200t-146.5 -144l-45 -33l174 -461q-43 -4 -82 -8t-88 -4q-80 0 -147 12l-174 512l55 31q39 20 75 44.5t63.5 54.5t44 66t16.5 81q0 55 -37 92t-115 37q-20 0 -46 -1t-56 -6 l-160 -915q-35 -6 -70.5 -8t-72.5 -2q-33 0 -70 2t-74 8z" />
<glyph unicode="&#xf617;" horiz-adv-x="989" d="M100 33q8 53 26.5 114.5t47.5 114.5q66 -25 145.5 -40t151.5 -15q86 0 138.5 28.5t52.5 90.5q0 45 -24 69.5t-81 50.5l-96 46q-96 45 -153.5 111.5t-57.5 176.5q0 84 32.5 152.5t94 118t146.5 76t190 26.5q182 0 334 -63q-6 -55 -29 -116t-51 -104q-47 23 -121 41.5 t-144 18.5q-63 0 -111 -21.5t-48 -74.5q0 -39 33.5 -69t82.5 -52l70 -33q51 -25 94 -52.5t74 -62.5t47.5 -79t16.5 -103q0 -104 -42 -180t-115 -127t-171 -76t-211 -25q-86 0 -165 11.5t-157 46.5z" />
<glyph unicode="&#xf618;" horiz-adv-x="1017" d="M190 891q0 59 10.5 118.5t32.5 118.5h936q2 -59 -9 -120.5t-34 -116.5h-323l-156 -891h-287l156 891h-326z" />
<glyph unicode="&#xf619;" horiz-adv-x="1261" d="M221 360q0 68 12.5 141.5t24.5 143.5l86 483q35 6 72 8.5t73 2.5q35 0 70 -2t70 -9l-74 -417q-16 -98 -28.5 -179t-12.5 -141q0 -90 34 -132t132 -42q61 0 101 19.5t65.5 55.5t40 87t26.5 115l115 632q47 8 83 10.5t65 2.5q35 0 70.5 -2t70.5 -9l-113 -636 q-23 -127 -58.5 -223.5t-99 -162t-159.5 -98.5t-240 -33q-123 0 -205 30t-131 82t-69.5 123t-20.5 150z" />
<glyph unicode="&#xf61a;" horiz-adv-x="1130" d="M217 1126q51 10 92 12.5t72 2.5q39 0 76 -2t71 -13l86 -833l365 835q33 6 73 9.5t81 3.5q35 0 72.5 -2t84.5 -13l-551 -1126q-43 -6 -92 -8t-82 -2t-83 2t-85 10z" />
<glyph unicode="&#xf61b;" horiz-adv-x="1701" d="M188 1128q35 6 76 9.5t84 3.5q33 0 68 -2t69 -13l47 -813l377 813q47 8 82 11.5t66 3.5q57 0 125 -13l88 -852l325 852q29 6 69 9.5t73 3.5q41 0 75.5 -4t69.5 -9l-485 -1128q-35 -6 -88.5 -9t-91.5 -3q-41 0 -85.5 3t-84.5 9l-74 745l-348 -745q-47 -6 -100.5 -9 t-86.5 -3q-31 0 -65.5 3t-67.5 9z" />
<glyph unicode="&#xf61c;" horiz-adv-x="1114" d="M23 0l344 582l-105 546q51 8 92 10.5t70 2.5q33 0 61.5 -2t71.5 -9l94 -544l-305 -586q-49 -6 -96 -9t-80 -3q-68 0 -147 12zM668 588l276 540q88 12 148 13q63 0 155 -13l-293 -536l140 -590q-41 -8 -85 -11t-73 -3q-47 0 -152 12z" />
<glyph unicode="&#xf61d;" horiz-adv-x="1062" d="M188 1128q76 12 166 13q39 0 65.5 -2t61.5 -9l148 -485l323 485q35 6 74 8.5t78 2.5q74 0 147 -13l-522 -766l-65 -364q-37 -6 -74 -8t-74 -2q-35 0 -69.5 2t-69.5 8l67 379z" />
<glyph unicode="&#xf61e;" horiz-adv-x="1011" d="M31 27l647 864h-449q-2 59 8.5 121.5t34.5 115.5h873l6 -24l-645 -866h481q-2 -66 -12 -124.5t-29 -113.5h-903z" />
<glyph unicode="&#xf61f;" horiz-adv-x="1648" d="M0 4l827 1124h934q-4 -59 -12 -115.5t-31 -121.5h-442l-35 -195h340q0 -61 -9 -119.5t-32 -119.5h-340l-39 -219h455q0 -59 -9.5 -115.5t-31.5 -122.5h-741l34 197h-403l-139 -195q-35 -6 -85.5 -9t-88.5 -3q-29 0 -67 2t-85 12zM627 422h280l84 473h-24z" />
<glyph unicode="&#xf620;" horiz-adv-x="1251" d="M141 0l199 1128q61 12 125 13q61 0 123 -13l344 -692l123 692q68 12 137 13q61 0 117 -13l-222 -1257q-35 -197 -157.5 -284t-302.5 -87q-94 0 -181 23q-2 12 -2 23.5v21.5q0 92 43 170q23 -6 52.5 -10t54.5 -4q37 0 70.5 7t62.5 28.5t50.5 60.5t33.5 102l25 139 l-316 625l-121 -686q-61 -12 -133 -12q-70 0 -125 12z" />
<glyph unicode="&#xf621;" horiz-adv-x="1601" d="M180 420q0 141 41 273t120 234.5t195.5 164t270.5 61.5q47 0 94 -7t88 -18h725q-4 -59 -12 -115.5t-31 -121.5h-442l-35 -195h340q0 -61 -9 -119.5t-32 -119.5h-340l-39 -219h455q0 -59 -9.5 -115.5t-31.5 -122.5h-727q-86 -25 -185 -25q-111 0 -192.5 32t-136 90.5 t-81 140t-26.5 182.5zM475 436q0 -227 195 -227q39 0 78.5 6t78.5 23l113 639q-35 16 -72 26t-84 10q-86 0 -145 -45t-95 -114.5t-52.5 -154.5t-16.5 -163z" />
<glyph unicode="&#xf622;" horiz-adv-x="1255" d="M133 471q4 53 10.5 100t28.5 107h125l80 450q78 10 170 17.5t178 7.5q141 0 242.5 -35t168 -96t98.5 -145t32 -183q0 -158 -47.5 -290t-141.5 -227t-235.5 -148.5t-329.5 -53.5q-78 0 -169 7.5t-165 17.5l82 471h-127zM504 221q39 -8 78 -8q88 0 157.5 37t118.5 98.5 t76 144t27 175.5q0 121 -63.5 183t-182.5 62q-23 0 -45.5 -2t-46.5 -6l-41 -227h209q0 -57 -10.5 -108.5t-26.5 -98.5h-207z" />
<glyph unicode="&#xf623;" horiz-adv-x="1259" d="M141 0l140 795h-115q4 53 9 92t28 98h112l25 143q70 12 143 13q74 0 146 -13l-27 -143h399l27 143q70 12 148 13q74 0 141 -13l-25 -143h97q0 -57 -9.5 -100t-25.5 -90h-97l-139 -795q-72 -12 -145 -12q-74 0 -144 12l76 436h-399l-76 -436q-74 -12 -149 -12 q-76 0 -140 12zM549 678h399l21 117h-400z" />
<glyph unicode="&#xf624;" horiz-adv-x="1372" d="M141 0l199 1128q70 12 143 13q74 0 146 -13l-199 -1128q-74 -12 -149 -12q-76 0 -140 12zM622 2q2 61 19.5 117.5t46.5 111.5q29 -8 56.5 -12t62.5 -4q33 0 65.5 4t61 23.5t51 60.5t35.5 115l83 485h-223q4 55 12.5 111.5t30.5 126.5h508l-135 -762q-20 -115 -59 -191.5 t-98.5 -124t-141.5 -68t-188 -20.5q-33 0 -88.5 6.5t-98.5 20.5z" />
<glyph unicode="&#xf625;" horiz-adv-x="571" d="M141 0l199 1128q70 12 143 13q74 0 146 -13l-199 -1128q-74 -12 -149 -12q-76 0 -140 12zM355 1239q-4 72 8 136.5t37 135.5q37 8 78 11.5t73 3.5q33 0 73 -3t75 -12q0 -72 -12.5 -137t-36.5 -135q-37 -6 -77 -8t-73 -2q-31 0 -71.5 2t-73.5 8z" />
<glyph unicode="&#xf626;" horiz-adv-x="571" d="M141 0l199 1128q70 12 143 13q74 0 146 -13l-199 -1128q-74 -12 -149 -12q-76 0 -140 12z" />
<glyph unicode="&#xf627;" horiz-adv-x="1253" d="M78 -23l168 179q-66 109 -66 264q0 133 41 264t120 235.5t195.5 169t270.5 64.5q98 0 173 -23.5t128 -66.5l72 76q25 6 75 6q23 0 52.5 -1t46.5 -5l-164 -172q63 -106 63 -262q0 -141 -41 -273.5t-119.5 -234t-196.5 -162t-271 -60.5q-94 0 -167 22.5t-128 63.5l-80 -84 q-14 -4 -45 -5t-53 -1q-49 0 -74 6zM475 417q0 -9 2 -20l432 457q-47 59 -133 59q-84 0 -141 -48t-92 -119.5t-51.5 -155.5t-16.5 -154v-19zM522 264q43 -55 129 -55q84 0 141.5 47t93.5 117.5t52 154.5t16 158q0 20 -2 31z" />
<glyph unicode="&#xf628;" horiz-adv-x="1089" d="M141 0l199 1128q20 4 61 8.5t88 4.5q37 0 73 -3t61 -12l-25 -143q6 0 23.5 1t54.5 1q84 0 163 -16.5t139 -55.5t97 -103.5t37 -158.5q0 -121 -43 -211t-120 -150.5t-180 -91t-224 -30.5q-20 0 -45 1t-43 3l-29 -172q-37 -6 -73 -8t-72 -2q-33 0 -70 2t-72 8zM498 406 q10 -4 32.5 -5.5t38.5 -1.5q119 0 181.5 52.5t62.5 156.5q0 66 -45 109t-127 43q-20 0 -43 -1t-39 -5z" />
<glyph unicode="&#xf629;" horiz-adv-x="1017" d="M190 891q0 59 10.5 118.5t32.5 118.5h936q2 -59 -9 -120.5t-34 -116.5h-323l-47 -262h225q0 -57 -9 -100.5t-26 -90.5h-223l-76 -438h-287l76 438h-207q4 53 9.5 92t27.5 99h203l47 262h-326z" />
</font>
</defs>
</svg>
